<svg width="123" height="324" viewBox="0 0 123 324" fill="none" xmlns="http://www.w3.org/2000/svg">
<path d="M38.4 43.43C38.5667 43.43 38.7067 43.49 38.82 43.61L40.01 44.88C39.4233 45.6267 38.6933 46.1933 37.82 46.58C36.9533 46.9667 35.92 47.16 34.72 47.16C33.6333 47.16 32.6567 46.9767 31.79 46.61C30.9233 46.2367 30.1867 45.72 29.58 45.06C28.9733 44.4 28.5067 43.6167 28.18 42.71C27.8533 41.8033 27.69 40.8133 27.69 39.74C27.69 39.02 27.7667 38.3367 27.92 37.69C28.08 37.0367 28.31 36.4367 28.61 35.89C28.91 35.3433 29.27 34.85 29.69 34.41C30.1167 33.97 30.5967 33.5967 31.13 33.29C31.6633 32.9767 32.2433 32.74 32.87 32.58C33.5033 32.4133 34.1767 32.33 34.89 32.33C35.4233 32.33 35.9267 32.3767 36.4 32.47C36.88 32.5633 37.3267 32.6933 37.74 32.86C38.1533 33.0267 38.5333 33.23 38.88 33.47C39.2333 33.7033 39.55 33.96 39.83 34.24L38.82 35.62C38.76 35.7067 38.6833 35.7833 38.59 35.85C38.4967 35.9167 38.37 35.95 38.21 35.95C38.05 35.95 37.8867 35.8933 37.72 35.78C37.56 35.6667 37.36 35.54 37.12 35.4C36.8867 35.26 36.59 35.1333 36.23 35.02C35.8767 34.9067 35.4267 34.85 34.88 34.85C34.2733 34.85 33.7167 34.96 33.21 35.18C32.7033 35.4 32.2667 35.72 31.9 36.14C31.54 36.5533 31.26 37.0633 31.06 37.67C30.86 38.2767 30.76 38.9667 30.76 39.74C30.76 40.52 30.8667 41.2167 31.08 41.83C31.3 42.4367 31.5967 42.95 31.97 43.37C32.35 43.79 32.79 44.11 33.29 44.33C33.7967 44.5433 34.3367 44.65 34.91 44.65C35.25 44.65 35.5567 44.6333 35.83 44.6C36.11 44.5667 36.3667 44.51 36.6 44.43C36.84 44.35 37.0633 44.2467 37.27 44.12C37.4833 43.9933 37.6967 43.8333 37.91 43.64C37.9833 43.58 38.06 43.53 38.14 43.49C38.22 43.45 38.3067 43.43 38.4 43.43ZM45.7588 36.53C46.5321 36.53 47.2354 36.6533 47.8688 36.9C48.5021 37.1467 49.0454 37.5 49.4988 37.96C49.9521 38.4133 50.3021 38.9667 50.5488 39.62C50.7954 40.2733 50.9188 41.01 50.9188 41.83C50.9188 42.65 50.7954 43.39 50.5488 44.05C50.3021 44.7033 49.9521 45.26 49.4988 45.72C49.0454 46.18 48.5021 46.5333 47.8688 46.78C47.2354 47.0267 46.5321 47.15 45.7588 47.15C44.9788 47.15 44.2688 47.0267 43.6288 46.78C42.9954 46.5333 42.4521 46.18 41.9988 45.72C41.5454 45.26 41.1921 44.7033 40.9388 44.05C40.6921 43.39 40.5688 42.65 40.5688 41.83C40.5688 41.01 40.6921 40.2733 40.9388 39.62C41.1921 38.9667 41.5454 38.4133 41.9988 37.96C42.4521 37.5 42.9954 37.1467 43.6288 36.9C44.2688 36.6533 44.9788 36.53 45.7588 36.53ZM45.7588 45.08C46.5454 45.08 47.1288 44.81 47.5088 44.27C47.8888 43.7233 48.0788 42.9133 48.0788 41.84C48.0788 40.7733 47.8888 39.97 47.5088 39.43C47.1288 38.8833 46.5454 38.61 45.7588 38.61C44.9521 38.61 44.3588 38.8833 43.9788 39.43C43.5988 39.97 43.4088 40.7733 43.4088 41.84C43.4088 42.9133 43.5988 43.7233 43.9788 44.27C44.3588 44.81 44.9521 45.08 45.7588 45.08ZM55.2117 37.89C55.4184 37.69 55.6317 37.5067 55.8517 37.34C56.0784 37.1733 56.3151 37.03 56.5617 36.91C56.8151 36.79 57.0851 36.6967 57.3717 36.63C57.6651 36.5633 57.9817 36.53 58.3217 36.53C58.8817 36.53 59.3784 36.6267 59.8117 36.82C60.2451 37.0133 60.6084 37.2833 60.9017 37.63C61.2017 37.9767 61.4251 38.39 61.5717 38.87C61.7251 39.35 61.8017 39.8767 61.8017 40.45V47H59.0517V40.45C59.0517 39.8767 58.9184 39.4333 58.6517 39.12C58.3851 38.8 57.9917 38.64 57.4717 38.64C57.0851 38.64 56.7217 38.7233 56.3817 38.89C56.0417 39.0567 55.7184 39.29 55.4117 39.59V47H52.6517V36.69H54.3517C54.6984 36.69 54.9284 36.85 55.0417 37.17L55.2117 37.89ZM67.4227 47.16C66.956 47.16 66.5427 47.0933 66.1827 46.96C65.8227 46.82 65.5193 46.6233 65.2727 46.37C65.026 46.1167 64.8393 45.81 64.7127 45.45C64.586 45.09 64.5227 44.6833 64.5227 44.23V38.67H63.5527C63.406 38.67 63.2793 38.6233 63.1727 38.53C63.0727 38.4367 63.0227 38.2967 63.0227 38.11V37.03L64.6727 36.73L65.2327 34.06C65.306 33.76 65.5093 33.61 65.8427 33.61H67.2827V36.75H69.9427V38.67H67.2827V44.05C67.2827 44.3367 67.3493 44.5633 67.4827 44.73C67.6227 44.8967 67.8193 44.98 68.0727 44.98C68.206 44.98 68.3193 44.9667 68.4127 44.94C68.506 44.9067 68.586 44.8733 68.6527 44.84C68.7193 44.8 68.7793 44.7667 68.8327 44.74C68.8927 44.7067 68.9527 44.69 69.0127 44.69C69.0927 44.69 69.1593 44.71 69.2127 44.75C69.266 44.7833 69.3193 44.8433 69.3727 44.93L70.2027 46.25C69.8227 46.55 69.3927 46.7767 68.9127 46.93C68.4327 47.0833 67.936 47.16 67.4227 47.16ZM77.8636 40.63C77.8636 40.3433 77.8236 40.07 77.7436 39.81C77.6703 39.55 77.5503 39.32 77.3836 39.12C77.2169 38.92 77.0069 38.7633 76.7536 38.65C76.5003 38.53 76.1969 38.47 75.8436 38.47C75.1836 38.47 74.6669 38.6567 74.2936 39.03C73.9203 39.4033 73.6769 39.9367 73.5636 40.63H77.8636ZM73.5236 42.27C73.6103 43.2367 73.8836 43.9433 74.3436 44.39C74.8103 44.8367 75.4169 45.06 76.1636 45.06C76.5436 45.06 76.8703 45.0167 77.1436 44.93C77.4236 44.8367 77.6669 44.7367 77.8736 44.63C78.0869 44.5167 78.2769 44.4167 78.4436 44.33C78.6169 44.2367 78.7869 44.19 78.9536 44.19C79.1669 44.19 79.3336 44.27 79.4536 44.43L80.2536 45.43C79.9603 45.77 79.6369 46.0533 79.2836 46.28C78.9303 46.5 78.5636 46.6767 78.1836 46.81C77.8036 46.9367 77.4203 47.0233 77.0336 47.07C76.6469 47.1233 76.2736 47.15 75.9136 47.15C75.1936 47.15 74.5203 47.0333 73.8936 46.8C73.2736 46.56 72.7303 46.21 72.2636 45.75C71.8036 45.2833 71.4403 44.7067 71.1736 44.02C70.9069 43.3333 70.7736 42.5367 70.7736 41.63C70.7736 40.93 70.8869 40.27 71.1136 39.65C71.3469 39.03 71.6803 38.49 72.1136 38.03C72.5469 37.57 73.0736 37.2067 73.6936 36.94C74.3136 36.6667 75.0136 36.53 75.7936 36.53C76.4536 36.53 77.0603 36.6367 77.6136 36.85C78.1736 37.0567 78.6536 37.36 79.0536 37.76C79.4603 38.16 79.7736 38.6533 79.9936 39.24C80.2203 39.82 80.3336 40.4833 80.3336 41.23C80.3336 41.4367 80.3236 41.6067 80.3036 41.74C80.2836 41.8733 80.2503 41.98 80.2036 42.06C80.1569 42.14 80.0936 42.1967 80.0136 42.23C79.9336 42.2567 79.8303 42.27 79.7036 42.27H73.5236ZM91.4 47H88.75C88.55 47 88.3867 46.95 88.26 46.85C88.14 46.75 88.0433 46.6333 87.97 46.5L85.94 43.11C85.88 43.3367 85.7933 43.5367 85.68 43.71L83.94 46.5C83.86 46.6267 83.76 46.7433 83.64 46.85C83.5267 46.95 83.38 47 83.2 47H80.74L84.24 41.68L80.88 36.69H83.53C83.73 36.69 83.8767 36.7167 83.97 36.77C84.0633 36.8233 84.1467 36.91 84.22 37.03L86.24 40.3C86.2733 40.1867 86.3167 40.0733 86.37 39.96C86.4233 39.84 86.4867 39.7233 86.56 39.61L88.11 37.08C88.27 36.82 88.4767 36.69 88.73 36.69H91.26L87.9 41.56L91.4 47ZM96.0945 47.16C95.6279 47.16 95.2145 47.0933 94.8545 46.96C94.4945 46.82 94.1912 46.6233 93.9445 46.37C93.6979 46.1167 93.5112 45.81 93.3845 45.45C93.2579 45.09 93.1945 44.6833 93.1945 44.23V38.67H92.2245C92.0779 38.67 91.9512 38.6233 91.8445 38.53C91.7445 38.4367 91.6945 38.2967 91.6945 38.11V37.03L93.3445 36.73L93.9045 34.06C93.9779 33.76 94.1812 33.61 94.5145 33.61H95.9545V36.75H98.6145V38.67H95.9545V44.05C95.9545 44.3367 96.0212 44.5633 96.1545 44.73C96.2945 44.8967 96.4912 44.98 96.7445 44.98C96.8779 44.98 96.9912 44.9667 97.0845 44.94C97.1779 44.9067 97.2579 44.8733 97.3245 44.84C97.3912 44.8 97.4512 44.7667 97.5045 44.74C97.5645 44.7067 97.6245 44.69 97.6845 44.69C97.7645 44.69 97.8312 44.71 97.8845 44.75C97.9379 44.7833 97.9912 44.8433 98.0445 44.93L98.8745 46.25C98.4945 46.55 98.0645 46.7767 97.5845 46.93C97.1045 47.0833 96.6079 47.16 96.0945 47.16Z" fill="#272144"/>
<line x1="6.5" y1="2.59952e-08" x2="6.49999" y2="324" stroke="#636363"/>
<g filter="url(#filter0_d)">
<line x1="6.5" y1="2.5" x2="6.5" y2="79.7273" stroke="#FFCE6F" stroke-width="5" stroke-linecap="round" stroke-linejoin="round"/>
</g>
<defs>
<filter id="filter0_d" x="0" y="0" width="13" height="90.2273" filterUnits="userSpaceOnUse" color-interpolation-filters="sRGB">
<feFlood flood-opacity="0" result="BackgroundImageFix"/>
<feColorMatrix in="SourceAlpha" type="matrix" values="0 0 0 0 0 0 0 0 0 0 0 0 0 0 0 0 0 0 127 0"/>
<feOffset dy="4"/>
<feGaussianBlur stdDeviation="2"/>
<feColorMatrix type="matrix" values="0 0 0 0 0 0 0 0 0 0 0 0 0 0 0 0 0 0 0.25 0"/>
<feBlend mode="normal" in2="BackgroundImageFix" result="effect1_dropShadow"/>
<feBlend mode="normal" in="SourceGraphic" in2="effect1_dropShadow" result="shape"/>
</filter>
</defs>
</svg>
