<svg width="189" height="291" viewBox="0 0 189 291" fill="none" xmlns="http://www.w3.org/2000/svg">
<path d="M119.376 89.84V93.85H124.596V96.21H119.376V102H116.356V87.49H125.596V89.84H119.376ZM130.125 91.69V102H127.365V91.69H130.125ZM130.455 88.76C130.455 88.9933 130.408 89.21 130.315 89.41C130.221 89.61 130.095 89.7867 129.935 89.94C129.781 90.0933 129.598 90.2133 129.385 90.3C129.178 90.3867 128.955 90.43 128.715 90.43C128.488 90.43 128.271 90.3867 128.065 90.3C127.865 90.2133 127.688 90.0933 127.535 89.94C127.381 89.7867 127.258 89.61 127.165 89.41C127.078 89.21 127.035 88.9933 127.035 88.76C127.035 88.5267 127.078 88.31 127.165 88.11C127.258 87.9033 127.381 87.7233 127.535 87.57C127.688 87.4167 127.865 87.2967 128.065 87.21C128.271 87.1233 128.488 87.08 128.715 87.08C128.955 87.08 129.178 87.1233 129.385 87.21C129.598 87.2967 129.781 87.4167 129.935 87.57C130.095 87.7233 130.221 87.9033 130.315 88.11C130.408 88.31 130.455 88.5267 130.455 88.76ZM135.04 92.89C135.247 92.69 135.46 92.5067 135.68 92.34C135.907 92.1733 136.143 92.03 136.39 91.91C136.643 91.79 136.913 91.6967 137.2 91.63C137.493 91.5633 137.81 91.53 138.15 91.53C138.71 91.53 139.207 91.6267 139.64 91.82C140.073 92.0133 140.437 92.2833 140.73 92.63C141.03 92.9767 141.253 93.39 141.4 93.87C141.553 94.35 141.63 94.8767 141.63 95.45V102H138.88V95.45C138.88 94.8767 138.747 94.4333 138.48 94.12C138.213 93.8 137.82 93.64 137.3 93.64C136.913 93.64 136.55 93.7233 136.21 93.89C135.87 94.0567 135.547 94.29 135.24 94.59V102H132.48V91.69H134.18C134.527 91.69 134.757 91.85 134.87 92.17L135.04 92.89ZM149.218 97.69C148.544 97.7233 147.984 97.7833 147.538 97.87C147.091 97.95 146.734 98.0567 146.468 98.19C146.208 98.3233 146.021 98.4767 145.908 98.65C145.801 98.8167 145.748 99 145.748 99.2C145.748 99.6 145.858 99.8833 146.078 100.05C146.304 100.217 146.618 100.3 147.018 100.3C147.478 100.3 147.874 100.22 148.208 100.06C148.548 99.8933 148.884 99.6367 149.218 99.29V97.69ZM143.598 93.12C144.204 92.5733 144.874 92.1667 145.608 91.9C146.341 91.6267 147.134 91.49 147.988 91.49C148.601 91.49 149.148 91.59 149.628 91.79C150.114 91.99 150.524 92.27 150.858 92.63C151.198 92.9833 151.458 93.4067 151.638 93.9C151.818 94.3933 151.908 94.9333 151.908 95.52V102H150.648C150.388 102 150.188 101.963 150.048 101.89C149.914 101.817 149.804 101.663 149.718 101.43L149.498 100.77C149.238 100.997 148.984 101.197 148.738 101.37C148.498 101.543 148.248 101.69 147.988 101.81C147.728 101.923 147.448 102.01 147.148 102.07C146.854 102.13 146.524 102.16 146.158 102.16C145.704 102.16 145.291 102.1 144.918 101.98C144.544 101.86 144.221 101.683 143.948 101.45C143.681 101.21 143.474 100.913 143.328 100.56C143.181 100.207 143.108 99.8 143.108 99.34C143.108 98.96 143.204 98.58 143.398 98.2C143.591 97.82 143.921 97.4767 144.388 97.17C144.861 96.8567 145.488 96.6 146.268 96.4C147.054 96.1933 148.038 96.0767 149.218 96.05V95.52C149.218 94.8733 149.081 94.4 148.808 94.1C148.534 93.7933 148.141 93.64 147.628 93.64C147.248 93.64 146.931 93.6867 146.678 93.78C146.424 93.8667 146.201 93.9633 146.008 94.07C145.821 94.17 145.644 94.2667 145.478 94.36C145.311 94.4467 145.118 94.49 144.898 94.49C144.704 94.49 144.541 94.4433 144.408 94.35C144.281 94.25 144.174 94.1333 144.088 94L143.598 93.12ZM156.842 87.09V102H154.082V87.09H156.842ZM20.0986 126H17.0786V111.49H20.0986V126ZM22.597 126V115.69H24.297C24.6437 115.69 24.8737 115.85 24.987 116.17L25.147 116.84C25.327 116.653 25.5104 116.48 25.697 116.32C25.8904 116.16 26.097 116.023 26.317 115.91C26.537 115.79 26.7737 115.697 27.027 115.63C27.287 115.563 27.567 115.53 27.867 115.53C28.5004 115.53 29.0237 115.7 29.437 116.04C29.8504 116.373 30.1637 116.82 30.377 117.38C30.5437 117.053 30.747 116.773 30.987 116.54C31.2337 116.3 31.5004 116.107 31.787 115.96C32.0804 115.813 32.387 115.707 32.707 115.64C33.0337 115.567 33.3604 115.53 33.687 115.53C34.267 115.53 34.7804 115.617 35.227 115.79C35.6737 115.963 36.047 116.22 36.347 116.56C36.6537 116.893 36.887 117.303 37.047 117.79C37.207 118.277 37.287 118.83 37.287 119.45V126H34.527V119.45C34.527 118.243 34.0104 117.64 32.977 117.64C32.7437 117.64 32.527 117.68 32.327 117.76C32.1337 117.833 31.9604 117.947 31.807 118.1C31.6604 118.253 31.5437 118.443 31.457 118.67C31.377 118.897 31.337 119.157 31.337 119.45V126H28.577V119.45C28.577 118.797 28.447 118.333 28.187 118.06C27.9337 117.78 27.557 117.64 27.057 117.64C26.737 117.64 26.4337 117.717 26.147 117.87C25.867 118.017 25.6037 118.223 25.357 118.49V126H22.597ZM42.232 123.28C42.492 123.58 42.772 123.79 43.072 123.91C43.3787 124.03 43.7054 124.09 44.052 124.09C44.3854 124.09 44.6887 124.027 44.962 123.9C45.2354 123.773 45.4687 123.577 45.662 123.31C45.862 123.037 46.0154 122.69 46.122 122.27C46.2287 121.85 46.282 121.35 46.282 120.77C46.282 120.197 46.2354 119.71 46.142 119.31C46.0554 118.91 45.9287 118.587 45.762 118.34C45.602 118.093 45.4054 117.917 45.172 117.81C44.9387 117.697 44.6787 117.64 44.392 117.64C43.9054 117.64 43.4954 117.737 43.162 117.93C42.8354 118.117 42.5254 118.393 42.232 118.76V123.28ZM42.072 117.04C42.2787 116.813 42.4987 116.607 42.732 116.42C42.9654 116.227 43.2154 116.063 43.482 115.93C43.7487 115.79 44.0354 115.683 44.342 115.61C44.6487 115.53 44.982 115.49 45.342 115.49C45.8954 115.49 46.402 115.61 46.862 115.85C47.3287 116.083 47.7287 116.427 48.062 116.88C48.3954 117.327 48.6554 117.877 48.842 118.53C49.0287 119.183 49.122 119.93 49.122 120.77C49.122 121.543 49.0154 122.26 48.802 122.92C48.5954 123.573 48.2987 124.14 47.912 124.62C47.5254 125.1 47.0587 125.477 46.512 125.75C45.972 126.017 45.3687 126.15 44.702 126.15C44.142 126.15 43.6654 126.067 43.272 125.9C42.8854 125.733 42.5387 125.507 42.232 125.22V129.33H39.472V115.69H41.172C41.5187 115.69 41.7487 115.85 41.862 116.17L42.072 117.04ZM53.6778 111.09V126H50.9178V111.09H53.6778ZM62.5159 119.63C62.5159 119.343 62.4759 119.07 62.3959 118.81C62.3226 118.55 62.2026 118.32 62.0359 118.12C61.8693 117.92 61.6593 117.763 61.4059 117.65C61.1526 117.53 60.8493 117.47 60.4959 117.47C59.8359 117.47 59.3193 117.657 58.9459 118.03C58.5726 118.403 58.3293 118.937 58.2159 119.63H62.5159ZM58.1759 121.27C58.2626 122.237 58.5359 122.943 58.9959 123.39C59.4626 123.837 60.0693 124.06 60.8159 124.06C61.1959 124.06 61.5226 124.017 61.7959 123.93C62.0759 123.837 62.3193 123.737 62.5259 123.63C62.7393 123.517 62.9293 123.417 63.0959 123.33C63.2693 123.237 63.4393 123.19 63.6059 123.19C63.8193 123.19 63.9859 123.27 64.1059 123.43L64.9059 124.43C64.6126 124.77 64.2893 125.053 63.9359 125.28C63.5826 125.5 63.2159 125.677 62.8359 125.81C62.4559 125.937 62.0726 126.023 61.6859 126.07C61.2993 126.123 60.9259 126.15 60.5659 126.15C59.8459 126.15 59.1726 126.033 58.5459 125.8C57.9259 125.56 57.3826 125.21 56.9159 124.75C56.4559 124.283 56.0926 123.707 55.8259 123.02C55.5593 122.333 55.4259 121.537 55.4259 120.63C55.4259 119.93 55.5393 119.27 55.7659 118.65C55.9993 118.03 56.3326 117.49 56.7659 117.03C57.1993 116.57 57.7259 116.207 58.3459 115.94C58.9659 115.667 59.6659 115.53 60.4459 115.53C61.1059 115.53 61.7126 115.637 62.2659 115.85C62.8259 116.057 63.3059 116.36 63.7059 116.76C64.1126 117.16 64.4259 117.653 64.6459 118.24C64.8726 118.82 64.9859 119.483 64.9859 120.23C64.9859 120.437 64.9759 120.607 64.9559 120.74C64.9359 120.873 64.9026 120.98 64.8559 121.06C64.8093 121.14 64.7459 121.197 64.6659 121.23C64.5859 121.257 64.4826 121.27 64.3559 121.27H58.1759ZM66.6986 126V115.69H68.3986C68.7453 115.69 68.9753 115.85 69.0886 116.17L69.2486 116.84C69.4286 116.653 69.6119 116.48 69.7986 116.32C69.9919 116.16 70.1986 116.023 70.4186 115.91C70.6386 115.79 70.8753 115.697 71.1286 115.63C71.3886 115.563 71.6686 115.53 71.9686 115.53C72.6019 115.53 73.1253 115.7 73.5386 116.04C73.9519 116.373 74.2653 116.82 74.4786 117.38C74.6453 117.053 74.8486 116.773 75.0886 116.54C75.3353 116.3 75.6019 116.107 75.8886 115.96C76.1819 115.813 76.4886 115.707 76.8086 115.64C77.1353 115.567 77.4619 115.53 77.7886 115.53C78.3686 115.53 78.8819 115.617 79.3286 115.79C79.7753 115.963 80.1486 116.22 80.4486 116.56C80.7553 116.893 80.9886 117.303 81.1486 117.79C81.3086 118.277 81.3886 118.83 81.3886 119.45V126H78.6286V119.45C78.6286 118.243 78.1119 117.64 77.0786 117.64C76.8453 117.64 76.6286 117.68 76.4286 117.76C76.2353 117.833 76.0619 117.947 75.9086 118.1C75.7619 118.253 75.6453 118.443 75.5586 118.67C75.4786 118.897 75.4386 119.157 75.4386 119.45V126H72.6786V119.45C72.6786 118.797 72.5486 118.333 72.2886 118.06C72.0353 117.78 71.6586 117.64 71.1586 117.64C70.8386 117.64 70.5353 117.717 70.2486 117.87C69.9686 118.017 69.7053 118.223 69.4586 118.49V126H66.6986ZM90.1136 119.63C90.1136 119.343 90.0736 119.07 89.9936 118.81C89.9203 118.55 89.8003 118.32 89.6336 118.12C89.4669 117.92 89.2569 117.763 89.0036 117.65C88.7503 117.53 88.4469 117.47 88.0936 117.47C87.4336 117.47 86.9169 117.657 86.5436 118.03C86.1703 118.403 85.9269 118.937 85.8136 119.63H90.1136ZM85.7736 121.27C85.8603 122.237 86.1336 122.943 86.5936 123.39C87.0603 123.837 87.6669 124.06 88.4136 124.06C88.7936 124.06 89.1203 124.017 89.3936 123.93C89.6736 123.837 89.9169 123.737 90.1236 123.63C90.3369 123.517 90.5269 123.417 90.6936 123.33C90.8669 123.237 91.0369 123.19 91.2036 123.19C91.4169 123.19 91.5836 123.27 91.7036 123.43L92.5036 124.43C92.2103 124.77 91.8869 125.053 91.5336 125.28C91.1803 125.5 90.8136 125.677 90.4336 125.81C90.0536 125.937 89.6703 126.023 89.2836 126.07C88.8969 126.123 88.5236 126.15 88.1636 126.15C87.4436 126.15 86.7703 126.033 86.1436 125.8C85.5236 125.56 84.9803 125.21 84.5136 124.75C84.0536 124.283 83.6903 123.707 83.4236 123.02C83.1569 122.333 83.0236 121.537 83.0236 120.63C83.0236 119.93 83.1369 119.27 83.3636 118.65C83.5969 118.03 83.9303 117.49 84.3636 117.03C84.7969 116.57 85.3236 116.207 85.9436 115.94C86.5636 115.667 87.2636 115.53 88.0436 115.53C88.7036 115.53 89.3103 115.637 89.8636 115.85C90.4236 116.057 90.9036 116.36 91.3036 116.76C91.7103 117.16 92.0236 117.653 92.2436 118.24C92.4703 118.82 92.5836 119.483 92.5836 120.23C92.5836 120.437 92.5736 120.607 92.5536 120.74C92.5336 120.873 92.5003 120.98 92.4536 121.06C92.4069 121.14 92.3436 121.197 92.2636 121.23C92.1836 121.257 92.0803 121.27 91.9536 121.27H85.7736ZM96.8563 116.89C97.0629 116.69 97.2763 116.507 97.4963 116.34C97.7229 116.173 97.9596 116.03 98.2062 115.91C98.4596 115.79 98.7296 115.697 99.0163 115.63C99.3096 115.563 99.6263 115.53 99.9663 115.53C100.526 115.53 101.023 115.627 101.456 115.82C101.89 116.013 102.253 116.283 102.546 116.63C102.846 116.977 103.07 117.39 103.216 117.87C103.37 118.35 103.446 118.877 103.446 119.45V126H100.696V119.45C100.696 118.877 100.563 118.433 100.296 118.12C100.03 117.8 99.6363 117.64 99.1163 117.64C98.7296 117.64 98.3663 117.723 98.0263 117.89C97.6863 118.057 97.3629 118.29 97.0563 118.59V126H94.2963V115.69H95.9963C96.3429 115.69 96.5729 115.85 96.6863 116.17L96.8563 116.89ZM109.067 126.16C108.601 126.16 108.187 126.093 107.827 125.96C107.467 125.82 107.164 125.623 106.917 125.37C106.671 125.117 106.484 124.81 106.357 124.45C106.231 124.09 106.167 123.683 106.167 123.23V117.67H105.197C105.051 117.67 104.924 117.623 104.817 117.53C104.717 117.437 104.667 117.297 104.667 117.11V116.03L106.317 115.73L106.877 113.06C106.951 112.76 107.154 112.61 107.487 112.61H108.927V115.75H111.587V117.67H108.927V123.05C108.927 123.337 108.994 123.563 109.127 123.73C109.267 123.897 109.464 123.98 109.717 123.98C109.851 123.98 109.964 123.967 110.057 123.94C110.151 123.907 110.231 123.873 110.297 123.84C110.364 123.8 110.424 123.767 110.477 123.74C110.537 123.707 110.597 123.69 110.657 123.69C110.737 123.69 110.804 123.71 110.857 123.75C110.911 123.783 110.964 123.843 111.017 123.93L111.847 125.25C111.467 125.55 111.037 125.777 110.557 125.93C110.077 126.083 109.581 126.16 109.067 126.16ZM118.456 121.69C117.782 121.723 117.222 121.783 116.776 121.87C116.329 121.95 115.972 122.057 115.706 122.19C115.446 122.323 115.259 122.477 115.146 122.65C115.039 122.817 114.986 123 114.986 123.2C114.986 123.6 115.096 123.883 115.316 124.05C115.542 124.217 115.856 124.3 116.256 124.3C116.716 124.3 117.112 124.22 117.446 124.06C117.786 123.893 118.122 123.637 118.456 123.29V121.69ZM112.836 117.12C113.442 116.573 114.112 116.167 114.846 115.9C115.579 115.627 116.372 115.49 117.226 115.49C117.839 115.49 118.386 115.59 118.866 115.79C119.352 115.99 119.762 116.27 120.096 116.63C120.436 116.983 120.696 117.407 120.876 117.9C121.056 118.393 121.146 118.933 121.146 119.52V126H119.886C119.626 126 119.426 125.963 119.286 125.89C119.152 125.817 119.042 125.663 118.956 125.43L118.736 124.77C118.476 124.997 118.222 125.197 117.976 125.37C117.736 125.543 117.486 125.69 117.226 125.81C116.966 125.923 116.686 126.01 116.386 126.07C116.092 126.13 115.762 126.16 115.396 126.16C114.942 126.16 114.529 126.1 114.156 125.98C113.782 125.86 113.459 125.683 113.186 125.45C112.919 125.21 112.712 124.913 112.566 124.56C112.419 124.207 112.346 123.8 112.346 123.34C112.346 122.96 112.442 122.58 112.636 122.2C112.829 121.82 113.159 121.477 113.626 121.17C114.099 120.857 114.726 120.6 115.506 120.4C116.292 120.193 117.276 120.077 118.456 120.05V119.52C118.456 118.873 118.319 118.4 118.046 118.1C117.772 117.793 117.379 117.64 116.866 117.64C116.486 117.64 116.169 117.687 115.916 117.78C115.662 117.867 115.439 117.963 115.246 118.07C115.059 118.17 114.882 118.267 114.716 118.36C114.549 118.447 114.356 118.49 114.136 118.49C113.942 118.49 113.779 118.443 113.646 118.35C113.519 118.25 113.412 118.133 113.326 118L112.836 117.12ZM133.884 126H131.134V117.67H126.564V123.05C126.564 123.337 126.631 123.563 126.764 123.73C126.904 123.897 127.101 123.98 127.354 123.98C127.487 123.98 127.601 123.967 127.694 123.94C127.787 123.907 127.867 123.873 127.934 123.84C128.001 123.8 128.061 123.767 128.114 123.74C128.174 123.707 128.234 123.69 128.294 123.69C128.374 123.69 128.441 123.71 128.494 123.75C128.547 123.783 128.601 123.843 128.654 123.93L129.484 125.25C129.104 125.55 128.674 125.777 128.194 125.93C127.714 126.083 127.217 126.16 126.704 126.16C126.237 126.16 125.824 126.093 125.464 125.96C125.104 125.82 124.801 125.623 124.554 125.37C124.307 125.117 124.121 124.81 123.994 124.45C123.867 124.09 123.804 123.683 123.804 123.23V117.67H122.834C122.687 117.67 122.561 117.623 122.454 117.53C122.354 117.437 122.304 117.297 122.304 117.11V116.03L123.954 115.73L124.514 113.06C124.587 112.76 124.791 112.61 125.124 112.61H126.564V115.75H133.884V126ZM134.314 112.74C134.314 112.967 134.267 113.183 134.174 113.39C134.081 113.59 133.954 113.767 133.794 113.92C133.641 114.067 133.457 114.187 133.244 114.28C133.037 114.367 132.814 114.41 132.574 114.41C132.347 114.41 132.131 114.367 131.924 114.28C131.724 114.187 131.547 114.067 131.394 113.92C131.241 113.767 131.117 113.59 131.024 113.39C130.937 113.183 130.894 112.967 130.894 112.74C130.894 112.507 130.937 112.29 131.024 112.09C131.117 111.883 131.241 111.703 131.394 111.55C131.547 111.397 131.724 111.277 131.924 111.19C132.131 111.097 132.347 111.05 132.574 111.05C132.814 111.05 133.037 111.097 133.244 111.19C133.457 111.277 133.641 111.397 133.794 111.55C133.954 111.703 134.081 111.883 134.174 112.09C134.267 112.29 134.314 112.507 134.314 112.74ZM140.899 115.53C141.673 115.53 142.376 115.653 143.009 115.9C143.643 116.147 144.186 116.5 144.639 116.96C145.093 117.413 145.443 117.967 145.689 118.62C145.936 119.273 146.059 120.01 146.059 120.83C146.059 121.65 145.936 122.39 145.689 123.05C145.443 123.703 145.093 124.26 144.639 124.72C144.186 125.18 143.643 125.533 143.009 125.78C142.376 126.027 141.673 126.15 140.899 126.15C140.119 126.15 139.409 126.027 138.769 125.78C138.136 125.533 137.593 125.18 137.139 124.72C136.686 124.26 136.333 123.703 136.079 123.05C135.833 122.39 135.709 121.65 135.709 120.83C135.709 120.01 135.833 119.273 136.079 118.62C136.333 117.967 136.686 117.413 137.139 116.96C137.593 116.5 138.136 116.147 138.769 115.9C139.409 115.653 140.119 115.53 140.899 115.53ZM140.899 124.08C141.686 124.08 142.269 123.81 142.649 123.27C143.029 122.723 143.219 121.913 143.219 120.84C143.219 119.773 143.029 118.97 142.649 118.43C142.269 117.883 141.686 117.61 140.899 117.61C140.093 117.61 139.499 117.883 139.119 118.43C138.739 118.97 138.549 119.773 138.549 120.84C138.549 121.913 138.739 122.723 139.119 123.27C139.499 123.81 140.093 124.08 140.899 124.08ZM150.352 116.89C150.559 116.69 150.772 116.507 150.992 116.34C151.219 116.173 151.456 116.03 151.702 115.91C151.956 115.79 152.226 115.697 152.512 115.63C152.806 115.563 153.122 115.53 153.462 115.53C154.022 115.53 154.519 115.627 154.952 115.82C155.386 116.013 155.749 116.283 156.042 116.63C156.342 116.977 156.566 117.39 156.712 117.87C156.866 118.35 156.942 118.877 156.942 119.45V126H154.192V119.45C154.192 118.877 154.059 118.433 153.792 118.12C153.526 117.8 153.132 117.64 152.612 117.64C152.226 117.64 151.862 117.723 151.522 117.89C151.182 118.057 150.859 118.29 150.552 118.59V126H147.792V115.69H149.492C149.839 115.69 150.069 115.85 150.182 116.17L150.352 116.89Z" fill="black" fill-opacity="0.64"/>
<line x1="182.633" y1="2.18557e-08" x2="182.633" y2="291" stroke="black"/>
<g filter="url(#filter0_d)">
<line x1="182.428" y1="65.3301" x2="182.428" y2="134.182" stroke="black" stroke-width="5" stroke-linecap="round" stroke-linejoin="round"/>
</g>
<defs>
<filter id="filter0_d" x="175.928" y="62.8301" width="13" height="81.8523" filterUnits="userSpaceOnUse" color-interpolation-filters="sRGB">
<feFlood flood-opacity="0" result="BackgroundImageFix"/>
<feColorMatrix in="SourceAlpha" type="matrix" values="0 0 0 0 0 0 0 0 0 0 0 0 0 0 0 0 0 0 127 0"/>
<feOffset dy="4"/>
<feGaussianBlur stdDeviation="2"/>
<feColorMatrix type="matrix" values="0 0 0 0 0 0 0 0 0 0 0 0 0 0 0 0 0 0 0.25 0"/>
<feBlend mode="normal" in2="BackgroundImageFix" result="effect1_dropShadow"/>
<feBlend mode="normal" in="SourceGraphic" in2="effect1_dropShadow" result="shape"/>
</filter>
</defs>
</svg>
