<svg width="143" height="264" viewBox="0 0 143 264" fill="none" xmlns="http://www.w3.org/2000/svg">
<path d="M33.54 103H30.52V88.49H33.54V103ZM42.2717 95.37C42.0117 95.07 41.7284 94.86 41.4217 94.74C41.1217 94.62 40.8017 94.56 40.4617 94.56C40.1284 94.56 39.8251 94.6233 39.5517 94.75C39.2784 94.8767 39.0417 95.0767 38.8417 95.35C38.6484 95.6167 38.4984 95.96 38.3917 96.38C38.2851 96.8 38.2317 97.3 38.2317 97.88C38.2317 98.4533 38.2751 98.94 38.3617 99.34C38.4484 99.74 38.5717 100.063 38.7317 100.31C38.8984 100.557 39.0984 100.737 39.3317 100.85C39.5651 100.957 39.8251 101.01 40.1117 101.01C40.5984 101.01 41.0051 100.913 41.3317 100.72C41.6651 100.527 41.9784 100.253 42.2717 99.9V95.37ZM45.0317 88.09V103H43.3317C42.9784 103 42.7517 102.84 42.6517 102.52L42.4217 101.62C42.2151 101.847 41.9951 102.053 41.7617 102.24C41.5351 102.427 41.2884 102.59 41.0217 102.73C40.7551 102.863 40.4684 102.967 40.1617 103.04C39.8551 103.113 39.5217 103.15 39.1617 103.15C38.6084 103.15 38.1017 103.033 37.6417 102.8C37.1817 102.567 36.7817 102.227 36.4417 101.78C36.1084 101.327 35.8484 100.773 35.6617 100.12C35.4751 99.4667 35.3817 98.72 35.3817 97.88C35.3817 97.1133 35.4851 96.4 35.6917 95.74C35.9051 95.08 36.2051 94.51 36.5917 94.03C36.9784 93.55 37.4451 93.1733 37.9917 92.9C38.5384 92.6267 39.1451 92.49 39.8117 92.49C40.3717 92.49 40.8417 92.5733 41.2217 92.74C41.6084 92.9067 41.9584 93.1333 42.2717 93.42V88.09H45.0317ZM53.8675 96.63C53.8675 96.3433 53.8275 96.07 53.7475 95.81C53.6742 95.55 53.5542 95.32 53.3875 95.12C53.2208 94.92 53.0108 94.7633 52.7575 94.65C52.5042 94.53 52.2008 94.47 51.8475 94.47C51.1875 94.47 50.6708 94.6567 50.2975 95.03C49.9242 95.4033 49.6808 95.9367 49.5675 96.63H53.8675ZM49.5275 98.27C49.6142 99.2367 49.8875 99.9433 50.3475 100.39C50.8142 100.837 51.4208 101.06 52.1675 101.06C52.5475 101.06 52.8742 101.017 53.1475 100.93C53.4275 100.837 53.6708 100.737 53.8775 100.63C54.0908 100.517 54.2808 100.417 54.4475 100.33C54.6208 100.237 54.7908 100.19 54.9575 100.19C55.1708 100.19 55.3375 100.27 55.4575 100.43L56.2575 101.43C55.9642 101.77 55.6408 102.053 55.2875 102.28C54.9342 102.5 54.5675 102.677 54.1875 102.81C53.8075 102.937 53.4242 103.023 53.0375 103.07C52.6508 103.123 52.2775 103.15 51.9175 103.15C51.1975 103.15 50.5242 103.033 49.8975 102.8C49.2775 102.56 48.7342 102.21 48.2675 101.75C47.8075 101.283 47.4442 100.707 47.1775 100.02C46.9108 99.3333 46.7775 98.5367 46.7775 97.63C46.7775 96.93 46.8908 96.27 47.1175 95.65C47.3508 95.03 47.6842 94.49 48.1175 94.03C48.5508 93.57 49.0775 93.2067 49.6975 92.94C50.3175 92.6667 51.0175 92.53 51.7975 92.53C52.4575 92.53 53.0642 92.6367 53.6175 92.85C54.1775 93.0567 54.6575 93.36 55.0575 93.76C55.4642 94.16 55.7775 94.6533 55.9975 95.24C56.2242 95.82 56.3375 96.4833 56.3375 97.23C56.3375 97.4367 56.3275 97.6067 56.3075 97.74C56.2875 97.8733 56.2542 97.98 56.2075 98.06C56.1608 98.14 56.0975 98.1967 56.0175 98.23C55.9375 98.2567 55.8342 98.27 55.7075 98.27H49.5275ZM63.4402 98.69C62.7668 98.7233 62.2068 98.7833 61.7602 98.87C61.3135 98.95 60.9568 99.0567 60.6902 99.19C60.4302 99.3233 60.2435 99.4767 60.1302 99.65C60.0235 99.8167 59.9702 100 59.9702 100.2C59.9702 100.6 60.0802 100.883 60.3002 101.05C60.5268 101.217 60.8402 101.3 61.2402 101.3C61.7002 101.3 62.0968 101.22 62.4302 101.06C62.7702 100.893 63.1068 100.637 63.4402 100.29V98.69ZM57.8202 94.12C58.4268 93.5733 59.0968 93.1667 59.8302 92.9C60.5635 92.6267 61.3568 92.49 62.2102 92.49C62.8235 92.49 63.3702 92.59 63.8502 92.79C64.3368 92.99 64.7468 93.27 65.0802 93.63C65.4202 93.9833 65.6802 94.4067 65.8602 94.9C66.0402 95.3933 66.1302 95.9333 66.1302 96.52V103H64.8702C64.6102 103 64.4102 102.963 64.2702 102.89C64.1368 102.817 64.0268 102.663 63.9402 102.43L63.7202 101.77C63.4602 101.997 63.2068 102.197 62.9602 102.37C62.7202 102.543 62.4702 102.69 62.2102 102.81C61.9502 102.923 61.6702 103.01 61.3702 103.07C61.0768 103.13 60.7468 103.16 60.3802 103.16C59.9268 103.16 59.5135 103.1 59.1402 102.98C58.7668 102.86 58.4435 102.683 58.1702 102.45C57.9035 102.21 57.6968 101.913 57.5502 101.56C57.4035 101.207 57.3302 100.8 57.3302 100.34C57.3302 99.96 57.4268 99.58 57.6202 99.2C57.8135 98.82 58.1435 98.4767 58.6102 98.17C59.0835 97.8567 59.7102 97.6 60.4902 97.4C61.2768 97.1933 62.2602 97.0767 63.4402 97.05V96.52C63.4402 95.8733 63.3035 95.4 63.0302 95.1C62.7568 94.7933 62.3635 94.64 61.8502 94.64C61.4702 94.64 61.1535 94.6867 60.9002 94.78C60.6468 94.8667 60.4235 94.9633 60.2302 95.07C60.0435 95.17 59.8668 95.2667 59.7002 95.36C59.5335 95.4467 59.3402 95.49 59.1202 95.49C58.9268 95.49 58.7635 95.4433 58.6302 95.35C58.5035 95.25 58.3968 95.1333 58.3102 95L57.8202 94.12ZM78.8683 103H76.1183V94.67H71.5483V100.05C71.5483 100.337 71.6149 100.563 71.7483 100.73C71.8883 100.897 72.0849 100.98 72.3383 100.98C72.4716 100.98 72.5849 100.967 72.6783 100.94C72.7716 100.907 72.8516 100.873 72.9183 100.84C72.9849 100.8 73.0449 100.767 73.0983 100.74C73.1583 100.707 73.2183 100.69 73.2783 100.69C73.3583 100.69 73.4249 100.71 73.4783 100.75C73.5316 100.783 73.5849 100.843 73.6383 100.93L74.4683 102.25C74.0883 102.55 73.6583 102.777 73.1783 102.93C72.6983 103.083 72.2016 103.16 71.6883 103.16C71.2216 103.16 70.8083 103.093 70.4483 102.96C70.0883 102.82 69.7849 102.623 69.5383 102.37C69.2916 102.117 69.1049 101.81 68.9783 101.45C68.8516 101.09 68.7883 100.683 68.7883 100.23V94.67H67.8183C67.6716 94.67 67.5449 94.6233 67.4383 94.53C67.3383 94.4367 67.2883 94.2967 67.2883 94.11V93.03L68.9383 92.73L69.4983 90.06C69.5716 89.76 69.7749 89.61 70.1083 89.61H71.5483V92.75H78.8683V103ZM79.2983 89.74C79.2983 89.9667 79.2516 90.1833 79.1583 90.39C79.0649 90.59 78.9383 90.7667 78.7783 90.92C78.6249 91.0667 78.4416 91.1867 78.2283 91.28C78.0216 91.3667 77.7983 91.41 77.5583 91.41C77.3316 91.41 77.1149 91.3667 76.9083 91.28C76.7083 91.1867 76.5316 91.0667 76.3783 90.92C76.2249 90.7667 76.1016 90.59 76.0083 90.39C75.9216 90.1833 75.8783 89.9667 75.8783 89.74C75.8783 89.5067 75.9216 89.29 76.0083 89.09C76.1016 88.8833 76.2249 88.7033 76.3783 88.55C76.5316 88.3967 76.7083 88.2767 76.9083 88.19C77.1149 88.0967 77.3316 88.05 77.5583 88.05C77.7983 88.05 78.0216 88.0967 78.2283 88.19C78.4416 88.2767 78.6249 88.3967 78.7783 88.55C78.9383 88.7033 79.0649 88.8833 79.1583 89.09C79.2516 89.29 79.2983 89.5067 79.2983 89.74ZM85.8838 92.53C86.6571 92.53 87.3604 92.6533 87.9938 92.9C88.6271 93.1467 89.1704 93.5 89.6238 93.96C90.0771 94.4133 90.4271 94.9667 90.6738 95.62C90.9204 96.2733 91.0438 97.01 91.0438 97.83C91.0438 98.65 90.9204 99.39 90.6738 100.05C90.4271 100.703 90.0771 101.26 89.6238 101.72C89.1704 102.18 88.6271 102.533 87.9938 102.78C87.3604 103.027 86.6571 103.15 85.8838 103.15C85.1038 103.15 84.3938 103.027 83.7538 102.78C83.1204 102.533 82.5771 102.18 82.1238 101.72C81.6704 101.26 81.3171 100.703 81.0638 100.05C80.8171 99.39 80.6938 98.65 80.6938 97.83C80.6938 97.01 80.8171 96.2733 81.0638 95.62C81.3171 94.9667 81.6704 94.4133 82.1238 93.96C82.5771 93.5 83.1204 93.1467 83.7538 92.9C84.3938 92.6533 85.1038 92.53 85.8838 92.53ZM85.8838 101.08C86.6704 101.08 87.2538 100.81 87.6338 100.27C88.0138 99.7233 88.2038 98.9133 88.2038 97.84C88.2038 96.7733 88.0138 95.97 87.6338 95.43C87.2538 94.8833 86.6704 94.61 85.8838 94.61C85.0771 94.61 84.4838 94.8833 84.1038 95.43C83.7238 95.97 83.5338 96.7733 83.5338 97.84C83.5338 98.9133 83.7238 99.7233 84.1038 100.27C84.4838 100.81 85.0771 101.08 85.8838 101.08ZM95.3367 93.89C95.5434 93.69 95.7567 93.5067 95.9767 93.34C96.2034 93.1733 96.4401 93.03 96.6867 92.91C96.9401 92.79 97.2101 92.6967 97.4967 92.63C97.7901 92.5633 98.1067 92.53 98.4467 92.53C99.0067 92.53 99.5034 92.6267 99.9367 92.82C100.37 93.0133 100.733 93.2833 101.027 93.63C101.327 93.9767 101.55 94.39 101.697 94.87C101.85 95.35 101.927 95.8767 101.927 96.45V103H99.1767V96.45C99.1767 95.8767 99.0434 95.4333 98.7767 95.12C98.5101 94.8 98.1167 94.64 97.5967 94.64C97.2101 94.64 96.8467 94.7233 96.5067 94.89C96.1667 95.0567 95.8434 95.29 95.5367 95.59V103H92.7767V92.69H94.4767C94.8234 92.69 95.0534 92.85 95.1667 93.17L95.3367 93.89Z" fill="black" fill-opacity="0.64"/>
<line x1="6.5" y1="2.18557e-08" x2="6.49999" y2="264" stroke="black"/>
<g filter="url(#filter0_d)">
<line x1="6.5" y1="59.5" x2="6.5" y2="121.5" stroke="black" stroke-width="5" stroke-linecap="round" stroke-linejoin="round"/>
</g>
<defs>
<filter id="filter0_d" x="0" y="57" width="13" height="75" filterUnits="userSpaceOnUse" color-interpolation-filters="sRGB">
<feFlood flood-opacity="0" result="BackgroundImageFix"/>
<feColorMatrix in="SourceAlpha" type="matrix" values="0 0 0 0 0 0 0 0 0 0 0 0 0 0 0 0 0 0 127 0"/>
<feOffset dy="4"/>
<feGaussianBlur stdDeviation="2"/>
<feColorMatrix type="matrix" values="0 0 0 0 0 0 0 0 0 0 0 0 0 0 0 0 0 0 0.25 0"/>
<feBlend mode="normal" in2="BackgroundImageFix" result="effect1_dropShadow"/>
<feBlend mode="normal" in="SourceGraphic" in2="effect1_dropShadow" result="shape"/>
</filter>
</defs>
</svg>
