<svg width="145" height="324" viewBox="0 0 145 324" fill="none" xmlns="http://www.w3.org/2000/svg">
<path d="M37.42 73.71C38.36 73.71 39.0467 73.4833 39.48 73.03C39.92 72.5767 40.14 71.9567 40.14 71.17C40.14 70.81 40.0833 70.4833 39.97 70.19C39.8633 69.89 39.6967 69.6367 39.47 69.43C39.25 69.2167 38.97 69.0533 38.63 68.94C38.29 68.8267 37.8867 68.77 37.42 68.77H35.52V73.71H37.42ZM37.42 66.49C38.4133 66.49 39.27 66.6067 39.99 66.84C40.7167 67.0733 41.3133 67.4 41.78 67.82C42.2467 68.2333 42.59 68.7267 42.81 69.3C43.0367 69.8733 43.15 70.4967 43.15 71.17C43.15 71.8833 43.0333 72.5367 42.8 73.13C42.5667 73.7233 42.2133 74.2333 41.74 74.66C41.2667 75.0867 40.67 75.42 39.95 75.66C39.23 75.8933 38.3867 76.01 37.42 76.01H35.52V81H32.52V66.49H37.42ZM47.1323 72.39C47.459 71.8033 47.8357 71.34 48.2623 71C48.689 70.66 49.189 70.49 49.7623 70.49C50.229 70.49 50.609 70.6 50.9023 70.82L50.7223 72.86C50.689 72.9933 50.6357 73.0867 50.5623 73.14C50.4957 73.1867 50.4023 73.21 50.2823 73.21C50.1757 73.21 50.0223 73.1967 49.8223 73.17C49.6223 73.1367 49.4357 73.12 49.2623 73.12C49.009 73.12 48.7823 73.1567 48.5823 73.23C48.389 73.3033 48.2157 73.4067 48.0623 73.54C47.909 73.6733 47.769 73.8367 47.6423 74.03C47.5223 74.2233 47.409 74.4433 47.3023 74.69V81H44.5423V70.69H46.1723C46.4523 70.69 46.6457 70.74 46.7523 70.84C46.859 70.94 46.9357 71.1133 46.9823 71.36L47.1323 72.39ZM56.497 70.53C57.2704 70.53 57.9737 70.6533 58.607 70.9C59.2404 71.1467 59.7837 71.5 60.237 71.96C60.6904 72.4133 61.0404 72.9667 61.287 73.62C61.5337 74.2733 61.657 75.01 61.657 75.83C61.657 76.65 61.5337 77.39 61.287 78.05C61.0404 78.7033 60.6904 79.26 60.237 79.72C59.7837 80.18 59.2404 80.5333 58.607 80.78C57.9737 81.0267 57.2704 81.15 56.497 81.15C55.717 81.15 55.007 81.0267 54.367 80.78C53.7337 80.5333 53.1904 80.18 52.737 79.72C52.2837 79.26 51.9304 78.7033 51.677 78.05C51.4304 77.39 51.307 76.65 51.307 75.83C51.307 75.01 51.4304 74.2733 51.677 73.62C51.9304 72.9667 52.2837 72.4133 52.737 71.96C53.1904 71.5 53.7337 71.1467 54.367 70.9C55.007 70.6533 55.717 70.53 56.497 70.53ZM56.497 79.08C57.2837 79.08 57.867 78.81 58.247 78.27C58.627 77.7233 58.817 76.9133 58.817 75.84C58.817 74.7733 58.627 73.97 58.247 73.43C57.867 72.8833 57.2837 72.61 56.497 72.61C55.6904 72.61 55.097 72.8833 54.717 73.43C54.337 73.97 54.147 74.7733 54.147 75.84C54.147 76.9133 54.337 77.7233 54.717 78.27C55.097 78.81 55.6904 79.08 56.497 79.08ZM66.15 78.28C66.41 78.58 66.69 78.79 66.99 78.91C67.2967 79.03 67.6133 79.09 67.94 79.09C68.28 79.09 68.5867 79.03 68.86 78.91C69.14 78.7833 69.38 78.5867 69.58 78.32C69.78 78.0467 69.9333 77.6933 70.04 77.26C70.1467 76.8267 70.2 76.3033 70.2 75.69C70.2 75.1433 70.1567 74.68 70.07 74.3C69.9833 73.9133 69.8533 73.5967 69.68 73.35C69.5133 73.1033 69.3067 72.9233 69.06 72.81C68.8133 72.6967 68.5267 72.64 68.2 72.64C67.7667 72.64 67.39 72.7367 67.07 72.93C66.7567 73.1167 66.45 73.3933 66.15 73.76V78.28ZM66.15 71.88C66.5567 71.4733 67.0067 71.1467 67.5 70.9C67.9933 70.6533 68.5467 70.53 69.16 70.53C69.7533 70.53 70.2867 70.65 70.76 70.89C71.24 71.1233 71.6467 71.46 71.98 71.9C72.32 72.34 72.58 72.8733 72.76 73.5C72.9467 74.12 73.04 74.8167 73.04 75.59C73.04 76.4233 72.9333 77.1833 72.72 77.87C72.5133 78.55 72.2167 79.1333 71.83 79.62C71.4433 80.1067 70.98 80.4833 70.44 80.75C69.9067 81.0167 69.31 81.15 68.65 81.15C68.33 81.15 68.0433 81.1167 67.79 81.05C67.5367 80.99 67.3033 80.9033 67.09 80.79C66.8767 80.6767 66.68 80.5433 66.5 80.39C66.32 80.23 66.15 80.0533 65.99 79.86L65.88 80.48C65.8333 80.6733 65.7567 80.81 65.65 80.89C65.5433 80.9633 65.4 81 65.22 81H63.39V66.09H66.15V71.88ZM77.5958 66.09V81H74.8358V66.09H77.5958ZM86.4339 74.63C86.4339 74.3433 86.3939 74.07 86.3139 73.81C86.2406 73.55 86.1206 73.32 85.9539 73.12C85.7872 72.92 85.5772 72.7633 85.3239 72.65C85.0706 72.53 84.7672 72.47 84.4139 72.47C83.7539 72.47 83.2372 72.6567 82.8639 73.03C82.4906 73.4033 82.2472 73.9367 82.1339 74.63H86.4339ZM82.0939 76.27C82.1806 77.2367 82.4539 77.9433 82.9139 78.39C83.3806 78.8367 83.9872 79.06 84.7339 79.06C85.1139 79.06 85.4406 79.0167 85.7139 78.93C85.9939 78.8367 86.2372 78.7367 86.4439 78.63C86.6572 78.5167 86.8472 78.4167 87.0139 78.33C87.1872 78.2367 87.3572 78.19 87.5239 78.19C87.7372 78.19 87.9039 78.27 88.0239 78.43L88.8239 79.43C88.5306 79.77 88.2072 80.0533 87.8539 80.28C87.5006 80.5 87.1339 80.6767 86.7539 80.81C86.3739 80.9367 85.9906 81.0233 85.6039 81.07C85.2172 81.1233 84.8439 81.15 84.4839 81.15C83.7639 81.15 83.0906 81.0333 82.4639 80.8C81.8439 80.56 81.3006 80.21 80.8339 79.75C80.3739 79.2833 80.0106 78.7067 79.7439 78.02C79.4772 77.3333 79.3439 76.5367 79.3439 75.63C79.3439 74.93 79.4572 74.27 79.6839 73.65C79.9172 73.03 80.2506 72.49 80.6839 72.03C81.1172 71.57 81.6439 71.2067 82.2639 70.94C82.8839 70.6667 83.5839 70.53 84.3639 70.53C85.0239 70.53 85.6306 70.6367 86.1839 70.85C86.7439 71.0567 87.2239 71.36 87.6239 71.76C88.0306 72.16 88.3439 72.6533 88.5639 73.24C88.7906 73.82 88.9039 74.4833 88.9039 75.23C88.9039 75.4367 88.8939 75.6067 88.8739 75.74C88.8539 75.8733 88.8206 75.98 88.7739 76.06C88.7272 76.14 88.6639 76.1967 88.5839 76.23C88.5039 76.2567 88.4006 76.27 88.2739 76.27H82.0939ZM90.6166 81V70.69H92.3166C92.6632 70.69 92.8932 70.85 93.0066 71.17L93.1666 71.84C93.3466 71.6533 93.5299 71.48 93.7166 71.32C93.9099 71.16 94.1166 71.0233 94.3366 70.91C94.5566 70.79 94.7932 70.6967 95.0466 70.63C95.3066 70.5633 95.5866 70.53 95.8866 70.53C96.5199 70.53 97.0432 70.7 97.4566 71.04C97.8699 71.3733 98.1832 71.82 98.3966 72.38C98.5632 72.0533 98.7666 71.7733 99.0066 71.54C99.2532 71.3 99.5199 71.1067 99.8066 70.96C100.1 70.8133 100.407 70.7067 100.727 70.64C101.053 70.5667 101.38 70.53 101.707 70.53C102.287 70.53 102.8 70.6167 103.247 70.79C103.693 70.9633 104.067 71.22 104.367 71.56C104.673 71.8933 104.907 72.3033 105.067 72.79C105.227 73.2767 105.307 73.83 105.307 74.45V81H102.547V74.45C102.547 73.2433 102.03 72.64 100.997 72.64C100.763 72.64 100.547 72.68 100.347 72.76C100.153 72.8333 99.9799 72.9467 99.8266 73.1C99.6799 73.2533 99.5632 73.4433 99.4766 73.67C99.3966 73.8967 99.3566 74.1567 99.3566 74.45V81H96.5966V74.45C96.5966 73.7967 96.4666 73.3333 96.2066 73.06C95.9532 72.78 95.5766 72.64 95.0766 72.64C94.7566 72.64 94.4532 72.7167 94.1666 72.87C93.8866 73.0167 93.6232 73.2233 93.3766 73.49V81H90.6166Z" fill="black" fill-opacity="0.64"/>
<line x1="6.5" y1="2.59952e-08" x2="6.49999" y2="324" stroke="#636363"/>
<g filter="url(#filter0_d)">
<line x1="6.5" y1="39.5" x2="6.5" y2="116.727" stroke="#FFCE6F" stroke-width="5" stroke-linecap="round" stroke-linejoin="round"/>
</g>
<defs>
<filter id="filter0_d" x="0" y="37" width="13" height="90.2273" filterUnits="userSpaceOnUse" color-interpolation-filters="sRGB">
<feFlood flood-opacity="0" result="BackgroundImageFix"/>
<feColorMatrix in="SourceAlpha" type="matrix" values="0 0 0 0 0 0 0 0 0 0 0 0 0 0 0 0 0 0 127 0"/>
<feOffset dy="4"/>
<feGaussianBlur stdDeviation="2"/>
<feColorMatrix type="matrix" values="0 0 0 0 0 0 0 0 0 0 0 0 0 0 0 0 0 0 0.25 0"/>
<feBlend mode="normal" in2="BackgroundImageFix" result="effect1_dropShadow"/>
<feBlend mode="normal" in="SourceGraphic" in2="effect1_dropShadow" result="shape"/>
</filter>
</defs>
</svg>
