<svg width="145" height="264" viewBox="0 0 145 264" fill="none" xmlns="http://www.w3.org/2000/svg">
<path d="M37.42 99.71C38.36 99.71 39.0467 99.4833 39.48 99.03C39.92 98.5767 40.14 97.9567 40.14 97.17C40.14 96.81 40.0833 96.4833 39.97 96.19C39.8633 95.89 39.6967 95.6367 39.47 95.43C39.25 95.2167 38.97 95.0533 38.63 94.94C38.29 94.8267 37.8867 94.77 37.42 94.77H35.52V99.71H37.42ZM37.42 92.49C38.4133 92.49 39.27 92.6067 39.99 92.84C40.7167 93.0733 41.3133 93.4 41.78 93.82C42.2467 94.2333 42.59 94.7267 42.81 95.3C43.0367 95.8733 43.15 96.4967 43.15 97.17C43.15 97.8833 43.0333 98.5367 42.8 99.13C42.5667 99.7233 42.2133 100.233 41.74 100.66C41.2667 101.087 40.67 101.42 39.95 101.66C39.23 101.893 38.3867 102.01 37.42 102.01H35.52V107H32.52V92.49H37.42ZM47.1323 98.39C47.459 97.8033 47.8357 97.34 48.2623 97C48.689 96.66 49.189 96.49 49.7623 96.49C50.229 96.49 50.609 96.6 50.9023 96.82L50.7223 98.86C50.689 98.9933 50.6357 99.0867 50.5623 99.14C50.4957 99.1867 50.4023 99.21 50.2823 99.21C50.1757 99.21 50.0223 99.1967 49.8223 99.17C49.6223 99.1367 49.4357 99.12 49.2623 99.12C49.009 99.12 48.7823 99.1567 48.5823 99.23C48.389 99.3033 48.2157 99.4067 48.0623 99.54C47.909 99.6733 47.769 99.8367 47.6423 100.03C47.5223 100.223 47.409 100.443 47.3023 100.69V107H44.5423V96.69H46.1723C46.4523 96.69 46.6457 96.74 46.7523 96.84C46.859 96.94 46.9357 97.1133 46.9823 97.36L47.1323 98.39ZM56.497 96.53C57.2704 96.53 57.9737 96.6533 58.607 96.9C59.2404 97.1467 59.7837 97.5 60.237 97.96C60.6904 98.4133 61.0404 98.9667 61.287 99.62C61.5337 100.273 61.657 101.01 61.657 101.83C61.657 102.65 61.5337 103.39 61.287 104.05C61.0404 104.703 60.6904 105.26 60.237 105.72C59.7837 106.18 59.2404 106.533 58.607 106.78C57.9737 107.027 57.2704 107.15 56.497 107.15C55.717 107.15 55.007 107.027 54.367 106.78C53.7337 106.533 53.1904 106.18 52.737 105.72C52.2837 105.26 51.9304 104.703 51.677 104.05C51.4304 103.39 51.307 102.65 51.307 101.83C51.307 101.01 51.4304 100.273 51.677 99.62C51.9304 98.9667 52.2837 98.4133 52.737 97.96C53.1904 97.5 53.7337 97.1467 54.367 96.9C55.007 96.6533 55.717 96.53 56.497 96.53ZM56.497 105.08C57.2837 105.08 57.867 104.81 58.247 104.27C58.627 103.723 58.817 102.913 58.817 101.84C58.817 100.773 58.627 99.97 58.247 99.43C57.867 98.8833 57.2837 98.61 56.497 98.61C55.6904 98.61 55.097 98.8833 54.717 99.43C54.337 99.97 54.147 100.773 54.147 101.84C54.147 102.913 54.337 103.723 54.717 104.27C55.097 104.81 55.6904 105.08 56.497 105.08ZM66.7547 107.16C66.288 107.16 65.8747 107.093 65.5147 106.96C65.1547 106.82 64.8514 106.623 64.6047 106.37C64.358 106.117 64.1714 105.81 64.0447 105.45C63.918 105.09 63.8547 104.683 63.8547 104.23V98.67H62.8847C62.738 98.67 62.6114 98.6233 62.5047 98.53C62.4047 98.4367 62.3547 98.2967 62.3547 98.11V97.03L64.0047 96.73L64.5647 94.06C64.638 93.76 64.8414 93.61 65.1747 93.61H66.6147V96.75H69.2747V98.67H66.6147V104.05C66.6147 104.337 66.6814 104.563 66.8147 104.73C66.9547 104.897 67.1514 104.98 67.4047 104.98C67.538 104.98 67.6514 104.967 67.7447 104.94C67.838 104.907 67.918 104.873 67.9847 104.84C68.0514 104.8 68.1114 104.767 68.1647 104.74C68.2247 104.707 68.2847 104.69 68.3447 104.69C68.4247 104.69 68.4914 104.71 68.5447 104.75C68.598 104.783 68.6514 104.843 68.7047 104.93L69.5347 106.25C69.1547 106.55 68.7247 106.777 68.2447 106.93C67.7647 107.083 67.268 107.16 66.7547 107.16ZM75.3056 96.53C76.079 96.53 76.7823 96.6533 77.4156 96.9C78.049 97.1467 78.5923 97.5 79.0456 97.96C79.499 98.4133 79.849 98.9667 80.0956 99.62C80.3423 100.273 80.4656 101.01 80.4656 101.83C80.4656 102.65 80.3423 103.39 80.0956 104.05C79.849 104.703 79.499 105.26 79.0456 105.72C78.5923 106.18 78.049 106.533 77.4156 106.78C76.7823 107.027 76.079 107.15 75.3056 107.15C74.5256 107.15 73.8156 107.027 73.1756 106.78C72.5423 106.533 71.999 106.18 71.5456 105.72C71.0923 105.26 70.739 104.703 70.4856 104.05C70.239 103.39 70.1156 102.65 70.1156 101.83C70.1156 101.01 70.239 100.273 70.4856 99.62C70.739 98.9667 71.0923 98.4133 71.5456 97.96C71.999 97.5 72.5423 97.1467 73.1756 96.9C73.8156 96.6533 74.5256 96.53 75.3056 96.53ZM75.3056 105.08C76.0923 105.08 76.6756 104.81 77.0556 104.27C77.4356 103.723 77.6256 102.913 77.6256 101.84C77.6256 100.773 77.4356 99.97 77.0556 99.43C76.6756 98.8833 76.0923 98.61 75.3056 98.61C74.499 98.61 73.9056 98.8833 73.5256 99.43C73.1456 99.97 72.9556 100.773 72.9556 101.84C72.9556 102.913 73.1456 103.723 73.5256 104.27C73.9056 104.81 74.499 105.08 75.3056 105.08ZM85.5633 107.16C85.0966 107.16 84.6833 107.093 84.3233 106.96C83.9633 106.82 83.6599 106.623 83.4133 106.37C83.1666 106.117 82.9799 105.81 82.8533 105.45C82.7266 105.09 82.6633 104.683 82.6633 104.23V98.67H81.6933C81.5466 98.67 81.4199 98.6233 81.3133 98.53C81.2133 98.4367 81.1633 98.2967 81.1633 98.11V97.03L82.8133 96.73L83.3733 94.06C83.4466 93.76 83.6499 93.61 83.9833 93.61H85.4233V96.75H88.0833V98.67H85.4233V104.05C85.4233 104.337 85.4899 104.563 85.6233 104.73C85.7633 104.897 85.9599 104.98 86.2133 104.98C86.3466 104.98 86.4599 104.967 86.5533 104.94C86.6466 104.907 86.7266 104.873 86.7933 104.84C86.8599 104.8 86.9199 104.767 86.9733 104.74C87.0333 104.707 87.0933 104.69 87.1533 104.69C87.2333 104.69 87.2999 104.71 87.3533 104.75C87.4066 104.783 87.4599 104.843 87.5133 104.93L88.3433 106.25C87.9633 106.55 87.5333 106.777 87.0533 106.93C86.5733 107.083 86.0766 107.16 85.5633 107.16ZM99.1219 96.69L93.5619 109.77C93.4752 109.957 93.3685 110.097 93.2419 110.19C93.1219 110.283 92.9285 110.33 92.6619 110.33H90.6119L92.5619 106.17L88.4219 96.69H90.8419C91.0619 96.69 91.2319 96.74 91.3519 96.84C91.4719 96.94 91.5585 97.0567 91.6119 97.19L93.5719 102.12C93.6452 102.313 93.7085 102.51 93.7619 102.71C93.8219 102.903 93.8785 103.097 93.9319 103.29C94.0519 102.897 94.1885 102.503 94.3419 102.11L96.1619 97.19C96.2152 97.0433 96.3119 96.9233 96.4519 96.83C96.5919 96.7367 96.7452 96.69 96.9119 96.69H99.1219ZM102.966 104.28C103.226 104.58 103.506 104.79 103.806 104.91C104.113 105.03 104.44 105.09 104.786 105.09C105.12 105.09 105.423 105.027 105.696 104.9C105.97 104.773 106.203 104.577 106.396 104.31C106.596 104.037 106.75 103.69 106.856 103.27C106.963 102.85 107.016 102.35 107.016 101.77C107.016 101.197 106.97 100.71 106.876 100.31C106.79 99.91 106.663 99.5867 106.496 99.34C106.336 99.0933 106.14 98.9167 105.906 98.81C105.673 98.6967 105.413 98.64 105.126 98.64C104.64 98.64 104.23 98.7367 103.896 98.93C103.57 99.1167 103.26 99.3933 102.966 99.76V104.28ZM102.806 98.04C103.013 97.8133 103.233 97.6067 103.466 97.42C103.7 97.2267 103.95 97.0633 104.216 96.93C104.483 96.79 104.77 96.6833 105.076 96.61C105.383 96.53 105.716 96.49 106.076 96.49C106.63 96.49 107.136 96.61 107.596 96.85C108.063 97.0833 108.463 97.4267 108.796 97.88C109.13 98.3267 109.39 98.8767 109.576 99.53C109.763 100.183 109.856 100.93 109.856 101.77C109.856 102.543 109.75 103.26 109.536 103.92C109.33 104.573 109.033 105.14 108.646 105.62C108.26 106.1 107.793 106.477 107.246 106.75C106.706 107.017 106.103 107.15 105.436 107.15C104.876 107.15 104.4 107.067 104.006 106.9C103.62 106.733 103.273 106.507 102.966 106.22V110.33H100.206V96.69H101.906C102.253 96.69 102.483 96.85 102.596 97.17L102.806 98.04ZM114.472 96.69V107H111.712V96.69H114.472ZM114.802 93.76C114.802 93.9933 114.756 94.21 114.662 94.41C114.569 94.61 114.442 94.7867 114.282 94.94C114.129 95.0933 113.946 95.2133 113.732 95.3C113.526 95.3867 113.302 95.43 113.062 95.43C112.836 95.43 112.619 95.3867 112.412 95.3C112.212 95.2133 112.036 95.0933 111.882 94.94C111.729 94.7867 111.606 94.61 111.512 94.41C111.426 94.21 111.382 93.9933 111.382 93.76C111.382 93.5267 111.426 93.31 111.512 93.11C111.606 92.9033 111.729 92.7233 111.882 92.57C112.036 92.4167 112.212 92.2967 112.412 92.21C112.619 92.1233 112.836 92.08 113.062 92.08C113.302 92.08 113.526 92.1233 113.732 92.21C113.946 92.2967 114.129 92.4167 114.282 92.57C114.442 92.7233 114.569 92.9033 114.662 93.11C114.756 93.31 114.802 93.5267 114.802 93.76ZM119.388 97.89C119.594 97.69 119.808 97.5067 120.028 97.34C120.254 97.1733 120.491 97.03 120.737 96.91C120.991 96.79 121.261 96.6967 121.548 96.63C121.841 96.5633 122.158 96.53 122.498 96.53C123.058 96.53 123.554 96.6267 123.988 96.82C124.421 97.0133 124.784 97.2833 125.078 97.63C125.378 97.9767 125.601 98.39 125.748 98.87C125.901 99.35 125.978 99.8767 125.978 100.45V107H123.228V100.45C123.228 99.8767 123.094 99.4333 122.828 99.12C122.561 98.8 122.168 98.64 121.648 98.64C121.261 98.64 120.898 98.7233 120.558 98.89C120.218 99.0567 119.894 99.29 119.588 99.59V107H116.828V96.69H118.528C118.874 96.69 119.104 96.85 119.218 97.17L119.388 97.89ZM132.015 101.46C132.582 101.46 132.998 101.317 133.265 101.03C133.538 100.743 133.675 100.373 133.675 99.92C133.675 99.4467 133.538 99.0767 133.265 98.81C132.998 98.5367 132.582 98.4 132.015 98.4C131.448 98.4 131.032 98.5367 130.765 98.81C130.498 99.0767 130.365 99.4467 130.365 99.92C130.365 100.367 130.498 100.737 130.765 101.03C131.038 101.317 131.455 101.46 132.015 101.46ZM134.625 107.42C134.625 107.24 134.568 107.093 134.455 106.98C134.342 106.867 134.188 106.777 133.995 106.71C133.808 106.643 133.585 106.597 133.325 106.57C133.065 106.537 132.788 106.513 132.495 106.5C132.202 106.48 131.898 106.463 131.585 106.45C131.272 106.437 130.965 106.413 130.665 106.38C130.432 106.52 130.238 106.687 130.085 106.88C129.938 107.067 129.865 107.28 129.865 107.52C129.865 107.687 129.902 107.84 129.975 107.98C130.055 108.12 130.185 108.24 130.365 108.34C130.545 108.44 130.782 108.517 131.075 108.57C131.368 108.63 131.735 108.66 132.175 108.66C132.628 108.66 133.012 108.63 133.325 108.57C133.638 108.51 133.892 108.423 134.085 108.31C134.278 108.203 134.415 108.073 134.495 107.92C134.582 107.767 134.625 107.6 134.625 107.42ZM137.365 97.03V98.04C137.365 98.2 137.318 98.3267 137.225 98.42C137.138 98.5133 136.992 98.5833 136.785 98.63L135.945 98.8C136.058 99.1267 136.115 99.4767 136.115 99.85C136.115 100.363 136.008 100.827 135.795 101.24C135.588 101.647 135.302 101.997 134.935 102.29C134.568 102.577 134.135 102.8 133.635 102.96C133.135 103.113 132.595 103.19 132.015 103.19C131.648 103.19 131.305 103.16 130.985 103.1C130.705 103.273 130.565 103.463 130.565 103.67C130.565 103.863 130.658 104.003 130.845 104.09C131.038 104.177 131.288 104.24 131.595 104.28C131.908 104.313 132.262 104.337 132.655 104.35C133.055 104.357 133.458 104.377 133.865 104.41C134.278 104.443 134.682 104.503 135.075 104.59C135.475 104.67 135.828 104.807 136.135 105C136.448 105.187 136.698 105.437 136.885 105.75C137.078 106.063 137.175 106.467 137.175 106.96C137.175 107.42 137.062 107.867 136.835 108.3C136.608 108.733 136.278 109.12 135.845 109.46C135.418 109.8 134.892 110.073 134.265 110.28C133.638 110.487 132.925 110.59 132.125 110.59C131.332 110.59 130.642 110.513 130.055 110.36C129.475 110.213 128.992 110.013 128.605 109.76C128.225 109.513 127.942 109.227 127.755 108.9C127.568 108.573 127.475 108.233 127.475 107.88C127.475 107.42 127.615 107.03 127.895 106.71C128.175 106.39 128.562 106.133 129.055 105.94C128.795 105.793 128.585 105.603 128.425 105.37C128.272 105.13 128.195 104.82 128.195 104.44C128.195 104.133 128.305 103.81 128.525 103.47C128.752 103.13 129.098 102.847 129.565 102.62C129.038 102.34 128.622 101.967 128.315 101.5C128.008 101.027 127.855 100.477 127.855 99.85C127.855 99.3367 127.958 98.8733 128.165 98.46C128.378 98.0467 128.672 97.6967 129.045 97.41C129.418 97.1167 129.858 96.8933 130.365 96.74C130.872 96.5867 131.422 96.51 132.015 96.51C132.895 96.51 133.672 96.6833 134.345 97.03H137.365Z" fill="black" fill-opacity="0.64"/>
<line x1="6.5" y1="2.18557e-08" x2="6.49999" y2="264" stroke="black"/>
<g filter="url(#filter0_d)">
<line x1="6.5" y1="59.5" x2="6.5" y2="121.5" stroke="black" stroke-width="5" stroke-linecap="round" stroke-linejoin="round"/>
</g>
<defs>
<filter id="filter0_d" x="0" y="57" width="13" height="75" filterUnits="userSpaceOnUse" color-interpolation-filters="sRGB">
<feFlood flood-opacity="0" result="BackgroundImageFix"/>
<feColorMatrix in="SourceAlpha" type="matrix" values="0 0 0 0 0 0 0 0 0 0 0 0 0 0 0 0 0 0 127 0"/>
<feOffset dy="4"/>
<feGaussianBlur stdDeviation="2"/>
<feColorMatrix type="matrix" values="0 0 0 0 0 0 0 0 0 0 0 0 0 0 0 0 0 0 0.25 0"/>
<feBlend mode="normal" in2="BackgroundImageFix" result="effect1_dropShadow"/>
<feBlend mode="normal" in="SourceGraphic" in2="effect1_dropShadow" result="shape"/>
</filter>
</defs>
</svg>
