<svg width="205" height="291" viewBox="0 0 205 291" fill="none" xmlns="http://www.w3.org/2000/svg">
<line x1="6.70459" y1="2.18557e-08" x2="6.70458" y2="291" stroke="black"/>
<g filter="url(#filter0_d)">
<line x1="6.5" y1="65.3301" x2="6.5" y2="134.182" stroke="black" stroke-width="5" stroke-linecap="round" stroke-linejoin="round"/>
</g>
<path d="M28.9682 79.36C29.4549 79.36 29.8749 79.3 30.2282 79.18C30.5815 79.0533 30.8715 78.8833 31.0982 78.67C31.3249 78.45 31.4915 78.1933 31.5982 77.9C31.7049 77.6067 31.7582 77.2867 31.7582 76.94C31.7582 76.2533 31.5282 75.72 31.0682 75.34C30.6149 74.96 29.9215 74.77 28.9882 74.77H27.4282V79.36H28.9682ZM35.9982 87H33.2882C32.7815 87 32.4149 86.8067 32.1882 86.42L29.4282 81.97C29.3149 81.7967 29.1882 81.67 29.0482 81.59C28.9149 81.51 28.7149 81.47 28.4482 81.47H27.4282V87H24.4282V72.49H28.9882C30.0015 72.49 30.8682 72.5967 31.5882 72.81C32.3082 73.0167 32.8982 73.3067 33.3582 73.68C33.8182 74.0533 34.1549 74.5 34.3682 75.02C34.5815 75.5333 34.6882 76.1 34.6882 76.72C34.6882 77.2 34.6182 77.6567 34.4782 78.09C34.3449 78.5167 34.1482 78.9067 33.8882 79.26C33.6282 79.6133 33.3082 79.9267 32.9282 80.2C32.5482 80.4733 32.1149 80.6933 31.6282 80.86C31.8215 80.9667 32.0015 81.0967 32.1682 81.25C32.3349 81.3967 32.4849 81.5733 32.6182 81.78L35.9982 87ZM42.8929 80.63C42.8929 80.3433 42.8529 80.07 42.7729 79.81C42.6996 79.55 42.5796 79.32 42.4129 79.12C42.2462 78.92 42.0362 78.7633 41.7829 78.65C41.5296 78.53 41.2262 78.47 40.8729 78.47C40.2129 78.47 39.6962 78.6567 39.3229 79.03C38.9496 79.4033 38.7062 79.9367 38.5929 80.63H42.8929ZM38.5529 82.27C38.6396 83.2367 38.9129 83.9433 39.3729 84.39C39.8396 84.8367 40.4462 85.06 41.1929 85.06C41.5729 85.06 41.8996 85.0167 42.1729 84.93C42.4529 84.8367 42.6962 84.7367 42.9029 84.63C43.1162 84.5167 43.3062 84.4167 43.4729 84.33C43.6462 84.2367 43.8162 84.19 43.9829 84.19C44.1962 84.19 44.3629 84.27 44.4829 84.43L45.2829 85.43C44.9896 85.77 44.6662 86.0533 44.3129 86.28C43.9596 86.5 43.5929 86.6767 43.2129 86.81C42.8329 86.9367 42.4496 87.0233 42.0629 87.07C41.6762 87.1233 41.3029 87.15 40.9429 87.15C40.2229 87.15 39.5496 87.0333 38.9229 86.8C38.3029 86.56 37.7596 86.21 37.2929 85.75C36.8329 85.2833 36.4696 84.7067 36.2029 84.02C35.9362 83.3333 35.8029 82.5367 35.8029 81.63C35.8029 80.93 35.9162 80.27 36.1429 79.65C36.3762 79.03 36.7096 78.49 37.1429 78.03C37.5762 77.57 38.1029 77.2067 38.7229 76.94C39.3429 76.6667 40.0429 76.53 40.8229 76.53C41.4829 76.53 42.0896 76.6367 42.6429 76.85C43.2029 77.0567 43.6829 77.36 44.0829 77.76C44.4896 78.16 44.8029 78.6533 45.0229 79.24C45.2496 79.82 45.3629 80.4833 45.3629 81.23C45.3629 81.4367 45.3529 81.6067 45.3329 81.74C45.3129 81.8733 45.2796 81.98 45.2329 82.06C45.1862 82.14 45.1229 82.1967 45.0429 82.23C44.9629 82.2567 44.8596 82.27 44.7329 82.27H38.5529ZM47.6498 87V78.67L46.8498 78.53C46.6431 78.49 46.4731 78.4167 46.3398 78.31C46.2131 78.2033 46.1498 78.05 46.1498 77.85V76.75H47.6498V76.07C47.6498 75.4833 47.7398 74.9533 47.9198 74.48C48.1064 74 48.3698 73.5967 48.7098 73.27C49.0498 72.9367 49.4664 72.68 49.9598 72.5C50.4531 72.32 51.0098 72.23 51.6298 72.23C51.8698 72.23 52.0964 72.2467 52.3098 72.28C52.5298 72.3067 52.7498 72.35 52.9698 72.41L52.9098 73.77C52.8964 73.9767 52.8064 74.1133 52.6398 74.18C52.4798 74.24 52.2998 74.27 52.0998 74.27C51.8198 74.27 51.5664 74.3 51.3398 74.36C51.1198 74.42 50.9331 74.5233 50.7798 74.67C50.6264 74.81 50.5098 75.0033 50.4298 75.25C50.3498 75.49 50.3098 75.79 50.3098 76.15V76.75H52.8698V78.67H50.3998V87H47.6498ZM56.7359 78.39C57.0625 77.8033 57.4392 77.34 57.8659 77C58.2925 76.66 58.7925 76.49 59.3659 76.49C59.8325 76.49 60.2125 76.6 60.5059 76.82L60.3259 78.86C60.2925 78.9933 60.2392 79.0867 60.1659 79.14C60.0992 79.1867 60.0059 79.21 59.8859 79.21C59.7792 79.21 59.6259 79.1967 59.4259 79.17C59.2259 79.1367 59.0392 79.12 58.8659 79.12C58.6125 79.12 58.3859 79.1567 58.1859 79.23C57.9925 79.3033 57.8192 79.4067 57.6659 79.54C57.5125 79.6733 57.3725 79.8367 57.2459 80.03C57.1259 80.2233 57.0125 80.4433 56.9059 80.69V87H54.1459V76.69H55.7759C56.0559 76.69 56.2492 76.74 56.3559 76.84C56.4625 76.94 56.5392 77.1133 56.5859 77.36L56.7359 78.39ZM66.9577 82.69C66.2844 82.7233 65.7244 82.7833 65.2777 82.87C64.8311 82.95 64.4744 83.0567 64.2077 83.19C63.9477 83.3233 63.7611 83.4767 63.6477 83.65C63.5411 83.8167 63.4877 84 63.4877 84.2C63.4877 84.6 63.5977 84.8833 63.8177 85.05C64.0444 85.2167 64.3577 85.3 64.7577 85.3C65.2177 85.3 65.6144 85.22 65.9477 85.06C66.2877 84.8933 66.6244 84.6367 66.9577 84.29V82.69ZM61.3377 78.12C61.9444 77.5733 62.6144 77.1667 63.3477 76.9C64.0811 76.6267 64.8744 76.49 65.7277 76.49C66.3411 76.49 66.8877 76.59 67.3677 76.79C67.8544 76.99 68.2644 77.27 68.5977 77.63C68.9377 77.9833 69.1977 78.4067 69.3777 78.9C69.5577 79.3933 69.6477 79.9333 69.6477 80.52V87H68.3877C68.1277 87 67.9277 86.9633 67.7877 86.89C67.6544 86.8167 67.5444 86.6633 67.4577 86.43L67.2377 85.77C66.9777 85.9967 66.7244 86.1967 66.4777 86.37C66.2377 86.5433 65.9877 86.69 65.7277 86.81C65.4677 86.9233 65.1877 87.01 64.8877 87.07C64.5944 87.13 64.2644 87.16 63.8977 87.16C63.4444 87.16 63.0311 87.1 62.6577 86.98C62.2844 86.86 61.9611 86.6833 61.6877 86.45C61.4211 86.21 61.2144 85.9133 61.0677 85.56C60.9211 85.2067 60.8477 84.8 60.8477 84.34C60.8477 83.96 60.9444 83.58 61.1377 83.2C61.3311 82.82 61.6611 82.4767 62.1277 82.17C62.6011 81.8567 63.2277 81.6 64.0077 81.4C64.7944 81.1933 65.7777 81.0767 66.9577 81.05V80.52C66.9577 79.8733 66.8211 79.4 66.5477 79.1C66.2744 78.7933 65.8811 78.64 65.3677 78.64C64.9877 78.64 64.6711 78.6867 64.4177 78.78C64.1644 78.8667 63.9411 78.9633 63.7477 79.07C63.5611 79.17 63.3844 79.2667 63.2177 79.36C63.0511 79.4467 62.8577 79.49 62.6377 79.49C62.4444 79.49 62.2811 79.4433 62.1477 79.35C62.0211 79.25 61.9144 79.1333 61.8277 79L61.3377 78.12ZM71.8021 87V76.69H73.5021C73.8488 76.69 74.0788 76.85 74.1921 77.17L74.3521 77.84C74.5321 77.6533 74.7154 77.48 74.9021 77.32C75.0954 77.16 75.3021 77.0233 75.5221 76.91C75.7421 76.79 75.9788 76.6967 76.2321 76.63C76.4921 76.5633 76.7721 76.53 77.0721 76.53C77.7054 76.53 78.2288 76.7 78.6421 77.04C79.0554 77.3733 79.3688 77.82 79.5821 78.38C79.7488 78.0533 79.9521 77.7733 80.1921 77.54C80.4388 77.3 80.7054 77.1067 80.9921 76.96C81.2854 76.8133 81.5921 76.7067 81.9121 76.64C82.2388 76.5667 82.5654 76.53 82.8921 76.53C83.4721 76.53 83.9854 76.6167 84.4321 76.79C84.8788 76.9633 85.2521 77.22 85.5521 77.56C85.8588 77.8933 86.0921 78.3033 86.2521 78.79C86.4121 79.2767 86.4921 79.83 86.4921 80.45V87H83.7321V80.45C83.7321 79.2433 83.2154 78.64 82.1821 78.64C81.9488 78.64 81.7321 78.68 81.5321 78.76C81.3388 78.8333 81.1654 78.9467 81.0121 79.1C80.8654 79.2533 80.7488 79.4433 80.6621 79.67C80.5821 79.8967 80.5421 80.1567 80.5421 80.45V87H77.7821V80.45C77.7821 79.7967 77.6521 79.3333 77.3921 79.06C77.1388 78.78 76.7621 78.64 76.2621 78.64C75.9421 78.64 75.6388 78.7167 75.3521 78.87C75.0721 79.0167 74.8088 79.2233 74.5621 79.49V87H71.8021ZM91.5171 76.69V87H88.7571V76.69H91.5171ZM91.8471 73.76C91.8471 73.9933 91.8004 74.21 91.7071 74.41C91.6138 74.61 91.4871 74.7867 91.3271 74.94C91.1738 75.0933 90.9904 75.2133 90.7771 75.3C90.5704 75.3867 90.3471 75.43 90.1071 75.43C89.8804 75.43 89.6638 75.3867 89.4571 75.3C89.2571 75.2133 89.0804 75.0933 88.9271 74.94C88.7738 74.7867 88.6504 74.61 88.5571 74.41C88.4704 74.21 88.4271 73.9933 88.4271 73.76C88.4271 73.5267 88.4704 73.31 88.5571 73.11C88.6504 72.9033 88.7738 72.7233 88.9271 72.57C89.0804 72.4167 89.2571 72.2967 89.4571 72.21C89.6638 72.1233 89.8804 72.08 90.1071 72.08C90.3471 72.08 90.5704 72.1233 90.7771 72.21C90.9904 72.2967 91.1738 72.4167 91.3271 72.57C91.4871 72.7233 91.6138 72.9033 91.7071 73.11C91.8004 73.31 91.8471 73.5267 91.8471 73.76ZM96.4324 77.89C96.6391 77.69 96.8524 77.5067 97.0724 77.34C97.2991 77.1733 97.5358 77.03 97.7824 76.91C98.0358 76.79 98.3058 76.6967 98.5924 76.63C98.8858 76.5633 99.2024 76.53 99.5424 76.53C100.102 76.53 100.599 76.6267 101.032 76.82C101.466 77.0133 101.829 77.2833 102.122 77.63C102.422 77.9767 102.646 78.39 102.792 78.87C102.946 79.35 103.022 79.8767 103.022 80.45V87H100.272V80.45C100.272 79.8767 100.139 79.4333 99.8724 79.12C99.6058 78.8 99.2124 78.64 98.6924 78.64C98.3058 78.64 97.9424 78.7233 97.6024 78.89C97.2624 79.0567 96.9391 79.29 96.6324 79.59V87H93.8724V76.69H95.5724C95.9191 76.69 96.1491 76.85 96.2624 77.17L96.4324 77.89ZM109.06 81.46C109.627 81.46 110.043 81.3167 110.31 81.03C110.583 80.7433 110.72 80.3733 110.72 79.92C110.72 79.4467 110.583 79.0767 110.31 78.81C110.043 78.5367 109.627 78.4 109.06 78.4C108.493 78.4 108.077 78.5367 107.81 78.81C107.543 79.0767 107.41 79.4467 107.41 79.92C107.41 80.3667 107.543 80.7367 107.81 81.03C108.083 81.3167 108.5 81.46 109.06 81.46ZM111.67 87.42C111.67 87.24 111.613 87.0933 111.5 86.98C111.387 86.8667 111.233 86.7767 111.04 86.71C110.853 86.6433 110.63 86.5967 110.37 86.57C110.11 86.5367 109.833 86.5133 109.54 86.5C109.247 86.48 108.943 86.4633 108.63 86.45C108.317 86.4367 108.01 86.4133 107.71 86.38C107.477 86.52 107.283 86.6867 107.13 86.88C106.983 87.0667 106.91 87.28 106.91 87.52C106.91 87.6867 106.947 87.84 107.02 87.98C107.1 88.12 107.23 88.24 107.41 88.34C107.59 88.44 107.827 88.5167 108.12 88.57C108.413 88.63 108.78 88.66 109.22 88.66C109.673 88.66 110.057 88.63 110.37 88.57C110.683 88.51 110.937 88.4233 111.13 88.31C111.323 88.2033 111.46 88.0733 111.54 87.92C111.627 87.7667 111.67 87.6 111.67 87.42ZM114.41 77.03V78.04C114.41 78.2 114.363 78.3267 114.27 78.42C114.183 78.5133 114.037 78.5833 113.83 78.63L112.99 78.8C113.103 79.1267 113.16 79.4767 113.16 79.85C113.16 80.3633 113.053 80.8267 112.84 81.24C112.633 81.6467 112.347 81.9967 111.98 82.29C111.613 82.5767 111.18 82.8 110.68 82.96C110.18 83.1133 109.64 83.19 109.06 83.19C108.693 83.19 108.35 83.16 108.03 83.1C107.75 83.2733 107.61 83.4633 107.61 83.67C107.61 83.8633 107.703 84.0033 107.89 84.09C108.083 84.1767 108.333 84.24 108.64 84.28C108.953 84.3133 109.307 84.3367 109.7 84.35C110.1 84.3567 110.503 84.3767 110.91 84.41C111.323 84.4433 111.727 84.5033 112.12 84.59C112.52 84.67 112.873 84.8067 113.18 85C113.493 85.1867 113.743 85.4367 113.93 85.75C114.123 86.0633 114.22 86.4667 114.22 86.96C114.22 87.42 114.107 87.8667 113.88 88.3C113.653 88.7333 113.323 89.12 112.89 89.46C112.463 89.8 111.937 90.0733 111.31 90.28C110.683 90.4867 109.97 90.59 109.17 90.59C108.377 90.59 107.687 90.5133 107.1 90.36C106.52 90.2133 106.037 90.0133 105.65 89.76C105.27 89.5133 104.987 89.2267 104.8 88.9C104.613 88.5733 104.52 88.2333 104.52 87.88C104.52 87.42 104.66 87.03 104.94 86.71C105.22 86.39 105.607 86.1333 106.1 85.94C105.84 85.7933 105.63 85.6033 105.47 85.37C105.317 85.13 105.24 84.82 105.24 84.44C105.24 84.1333 105.35 83.81 105.57 83.47C105.797 83.13 106.143 82.8467 106.61 82.62C106.083 82.34 105.667 81.9667 105.36 81.5C105.053 81.0267 104.9 80.4767 104.9 79.85C104.9 79.3367 105.003 78.8733 105.21 78.46C105.423 78.0467 105.717 77.6967 106.09 77.41C106.463 77.1167 106.903 76.8933 107.41 76.74C107.917 76.5867 108.467 76.51 109.06 76.51C109.94 76.51 110.717 76.6833 111.39 77.03H114.41ZM38.4482 103.74C38.4482 104.8 38.2682 105.783 37.9082 106.69C37.5549 107.597 37.0515 108.38 36.3982 109.04C35.7515 109.7 34.9715 110.22 34.0582 110.6C33.1449 110.973 32.1315 111.16 31.0182 111.16C29.9049 111.16 28.8915 110.973 27.9782 110.6C27.0649 110.22 26.2815 109.7 25.6282 109.04C24.9749 108.38 24.4682 107.597 24.1082 106.69C23.7549 105.783 23.5782 104.8 23.5782 103.74C23.5782 102.68 23.7549 101.7 24.1082 100.8C24.4682 99.8933 24.9749 99.11 25.6282 98.45C26.2815 97.79 27.0649 97.2733 27.9782 96.9C28.8915 96.52 29.9049 96.33 31.0182 96.33C32.1315 96.33 33.1449 96.52 34.0582 96.9C34.9715 97.2733 35.7515 97.7933 36.3982 98.46C37.0515 99.12 37.5549 99.9033 37.9082 100.81C38.2682 101.71 38.4482 102.687 38.4482 103.74ZM35.3782 103.74C35.3782 102.98 35.2782 102.3 35.0782 101.7C34.8782 101.093 34.5882 100.58 34.2082 100.16C33.8349 99.7333 33.3782 99.41 32.8382 99.19C32.3049 98.9633 31.6982 98.85 31.0182 98.85C30.3382 98.85 29.7282 98.9633 29.1882 99.19C28.6482 99.41 28.1882 99.7333 27.8082 100.16C27.4349 100.58 27.1482 101.093 26.9482 101.7C26.7482 102.3 26.6482 102.98 26.6482 103.74C26.6482 104.507 26.7482 105.193 26.9482 105.8C27.1482 106.4 27.4349 106.91 27.8082 107.33C28.1882 107.75 28.6482 108.073 29.1882 108.3C29.7282 108.52 30.3382 108.63 31.0182 108.63C31.6982 108.63 32.3049 108.52 32.8382 108.3C33.3782 108.073 33.8349 107.75 34.2082 107.33C34.5882 106.91 34.8782 106.4 35.0782 105.8C35.2782 105.193 35.3782 104.507 35.3782 103.74ZM42.6629 101.89C42.8696 101.69 43.0829 101.507 43.3029 101.34C43.5296 101.173 43.7662 101.03 44.0129 100.91C44.2662 100.79 44.5362 100.697 44.8229 100.63C45.1162 100.563 45.4329 100.53 45.7729 100.53C46.3329 100.53 46.8296 100.627 47.2629 100.82C47.6962 101.013 48.0596 101.283 48.3529 101.63C48.6529 101.977 48.8762 102.39 49.0229 102.87C49.1762 103.35 49.2529 103.877 49.2529 104.45V111H46.5029V104.45C46.5029 103.877 46.3696 103.433 46.1029 103.12C45.8362 102.8 45.4429 102.64 44.9229 102.64C44.5362 102.64 44.1729 102.723 43.8329 102.89C43.4929 103.057 43.1696 103.29 42.8629 103.59V111H40.1029V100.69H41.8029C42.1496 100.69 42.3796 100.85 42.4929 101.17L42.6629 101.89ZM58.9305 102.99C58.8505 103.097 58.7705 103.18 58.6905 103.24C58.6105 103.293 58.4972 103.32 58.3505 103.32C58.2172 103.32 58.0872 103.283 57.9605 103.21C57.8405 103.13 57.7005 103.047 57.5405 102.96C57.3805 102.867 57.1905 102.783 56.9705 102.71C56.7505 102.63 56.4772 102.59 56.1505 102.59C55.7372 102.59 55.3772 102.667 55.0705 102.82C54.7705 102.967 54.5205 103.18 54.3205 103.46C54.1205 103.74 53.9705 104.08 53.8705 104.48C53.7772 104.88 53.7305 105.33 53.7305 105.83C53.7305 106.883 53.9405 107.69 54.3605 108.25C54.7872 108.81 55.3672 109.09 56.1005 109.09C56.3539 109.09 56.5705 109.07 56.7505 109.03C56.9372 108.983 57.0972 108.927 57.2305 108.86C57.3705 108.793 57.4905 108.72 57.5905 108.64C57.6905 108.56 57.7839 108.487 57.8705 108.42C57.9639 108.353 58.0539 108.3 58.1405 108.26C58.2339 108.213 58.3372 108.19 58.4505 108.19C58.6639 108.19 58.8305 108.27 58.9505 108.43L59.7405 109.43C59.4472 109.77 59.1339 110.053 58.8005 110.28C58.4672 110.5 58.1205 110.677 57.7605 110.81C57.4072 110.937 57.0472 111.023 56.6805 111.07C56.3139 111.123 55.9505 111.15 55.5905 111.15C54.9572 111.15 54.3572 111.033 53.7905 110.8C53.2239 110.56 52.7272 110.213 52.3005 109.76C51.8739 109.307 51.5339 108.75 51.2805 108.09C51.0339 107.43 50.9105 106.677 50.9105 105.83C50.9105 105.077 51.0205 104.377 51.2405 103.73C51.4605 103.083 51.7839 102.523 52.2105 102.05C52.6372 101.577 53.1639 101.207 53.7905 100.94C54.4239 100.667 55.1539 100.53 55.9805 100.53C56.7672 100.53 57.4572 100.657 58.0505 100.91C58.6439 101.163 59.1772 101.53 59.6505 102.01L58.9305 102.99ZM67.5023 104.63C67.5023 104.343 67.4623 104.07 67.3823 103.81C67.3089 103.55 67.1889 103.32 67.0223 103.12C66.8556 102.92 66.6456 102.763 66.3923 102.65C66.1389 102.53 65.8356 102.47 65.4823 102.47C64.8223 102.47 64.3056 102.657 63.9323 103.03C63.5589 103.403 63.3156 103.937 63.2023 104.63H67.5023ZM63.1623 106.27C63.2489 107.237 63.5223 107.943 63.9823 108.39C64.4489 108.837 65.0556 109.06 65.8023 109.06C66.1823 109.06 66.5089 109.017 66.7823 108.93C67.0623 108.837 67.3056 108.737 67.5123 108.63C67.7256 108.517 67.9156 108.417 68.0823 108.33C68.2556 108.237 68.4256 108.19 68.5923 108.19C68.8056 108.19 68.9723 108.27 69.0923 108.43L69.8923 109.43C69.5989 109.77 69.2756 110.053 68.9223 110.28C68.5689 110.5 68.2023 110.677 67.8223 110.81C67.4423 110.937 67.0589 111.023 66.6723 111.07C66.2856 111.123 65.9123 111.15 65.5523 111.15C64.8323 111.15 64.1589 111.033 63.5323 110.8C62.9123 110.56 62.3689 110.21 61.9023 109.75C61.4423 109.283 61.0789 108.707 60.8123 108.02C60.5456 107.333 60.4123 106.537 60.4123 105.63C60.4123 104.93 60.5256 104.27 60.7523 103.65C60.9856 103.03 61.3189 102.49 61.7523 102.03C62.1856 101.57 62.7123 101.207 63.3323 100.94C63.9523 100.667 64.6523 100.53 65.4323 100.53C66.0923 100.53 66.6989 100.637 67.2523 100.85C67.8123 101.057 68.2923 101.36 68.6923 101.76C69.0989 102.16 69.4123 102.653 69.6323 103.24C69.8589 103.82 69.9723 104.483 69.9723 105.23C69.9723 105.437 69.9623 105.607 69.9423 105.74C69.9223 105.873 69.8889 105.98 69.8423 106.06C69.7956 106.14 69.7323 106.197 69.6523 106.23C69.5723 106.257 69.4689 106.27 69.3423 106.27H63.1623ZM83.7874 105.49L82.2174 101.05C82.1241 100.817 82.0241 100.543 81.9174 100.23C81.8174 99.9167 81.7208 99.5767 81.6274 99.21C81.5341 99.5833 81.4341 99.93 81.3274 100.25C81.2274 100.563 81.1308 100.837 81.0374 101.07L79.4774 105.49H83.7874ZM88.8274 111H86.4974C86.2374 111 86.0241 110.94 85.8574 110.82C85.6974 110.693 85.5774 110.533 85.4974 110.34L84.5174 107.57H78.7374L77.7574 110.34C77.6908 110.507 77.5741 110.66 77.4074 110.8C77.2408 110.933 77.0308 111 76.7774 111H74.4274L80.0974 96.49H83.1674L88.8274 111ZM93.6304 105.46C94.1971 105.46 94.6137 105.317 94.8804 105.03C95.1537 104.743 95.2904 104.373 95.2904 103.92C95.2904 103.447 95.1537 103.077 94.8804 102.81C94.6137 102.537 94.1971 102.4 93.6304 102.4C93.0637 102.4 92.6471 102.537 92.3804 102.81C92.1137 103.077 91.9804 103.447 91.9804 103.92C91.9804 104.367 92.1137 104.737 92.3804 105.03C92.6537 105.317 93.0704 105.46 93.6304 105.46ZM96.2404 111.42C96.2404 111.24 96.1837 111.093 96.0704 110.98C95.9571 110.867 95.8037 110.777 95.6104 110.71C95.4237 110.643 95.2004 110.597 94.9404 110.57C94.6804 110.537 94.4037 110.513 94.1104 110.5C93.8171 110.48 93.5137 110.463 93.2004 110.45C92.8871 110.437 92.5804 110.413 92.2804 110.38C92.0471 110.52 91.8537 110.687 91.7004 110.88C91.5537 111.067 91.4804 111.28 91.4804 111.52C91.4804 111.687 91.5171 111.84 91.5904 111.98C91.6704 112.12 91.8004 112.24 91.9804 112.34C92.1604 112.44 92.3971 112.517 92.6904 112.57C92.9837 112.63 93.3504 112.66 93.7904 112.66C94.2437 112.66 94.6271 112.63 94.9404 112.57C95.2537 112.51 95.5071 112.423 95.7004 112.31C95.8937 112.203 96.0304 112.073 96.1104 111.92C96.1971 111.767 96.2404 111.6 96.2404 111.42ZM98.9804 101.03V102.04C98.9804 102.2 98.9337 102.327 98.8404 102.42C98.7537 102.513 98.6071 102.583 98.4004 102.63L97.5604 102.8C97.6737 103.127 97.7304 103.477 97.7304 103.85C97.7304 104.363 97.6237 104.827 97.4104 105.24C97.2037 105.647 96.9171 105.997 96.5504 106.29C96.1837 106.577 95.7504 106.8 95.2504 106.96C94.7504 107.113 94.2104 107.19 93.6304 107.19C93.2637 107.19 92.9204 107.16 92.6004 107.1C92.3204 107.273 92.1804 107.463 92.1804 107.67C92.1804 107.863 92.2737 108.003 92.4604 108.09C92.6537 108.177 92.9037 108.24 93.2104 108.28C93.5237 108.313 93.8771 108.337 94.2704 108.35C94.6704 108.357 95.0737 108.377 95.4804 108.41C95.8937 108.443 96.2971 108.503 96.6904 108.59C97.0904 108.67 97.4437 108.807 97.7504 109C98.0637 109.187 98.3137 109.437 98.5004 109.75C98.6937 110.063 98.7904 110.467 98.7904 110.96C98.7904 111.42 98.6771 111.867 98.4504 112.3C98.2237 112.733 97.8937 113.12 97.4604 113.46C97.0337 113.8 96.5071 114.073 95.8804 114.28C95.2537 114.487 94.5404 114.59 93.7404 114.59C92.9471 114.59 92.2571 114.513 91.6704 114.36C91.0904 114.213 90.6071 114.013 90.2204 113.76C89.8404 113.513 89.5571 113.227 89.3704 112.9C89.1837 112.573 89.0904 112.233 89.0904 111.88C89.0904 111.42 89.2304 111.03 89.5104 110.71C89.7904 110.39 90.1771 110.133 90.6704 109.94C90.4104 109.793 90.2004 109.603 90.0404 109.37C89.8871 109.13 89.8104 108.82 89.8104 108.44C89.8104 108.133 89.9204 107.81 90.1404 107.47C90.3671 107.13 90.7137 106.847 91.1804 106.62C90.6537 106.34 90.2371 105.967 89.9304 105.5C89.6237 105.027 89.4704 104.477 89.4704 103.85C89.4704 103.337 89.5737 102.873 89.7804 102.46C89.9937 102.047 90.2871 101.697 90.6604 101.41C91.0337 101.117 91.4737 100.893 91.9804 100.74C92.4871 100.587 93.0371 100.51 93.6304 100.51C94.5104 100.51 95.2871 100.683 95.9604 101.03H98.9804ZM105.805 106.69C105.132 106.723 104.572 106.783 104.125 106.87C103.679 106.95 103.322 107.057 103.055 107.19C102.795 107.323 102.609 107.477 102.495 107.65C102.389 107.817 102.335 108 102.335 108.2C102.335 108.6 102.445 108.883 102.665 109.05C102.892 109.217 103.205 109.3 103.605 109.3C104.065 109.3 104.462 109.22 104.795 109.06C105.135 108.893 105.472 108.637 105.805 108.29V106.69ZM100.185 102.12C100.792 101.573 101.462 101.167 102.195 100.9C102.929 100.627 103.722 100.49 104.575 100.49C105.189 100.49 105.735 100.59 106.215 100.79C106.702 100.99 107.112 101.27 107.445 101.63C107.785 101.983 108.045 102.407 108.225 102.9C108.405 103.393 108.495 103.933 108.495 104.52V111H107.235C106.975 111 106.775 110.963 106.635 110.89C106.502 110.817 106.392 110.663 106.305 110.43L106.085 109.77C105.825 109.997 105.572 110.197 105.325 110.37C105.085 110.543 104.835 110.69 104.575 110.81C104.315 110.923 104.035 111.01 103.735 111.07C103.442 111.13 103.112 111.16 102.745 111.16C102.292 111.16 101.879 111.1 101.505 110.98C101.132 110.86 100.809 110.683 100.535 110.45C100.269 110.21 100.062 109.913 99.9154 109.56C99.7687 109.207 99.6954 108.8 99.6954 108.34C99.6954 107.96 99.7921 107.58 99.9854 107.2C100.179 106.82 100.509 106.477 100.975 106.17C101.449 105.857 102.075 105.6 102.855 105.4C103.642 105.193 104.625 105.077 105.805 105.05V104.52C105.805 103.873 105.669 103.4 105.395 103.1C105.122 102.793 104.729 102.64 104.215 102.64C103.835 102.64 103.519 102.687 103.265 102.78C103.012 102.867 102.789 102.963 102.595 103.07C102.409 103.17 102.232 103.267 102.065 103.36C101.899 103.447 101.705 103.49 101.485 103.49C101.292 103.49 101.129 103.443 100.995 103.35C100.869 103.25 100.762 103.133 100.675 103L100.185 102.12ZM113.49 100.69V111H110.73V100.69H113.49ZM113.82 97.76C113.82 97.9933 113.773 98.21 113.68 98.41C113.586 98.61 113.46 98.7867 113.3 98.94C113.146 99.0933 112.963 99.2133 112.75 99.3C112.543 99.3867 112.32 99.43 112.08 99.43C111.853 99.43 111.636 99.3867 111.43 99.3C111.23 99.2133 111.053 99.0933 110.9 98.94C110.746 98.7867 110.623 98.61 110.53 98.41C110.443 98.21 110.4 97.9933 110.4 97.76C110.4 97.5267 110.443 97.31 110.53 97.11C110.623 96.9033 110.746 96.7233 110.9 96.57C111.053 96.4167 111.23 96.2967 111.43 96.21C111.636 96.1233 111.853 96.08 112.08 96.08C112.32 96.08 112.543 96.1233 112.75 96.21C112.963 96.2967 113.146 96.4167 113.3 96.57C113.46 96.7233 113.586 96.9033 113.68 97.11C113.773 97.31 113.82 97.5267 113.82 97.76ZM118.405 101.89C118.612 101.69 118.825 101.507 119.045 101.34C119.272 101.173 119.508 101.03 119.755 100.91C120.008 100.79 120.278 100.697 120.565 100.63C120.858 100.563 121.175 100.53 121.515 100.53C122.075 100.53 122.572 100.627 123.005 100.82C123.438 101.013 123.802 101.283 124.095 101.63C124.395 101.977 124.618 102.39 124.765 102.87C124.918 103.35 124.995 103.877 124.995 104.45V111H122.245V104.45C122.245 103.877 122.112 103.433 121.845 103.12C121.578 102.8 121.185 102.64 120.665 102.64C120.278 102.64 119.915 102.723 119.575 102.89C119.235 103.057 118.912 103.29 118.605 103.59V111H115.845V100.69H117.545C117.892 100.69 118.122 100.85 118.235 101.17L118.405 101.89Z" fill="black" fill-opacity="0.64"/>
<defs>
<filter id="filter0_d" x="0" y="62.8301" width="13" height="81.8523" filterUnits="userSpaceOnUse" color-interpolation-filters="sRGB">
<feFlood flood-opacity="0" result="BackgroundImageFix"/>
<feColorMatrix in="SourceAlpha" type="matrix" values="0 0 0 0 0 0 0 0 0 0 0 0 0 0 0 0 0 0 127 0"/>
<feOffset dy="4"/>
<feGaussianBlur stdDeviation="2"/>
<feColorMatrix type="matrix" values="0 0 0 0 0 0 0 0 0 0 0 0 0 0 0 0 0 0 0.25 0"/>
<feBlend mode="normal" in2="BackgroundImageFix" result="effect1_dropShadow"/>
<feBlend mode="normal" in="SourceGraphic" in2="effect1_dropShadow" result="shape"/>
</filter>
</defs>
</svg>
