<svg width="188" height="324" viewBox="0 0 188 324" fill="none" xmlns="http://www.w3.org/2000/svg">
<path d="M37.06 115.36C37.5467 115.36 37.9667 115.3 38.32 115.18C38.6733 115.053 38.9633 114.883 39.19 114.67C39.4167 114.45 39.5833 114.193 39.69 113.9C39.7967 113.607 39.85 113.287 39.85 112.94C39.85 112.253 39.62 111.72 39.16 111.34C38.7067 110.96 38.0133 110.77 37.08 110.77H35.52V115.36H37.06ZM44.09 123H41.38C40.8733 123 40.5067 122.807 40.28 122.42L37.52 117.97C37.4067 117.797 37.28 117.67 37.14 117.59C37.0067 117.51 36.8067 117.47 36.54 117.47H35.52V123H32.52V108.49H37.08C38.0933 108.49 38.96 108.597 39.68 108.81C40.4 109.017 40.99 109.307 41.45 109.68C41.91 110.053 42.2467 110.5 42.46 111.02C42.6733 111.533 42.78 112.1 42.78 112.72C42.78 113.2 42.71 113.657 42.57 114.09C42.4367 114.517 42.24 114.907 41.98 115.26C41.72 115.613 41.4 115.927 41.02 116.2C40.64 116.473 40.2067 116.693 39.72 116.86C39.9133 116.967 40.0933 117.097 40.26 117.25C40.4267 117.397 40.5767 117.573 40.71 117.78L44.09 123ZM50.9847 116.63C50.9847 116.343 50.9447 116.07 50.8647 115.81C50.7914 115.55 50.6714 115.32 50.5047 115.12C50.338 114.92 50.128 114.763 49.8747 114.65C49.6214 114.53 49.318 114.47 48.9647 114.47C48.3047 114.47 47.788 114.657 47.4147 115.03C47.0414 115.403 46.798 115.937 46.6847 116.63H50.9847ZM46.6447 118.27C46.7314 119.237 47.0047 119.943 47.4647 120.39C47.9314 120.837 48.538 121.06 49.2847 121.06C49.6647 121.06 49.9914 121.017 50.2647 120.93C50.5447 120.837 50.788 120.737 50.9947 120.63C51.208 120.517 51.398 120.417 51.5647 120.33C51.738 120.237 51.908 120.19 52.0747 120.19C52.288 120.19 52.4547 120.27 52.5747 120.43L53.3747 121.43C53.0814 121.77 52.758 122.053 52.4047 122.28C52.0514 122.5 51.6847 122.677 51.3047 122.81C50.9247 122.937 50.5414 123.023 50.1547 123.07C49.768 123.123 49.3947 123.15 49.0347 123.15C48.3147 123.15 47.6414 123.033 47.0147 122.8C46.3947 122.56 45.8514 122.21 45.3847 121.75C44.9247 121.283 44.5614 120.707 44.2947 120.02C44.028 119.333 43.8947 118.537 43.8947 117.63C43.8947 116.93 44.008 116.27 44.2347 115.65C44.468 115.03 44.8014 114.49 45.2347 114.03C45.668 113.57 46.1947 113.207 46.8147 112.94C47.4347 112.667 48.1347 112.53 48.9147 112.53C49.5747 112.53 50.1814 112.637 50.7347 112.85C51.2947 113.057 51.7747 113.36 52.1747 113.76C52.5814 114.16 52.8947 114.653 53.1147 115.24C53.3414 115.82 53.4547 116.483 53.4547 117.23C53.4547 117.437 53.4447 117.607 53.4247 117.74C53.4047 117.873 53.3714 117.98 53.3247 118.06C53.278 118.14 53.2147 118.197 53.1347 118.23C53.0547 118.257 52.9514 118.27 52.8247 118.27H46.6447ZM55.7416 123V114.67L54.9416 114.53C54.7349 114.49 54.5649 114.417 54.4316 114.31C54.3049 114.203 54.2416 114.05 54.2416 113.85V112.75H55.7416V112.07C55.7416 111.483 55.8316 110.953 56.0116 110.48C56.1982 110 56.4616 109.597 56.8016 109.27C57.1416 108.937 57.5582 108.68 58.0516 108.5C58.5449 108.32 59.1016 108.23 59.7216 108.23C59.9616 108.23 60.1882 108.247 60.4016 108.28C60.6216 108.307 60.8416 108.35 61.0616 108.41L61.0016 109.77C60.9882 109.977 60.8982 110.113 60.7316 110.18C60.5716 110.24 60.3916 110.27 60.1916 110.27C59.9116 110.27 59.6582 110.3 59.4316 110.36C59.2116 110.42 59.0249 110.523 58.8716 110.67C58.7182 110.81 58.6016 111.003 58.5216 111.25C58.4416 111.49 58.4016 111.79 58.4016 112.15V112.75H60.9616V114.67H58.4916V123H55.7416ZM64.8277 114.39C65.1543 113.803 65.531 113.34 65.9577 113C66.3843 112.66 66.8843 112.49 67.4577 112.49C67.9243 112.49 68.3043 112.6 68.5977 112.82L68.4177 114.86C68.3843 114.993 68.331 115.087 68.2577 115.14C68.191 115.187 68.0977 115.21 67.9777 115.21C67.871 115.21 67.7177 115.197 67.5177 115.17C67.3177 115.137 67.131 115.12 66.9577 115.12C66.7043 115.12 66.4777 115.157 66.2777 115.23C66.0843 115.303 65.911 115.407 65.7577 115.54C65.6043 115.673 65.4643 115.837 65.3377 116.03C65.2177 116.223 65.1043 116.443 64.9977 116.69V123H62.2377V112.69H63.8677C64.1477 112.69 64.341 112.74 64.4477 112.84C64.5543 112.94 64.631 113.113 64.6777 113.36L64.8277 114.39ZM75.0495 118.69C74.3762 118.723 73.8162 118.783 73.3695 118.87C72.9229 118.95 72.5662 119.057 72.2995 119.19C72.0395 119.323 71.8529 119.477 71.7395 119.65C71.6329 119.817 71.5795 120 71.5795 120.2C71.5795 120.6 71.6895 120.883 71.9095 121.05C72.1362 121.217 72.4495 121.3 72.8495 121.3C73.3095 121.3 73.7062 121.22 74.0395 121.06C74.3795 120.893 74.7162 120.637 75.0495 120.29V118.69ZM69.4295 114.12C70.0362 113.573 70.7062 113.167 71.4395 112.9C72.1729 112.627 72.9662 112.49 73.8195 112.49C74.4329 112.49 74.9795 112.59 75.4595 112.79C75.9462 112.99 76.3562 113.27 76.6895 113.63C77.0295 113.983 77.2895 114.407 77.4695 114.9C77.6495 115.393 77.7395 115.933 77.7395 116.52V123H76.4795C76.2195 123 76.0195 122.963 75.8795 122.89C75.7462 122.817 75.6362 122.663 75.5495 122.43L75.3295 121.77C75.0695 121.997 74.8162 122.197 74.5695 122.37C74.3295 122.543 74.0795 122.69 73.8195 122.81C73.5595 122.923 73.2795 123.01 72.9795 123.07C72.6862 123.13 72.3562 123.16 71.9895 123.16C71.5362 123.16 71.1229 123.1 70.7495 122.98C70.3762 122.86 70.0529 122.683 69.7795 122.45C69.5129 122.21 69.3062 121.913 69.1595 121.56C69.0129 121.207 68.9395 120.8 68.9395 120.34C68.9395 119.96 69.0362 119.58 69.2295 119.2C69.4229 118.82 69.7529 118.477 70.2195 118.17C70.6929 117.857 71.3195 117.6 72.0995 117.4C72.8862 117.193 73.8695 117.077 75.0495 117.05V116.52C75.0495 115.873 74.9129 115.4 74.6395 115.1C74.3662 114.793 73.9729 114.64 73.4595 114.64C73.0795 114.64 72.7629 114.687 72.5095 114.78C72.2562 114.867 72.0329 114.963 71.8395 115.07C71.6529 115.17 71.4762 115.267 71.3095 115.36C71.1429 115.447 70.9495 115.49 70.7295 115.49C70.5362 115.49 70.3729 115.443 70.2395 115.35C70.1129 115.25 70.0062 115.133 69.9195 115L69.4295 114.12ZM79.8939 123V112.69H81.5939C81.9406 112.69 82.1706 112.85 82.2839 113.17L82.4439 113.84C82.6239 113.653 82.8072 113.48 82.9939 113.32C83.1872 113.16 83.3939 113.023 83.6139 112.91C83.8339 112.79 84.0706 112.697 84.3239 112.63C84.5839 112.563 84.8639 112.53 85.1639 112.53C85.7972 112.53 86.3206 112.7 86.7339 113.04C87.1472 113.373 87.4606 113.82 87.6739 114.38C87.8406 114.053 88.0439 113.773 88.2839 113.54C88.5306 113.3 88.7972 113.107 89.0839 112.96C89.3772 112.813 89.6839 112.707 90.0039 112.64C90.3306 112.567 90.6572 112.53 90.9839 112.53C91.5639 112.53 92.0772 112.617 92.5239 112.79C92.9706 112.963 93.3439 113.22 93.6439 113.56C93.9506 113.893 94.1839 114.303 94.3439 114.79C94.5039 115.277 94.5839 115.83 94.5839 116.45V123H91.8239V116.45C91.8239 115.243 91.3072 114.64 90.2739 114.64C90.0406 114.64 89.8239 114.68 89.6239 114.76C89.4306 114.833 89.2572 114.947 89.1039 115.1C88.9572 115.253 88.8406 115.443 88.7539 115.67C88.6739 115.897 88.6339 116.157 88.6339 116.45V123H85.8739V116.45C85.8739 115.797 85.7439 115.333 85.4839 115.06C85.2306 114.78 84.8539 114.64 84.3539 114.64C84.0339 114.64 83.7306 114.717 83.4439 114.87C83.1639 115.017 82.9006 115.223 82.6539 115.49V123H79.8939ZM99.6089 112.69V123H96.8489V112.69H99.6089ZM99.9389 109.76C99.9389 109.993 99.8922 110.21 99.7989 110.41C99.7056 110.61 99.5789 110.787 99.4189 110.94C99.2656 111.093 99.0822 111.213 98.8689 111.3C98.6622 111.387 98.4389 111.43 98.1989 111.43C97.9722 111.43 97.7556 111.387 97.5489 111.3C97.3489 111.213 97.1722 111.093 97.0189 110.94C96.8656 110.787 96.7422 110.61 96.6489 110.41C96.5622 110.21 96.5189 109.993 96.5189 109.76C96.5189 109.527 96.5622 109.31 96.6489 109.11C96.7422 108.903 96.8656 108.723 97.0189 108.57C97.1722 108.417 97.3489 108.297 97.5489 108.21C97.7556 108.123 97.9722 108.08 98.1989 108.08C98.4389 108.08 98.6622 108.123 98.8689 108.21C99.0822 108.297 99.2656 108.417 99.4189 108.57C99.5789 108.723 99.7056 108.903 99.7989 109.11C99.8922 109.31 99.9389 109.527 99.9389 109.76ZM104.524 113.89C104.731 113.69 104.944 113.507 105.164 113.34C105.391 113.173 105.628 113.03 105.874 112.91C106.128 112.79 106.398 112.697 106.684 112.63C106.978 112.563 107.294 112.53 107.634 112.53C108.194 112.53 108.691 112.627 109.124 112.82C109.558 113.013 109.921 113.283 110.214 113.63C110.514 113.977 110.738 114.39 110.884 114.87C111.038 115.35 111.114 115.877 111.114 116.45V123H108.364V116.45C108.364 115.877 108.231 115.433 107.964 115.12C107.698 114.8 107.304 114.64 106.784 114.64C106.398 114.64 106.034 114.723 105.694 114.89C105.354 115.057 105.031 115.29 104.724 115.59V123H101.964V112.69H103.664C104.011 112.69 104.241 112.85 104.354 113.17L104.524 113.89ZM117.152 117.46C117.719 117.46 118.135 117.317 118.402 117.03C118.675 116.743 118.812 116.373 118.812 115.92C118.812 115.447 118.675 115.077 118.402 114.81C118.135 114.537 117.719 114.4 117.152 114.4C116.585 114.4 116.169 114.537 115.902 114.81C115.635 115.077 115.502 115.447 115.502 115.92C115.502 116.367 115.635 116.737 115.902 117.03C116.175 117.317 116.592 117.46 117.152 117.46ZM119.762 123.42C119.762 123.24 119.705 123.093 119.592 122.98C119.479 122.867 119.325 122.777 119.132 122.71C118.945 122.643 118.722 122.597 118.462 122.57C118.202 122.537 117.925 122.513 117.632 122.5C117.339 122.48 117.035 122.463 116.722 122.45C116.409 122.437 116.102 122.413 115.802 122.38C115.569 122.52 115.375 122.687 115.222 122.88C115.075 123.067 115.002 123.28 115.002 123.52C115.002 123.687 115.039 123.84 115.112 123.98C115.192 124.12 115.322 124.24 115.502 124.34C115.682 124.44 115.919 124.517 116.212 124.57C116.505 124.63 116.872 124.66 117.312 124.66C117.765 124.66 118.149 124.63 118.462 124.57C118.775 124.51 119.029 124.423 119.222 124.31C119.415 124.203 119.552 124.073 119.632 123.92C119.719 123.767 119.762 123.6 119.762 123.42ZM122.502 113.03V114.04C122.502 114.2 122.455 114.327 122.362 114.42C122.275 114.513 122.129 114.583 121.922 114.63L121.082 114.8C121.195 115.127 121.252 115.477 121.252 115.85C121.252 116.363 121.145 116.827 120.932 117.24C120.725 117.647 120.439 117.997 120.072 118.29C119.705 118.577 119.272 118.8 118.772 118.96C118.272 119.113 117.732 119.19 117.152 119.19C116.785 119.19 116.442 119.16 116.122 119.1C115.842 119.273 115.702 119.463 115.702 119.67C115.702 119.863 115.795 120.003 115.982 120.09C116.175 120.177 116.425 120.24 116.732 120.28C117.045 120.313 117.399 120.337 117.792 120.35C118.192 120.357 118.595 120.377 119.002 120.41C119.415 120.443 119.819 120.503 120.212 120.59C120.612 120.67 120.965 120.807 121.272 121C121.585 121.187 121.835 121.437 122.022 121.75C122.215 122.063 122.312 122.467 122.312 122.96C122.312 123.42 122.199 123.867 121.972 124.3C121.745 124.733 121.415 125.12 120.982 125.46C120.555 125.8 120.029 126.073 119.402 126.28C118.775 126.487 118.062 126.59 117.262 126.59C116.469 126.59 115.779 126.513 115.192 126.36C114.612 126.213 114.129 126.013 113.742 125.76C113.362 125.513 113.079 125.227 112.892 124.9C112.705 124.573 112.612 124.233 112.612 123.88C112.612 123.42 112.752 123.03 113.032 122.71C113.312 122.39 113.699 122.133 114.192 121.94C113.932 121.793 113.722 121.603 113.562 121.37C113.409 121.13 113.332 120.82 113.332 120.44C113.332 120.133 113.442 119.81 113.662 119.47C113.889 119.13 114.235 118.847 114.702 118.62C114.175 118.34 113.759 117.967 113.452 117.5C113.145 117.027 112.992 116.477 112.992 115.85C112.992 115.337 113.095 114.873 113.302 114.46C113.515 114.047 113.809 113.697 114.182 113.41C114.555 113.117 114.995 112.893 115.502 112.74C116.009 112.587 116.559 112.51 117.152 112.51C118.032 112.51 118.809 112.683 119.482 113.03H122.502ZM35.77 140.37C35.31 140.703 34.98 141.07 34.78 141.47C34.58 141.87 34.48 142.293 34.48 142.74C34.48 143.087 34.5367 143.4 34.65 143.68C34.7633 143.953 34.92 144.19 35.12 144.39C35.32 144.583 35.5567 144.733 35.83 144.84C36.1033 144.947 36.3967 145 36.71 145C37.23 145 37.71 144.927 38.15 144.78C38.5967 144.627 39.0033 144.41 39.37 144.13L35.77 140.37ZM45.56 147H42.85C42.71 147 42.5833 146.993 42.47 146.98C42.3633 146.967 42.2633 146.94 42.17 146.9C42.0767 146.86 41.9867 146.807 41.9 146.74C41.8133 146.673 41.7233 146.59 41.63 146.49L40.81 145.63C40.17 146.117 39.4633 146.493 38.69 146.76C37.9233 147.027 37.1 147.16 36.22 147.16C35.6533 147.16 35.0967 147.063 34.55 146.87C34.0033 146.67 33.5167 146.39 33.09 146.03C32.6633 145.663 32.32 145.223 32.06 144.71C31.8 144.19 31.67 143.607 31.67 142.96C31.67 142.513 31.74 142.09 31.88 141.69C32.02 141.29 32.2167 140.92 32.47 140.58C32.73 140.24 33.0333 139.93 33.38 139.65C33.7333 139.37 34.12 139.13 34.54 138.93C34.2 138.437 33.9533 137.957 33.8 137.49C33.6533 137.017 33.58 136.55 33.58 136.09C33.58 135.583 33.6733 135.103 33.86 134.65C34.0467 134.19 34.3167 133.79 34.67 133.45C35.0233 133.103 35.4567 132.83 35.97 132.63C36.49 132.43 37.08 132.33 37.74 132.33C38.3533 132.33 38.9 132.423 39.38 132.61C39.86 132.79 40.2667 133.033 40.6 133.34C40.9333 133.647 41.1933 133.997 41.38 134.39C41.5733 134.783 41.69 135.193 41.73 135.62L39.97 135.98C39.6433 136.047 39.4067 135.913 39.26 135.58C39.1267 135.233 38.94 134.95 38.7 134.73C38.4667 134.503 38.1467 134.39 37.74 134.39C37.4867 134.39 37.26 134.437 37.06 134.53C36.86 134.617 36.69 134.737 36.55 134.89C36.4167 135.043 36.3133 135.223 36.24 135.43C36.1733 135.63 36.14 135.843 36.14 136.07C36.14 136.257 36.1567 136.437 36.19 136.61C36.23 136.783 36.29 136.96 36.37 137.14C36.4567 137.313 36.57 137.493 36.71 137.68C36.85 137.867 37.02 138.067 37.22 138.28L40.95 142.18C41.1567 141.773 41.32 141.347 41.44 140.9C41.56 140.447 41.64 139.983 41.68 139.51C41.7 139.337 41.7567 139.2 41.85 139.1C41.95 139 42.0833 138.95 42.25 138.95H43.98C43.98 139.87 43.85 140.74 43.59 141.56C43.3367 142.38 42.98 143.133 42.52 143.82L45.56 147ZM65.8369 139.74C65.8369 140.8 65.6569 141.783 65.2969 142.69C64.9435 143.597 64.4402 144.38 63.7869 145.04C63.1402 145.7 62.3602 146.22 61.4469 146.6C60.5335 146.973 59.5202 147.16 58.4069 147.16C57.2935 147.16 56.2802 146.973 55.3669 146.6C54.4535 146.22 53.6702 145.7 53.0169 145.04C52.3635 144.38 51.8569 143.597 51.4969 142.69C51.1435 141.783 50.9669 140.8 50.9669 139.74C50.9669 138.68 51.1435 137.7 51.4969 136.8C51.8569 135.893 52.3635 135.11 53.0169 134.45C53.6702 133.79 54.4535 133.273 55.3669 132.9C56.2802 132.52 57.2935 132.33 58.4069 132.33C59.5202 132.33 60.5335 132.52 61.4469 132.9C62.3602 133.273 63.1402 133.793 63.7869 134.46C64.4402 135.12 64.9435 135.903 65.2969 136.81C65.6569 137.71 65.8369 138.687 65.8369 139.74ZM62.7669 139.74C62.7669 138.98 62.6669 138.3 62.4669 137.7C62.2669 137.093 61.9769 136.58 61.5969 136.16C61.2235 135.733 60.7669 135.41 60.2269 135.19C59.6935 134.963 59.0869 134.85 58.4069 134.85C57.7269 134.85 57.1169 134.963 56.5769 135.19C56.0369 135.41 55.5769 135.733 55.1969 136.16C54.8235 136.58 54.5369 137.093 54.3369 137.7C54.1369 138.3 54.0369 138.98 54.0369 139.74C54.0369 140.507 54.1369 141.193 54.3369 141.8C54.5369 142.4 54.8235 142.91 55.1969 143.33C55.5769 143.75 56.0369 144.073 56.5769 144.3C57.1169 144.52 57.7269 144.63 58.4069 144.63C59.0869 144.63 59.6935 144.52 60.2269 144.3C60.7669 144.073 61.2235 143.75 61.5969 143.33C61.9769 142.91 62.2669 142.4 62.4669 141.8C62.6669 141.193 62.7669 140.507 62.7669 139.74ZM70.2516 144.28C70.5116 144.58 70.7916 144.79 71.0916 144.91C71.3982 145.03 71.7249 145.09 72.0716 145.09C72.4049 145.09 72.7082 145.027 72.9816 144.9C73.2549 144.773 73.4882 144.577 73.6816 144.31C73.8816 144.037 74.0349 143.69 74.1416 143.27C74.2482 142.85 74.3016 142.35 74.3016 141.77C74.3016 141.197 74.2549 140.71 74.1616 140.31C74.0749 139.91 73.9482 139.587 73.7816 139.34C73.6216 139.093 73.4249 138.917 73.1916 138.81C72.9582 138.697 72.6982 138.64 72.4116 138.64C71.9249 138.64 71.5149 138.737 71.1816 138.93C70.8549 139.117 70.5449 139.393 70.2516 139.76V144.28ZM70.0916 138.04C70.2982 137.813 70.5182 137.607 70.7516 137.42C70.9849 137.227 71.2349 137.063 71.5016 136.93C71.7682 136.79 72.0549 136.683 72.3616 136.61C72.6682 136.53 73.0016 136.49 73.3616 136.49C73.9149 136.49 74.4216 136.61 74.8816 136.85C75.3482 137.083 75.7482 137.427 76.0816 137.88C76.4149 138.327 76.6749 138.877 76.8616 139.53C77.0482 140.183 77.1416 140.93 77.1416 141.77C77.1416 142.543 77.0349 143.26 76.8216 143.92C76.6149 144.573 76.3182 145.14 75.9316 145.62C75.5449 146.1 75.0782 146.477 74.5316 146.75C73.9916 147.017 73.3882 147.15 72.7216 147.15C72.1616 147.15 71.6849 147.067 71.2916 146.9C70.9049 146.733 70.5582 146.507 70.2516 146.22V150.33H67.4916V136.69H69.1916C69.5382 136.69 69.7682 136.85 69.8816 137.17L70.0916 138.04ZM81.6773 144.28C81.9373 144.58 82.2173 144.79 82.5173 144.91C82.824 145.03 83.1507 145.09 83.4973 145.09C83.8307 145.09 84.134 145.027 84.4073 144.9C84.6807 144.773 84.914 144.577 85.1073 144.31C85.3073 144.037 85.4607 143.69 85.5673 143.27C85.674 142.85 85.7273 142.35 85.7273 141.77C85.7273 141.197 85.6807 140.71 85.5873 140.31C85.5007 139.91 85.374 139.587 85.2073 139.34C85.0473 139.093 84.8507 138.917 84.6173 138.81C84.384 138.697 84.124 138.64 83.8373 138.64C83.3507 138.64 82.9407 138.737 82.6073 138.93C82.2807 139.117 81.9707 139.393 81.6773 139.76V144.28ZM81.5173 138.04C81.724 137.813 81.944 137.607 82.1773 137.42C82.4107 137.227 82.6607 137.063 82.9273 136.93C83.194 136.79 83.4807 136.683 83.7873 136.61C84.094 136.53 84.4273 136.49 84.7873 136.49C85.3407 136.49 85.8473 136.61 86.3073 136.85C86.774 137.083 87.174 137.427 87.5073 137.88C87.8407 138.327 88.1007 138.877 88.2873 139.53C88.474 140.183 88.5673 140.93 88.5673 141.77C88.5673 142.543 88.4607 143.26 88.2473 143.92C88.0407 144.573 87.744 145.14 87.3573 145.62C86.9707 146.1 86.504 146.477 85.9573 146.75C85.4173 147.017 84.814 147.15 84.1473 147.15C83.5873 147.15 83.1107 147.067 82.7173 146.9C82.3307 146.733 81.984 146.507 81.6773 146.22V150.33H78.9173V136.69H80.6173C80.964 136.69 81.194 136.85 81.3073 137.17L81.5173 138.04ZM94.9931 136.53C95.7665 136.53 96.4698 136.653 97.1031 136.9C97.7365 137.147 98.2798 137.5 98.7331 137.96C99.1865 138.413 99.5365 138.967 99.7831 139.62C100.03 140.273 100.153 141.01 100.153 141.83C100.153 142.65 100.03 143.39 99.7831 144.05C99.5365 144.703 99.1865 145.26 98.7331 145.72C98.2798 146.18 97.7365 146.533 97.1031 146.78C96.4698 147.027 95.7665 147.15 94.9931 147.15C94.2131 147.15 93.5031 147.027 92.8631 146.78C92.2298 146.533 91.6865 146.18 91.2331 145.72C90.7798 145.26 90.4265 144.703 90.1731 144.05C89.9265 143.39 89.8031 142.65 89.8031 141.83C89.8031 141.01 89.9265 140.273 90.1731 139.62C90.4265 138.967 90.7798 138.413 91.2331 137.96C91.6865 137.5 92.2298 137.147 92.8631 136.9C93.5031 136.653 94.2131 136.53 94.9931 136.53ZM94.9931 145.08C95.7798 145.08 96.3631 144.81 96.7431 144.27C97.1231 143.723 97.3131 142.913 97.3131 141.84C97.3131 140.773 97.1231 139.97 96.7431 139.43C96.3631 138.883 95.7798 138.61 94.9931 138.61C94.1865 138.61 93.5931 138.883 93.2131 139.43C92.8331 139.97 92.6431 140.773 92.6431 141.84C92.6431 142.913 92.8331 143.723 93.2131 144.27C93.5931 144.81 94.1865 145.08 94.9931 145.08ZM104.476 138.39C104.803 137.803 105.179 137.34 105.606 137C106.033 136.66 106.533 136.49 107.106 136.49C107.573 136.49 107.953 136.6 108.246 136.82L108.066 138.86C108.033 138.993 107.979 139.087 107.906 139.14C107.839 139.187 107.746 139.21 107.626 139.21C107.519 139.21 107.366 139.197 107.166 139.17C106.966 139.137 106.779 139.12 106.606 139.12C106.353 139.12 106.126 139.157 105.926 139.23C105.733 139.303 105.559 139.407 105.406 139.54C105.253 139.673 105.113 139.837 104.986 140.03C104.866 140.223 104.753 140.443 104.646 140.69V147H101.886V136.69H103.516C103.796 136.69 103.989 136.74 104.096 136.84C104.203 136.94 104.279 137.113 104.326 137.36L104.476 138.39ZM112.985 147.16C112.518 147.16 112.105 147.093 111.745 146.96C111.385 146.82 111.082 146.623 110.835 146.37C110.588 146.117 110.402 145.81 110.275 145.45C110.148 145.09 110.085 144.683 110.085 144.23V138.67H109.115C108.968 138.67 108.842 138.623 108.735 138.53C108.635 138.437 108.585 138.297 108.585 138.11V137.03L110.235 136.73L110.795 134.06C110.868 133.76 111.072 133.61 111.405 133.61H112.845V136.75H115.505V138.67H112.845V144.05C112.845 144.337 112.912 144.563 113.045 144.73C113.185 144.897 113.382 144.98 113.635 144.98C113.768 144.98 113.882 144.967 113.975 144.94C114.068 144.907 114.148 144.873 114.215 144.84C114.282 144.8 114.342 144.767 114.395 144.74C114.455 144.707 114.515 144.69 114.575 144.69C114.655 144.69 114.722 144.71 114.775 144.75C114.828 144.783 114.882 144.843 114.935 144.93L115.765 146.25C115.385 146.55 114.955 146.777 114.475 146.93C113.995 147.083 113.498 147.16 112.985 147.16ZM126.034 136.69V147H124.334C123.98 147 123.754 146.84 123.654 146.52L123.474 145.8C123.267 146 123.054 146.183 122.834 146.35C122.614 146.517 122.377 146.66 122.124 146.78C121.877 146.9 121.607 146.993 121.314 147.06C121.027 147.127 120.714 147.16 120.374 147.16C119.814 147.16 119.314 147.063 118.874 146.87C118.44 146.677 118.077 146.407 117.784 146.06C117.49 145.713 117.267 145.3 117.114 144.82C116.96 144.34 116.884 143.813 116.884 143.24V136.69H119.644V143.24C119.644 143.813 119.774 144.26 120.034 144.58C120.3 144.893 120.694 145.05 121.214 145.05C121.6 145.05 121.964 144.967 122.304 144.8C122.644 144.627 122.967 144.393 123.274 144.1V136.69H126.034ZM130.872 137.89C131.079 137.69 131.292 137.507 131.512 137.34C131.739 137.173 131.975 137.03 132.222 136.91C132.475 136.79 132.745 136.697 133.032 136.63C133.325 136.563 133.642 136.53 133.982 136.53C134.542 136.53 135.039 136.627 135.472 136.82C135.905 137.013 136.269 137.283 136.562 137.63C136.862 137.977 137.085 138.39 137.232 138.87C137.385 139.35 137.462 139.877 137.462 140.45V147H134.712V140.45C134.712 139.877 134.579 139.433 134.312 139.12C134.045 138.8 133.652 138.64 133.132 138.64C132.745 138.64 132.382 138.723 132.042 138.89C131.702 139.057 131.379 139.29 131.072 139.59V147H128.312V136.69H130.012C130.359 136.69 130.589 136.85 130.702 137.17L130.872 137.89ZM142.5 136.69V147H139.74V136.69H142.5ZM142.83 133.76C142.83 133.993 142.783 134.21 142.69 134.41C142.596 134.61 142.47 134.787 142.31 134.94C142.156 135.093 141.973 135.213 141.76 135.3C141.553 135.387 141.33 135.43 141.09 135.43C140.863 135.43 140.646 135.387 140.44 135.3C140.24 135.213 140.063 135.093 139.91 134.94C139.756 134.787 139.633 134.61 139.54 134.41C139.453 134.21 139.41 133.993 139.41 133.76C139.41 133.527 139.453 133.31 139.54 133.11C139.633 132.903 139.756 132.723 139.91 132.57C140.063 132.417 140.24 132.297 140.44 132.21C140.646 132.123 140.863 132.08 141.09 132.08C141.33 132.08 141.553 132.123 141.76 132.21C141.973 132.297 142.156 132.417 142.31 132.57C142.47 132.723 142.596 132.903 142.69 133.11C142.783 133.31 142.83 133.527 142.83 133.76ZM148.415 147.16C147.948 147.16 147.535 147.093 147.175 146.96C146.815 146.82 146.512 146.623 146.265 146.37C146.018 146.117 145.832 145.81 145.705 145.45C145.578 145.09 145.515 144.683 145.515 144.23V138.67H144.545C144.398 138.67 144.272 138.623 144.165 138.53C144.065 138.437 144.015 138.297 144.015 138.11V137.03L145.665 136.73L146.225 134.06C146.298 133.76 146.502 133.61 146.835 133.61H148.275V136.75H150.935V138.67H148.275V144.05C148.275 144.337 148.342 144.563 148.475 144.73C148.615 144.897 148.812 144.98 149.065 144.98C149.198 144.98 149.312 144.967 149.405 144.94C149.498 144.907 149.578 144.873 149.645 144.84C149.712 144.8 149.772 144.767 149.825 144.74C149.885 144.707 149.945 144.69 150.005 144.69C150.085 144.69 150.152 144.71 150.205 144.75C150.258 144.783 150.312 144.843 150.365 144.93L151.195 146.25C150.815 146.55 150.385 146.777 149.905 146.93C149.425 147.083 148.928 147.16 148.415 147.16ZM161.973 136.69L156.413 149.77C156.327 149.957 156.22 150.097 156.093 150.19C155.973 150.283 155.78 150.33 155.513 150.33H153.463L155.413 146.17L151.273 136.69H153.693C153.913 136.69 154.083 136.74 154.203 136.84C154.323 136.94 154.41 137.057 154.463 137.19L156.423 142.12C156.497 142.313 156.56 142.51 156.613 142.71C156.673 142.903 156.73 143.097 156.783 143.29C156.903 142.897 157.04 142.503 157.193 142.11L159.013 137.19C159.067 137.043 159.163 136.923 159.303 136.83C159.443 136.737 159.597 136.69 159.763 136.69H161.973Z" fill="black" fill-opacity="0.64"/>
<line x1="6.5" y1="2.59952e-08" x2="6.49999" y2="324" stroke="#636363"/>
<g filter="url(#filter0_d)">
<line x1="6.5" y1="88.5" x2="6.5" y2="165.727" stroke="#FFCE6F" stroke-width="5" stroke-linecap="round" stroke-linejoin="round"/>
</g>
<defs>
<filter id="filter0_d" x="0" y="86" width="13" height="90.2273" filterUnits="userSpaceOnUse" color-interpolation-filters="sRGB">
<feFlood flood-opacity="0" result="BackgroundImageFix"/>
<feColorMatrix in="SourceAlpha" type="matrix" values="0 0 0 0 0 0 0 0 0 0 0 0 0 0 0 0 0 0 127 0"/>
<feOffset dy="4"/>
<feGaussianBlur stdDeviation="2"/>
<feColorMatrix type="matrix" values="0 0 0 0 0 0 0 0 0 0 0 0 0 0 0 0 0 0 0.25 0"/>
<feBlend mode="normal" in2="BackgroundImageFix" result="effect1_dropShadow"/>
<feBlend mode="normal" in="SourceGraphic" in2="effect1_dropShadow" result="shape"/>
</filter>
</defs>
</svg>
