<svg width="166" height="264" viewBox="0 0 166 264" fill="none" xmlns="http://www.w3.org/2000/svg">
<path d="M37.5245 71.27C37.4312 71.4233 37.3345 71.5367 37.2345 71.61C37.1412 71.6767 37.0179 71.71 36.8645 71.71C36.7179 71.71 36.5579 71.66 36.3845 71.56C36.2179 71.4533 36.0212 71.34 35.7945 71.22C35.5679 71.1 35.3079 70.99 35.0145 70.89C34.7212 70.7833 34.3779 70.73 33.9845 70.73C33.2912 70.73 32.7712 70.8867 32.4245 71.2C32.0779 71.5067 31.9045 71.91 31.9045 72.41C31.9045 72.73 31.9979 72.9967 32.1845 73.21C32.3779 73.4167 32.6279 73.5967 32.9345 73.75C33.2479 73.9033 33.6012 74.04 33.9945 74.16C34.3879 74.28 34.7912 74.4133 35.2045 74.56C35.6179 74.7 36.0212 74.8667 36.4145 75.06C36.8079 75.2533 37.1579 75.4967 37.4645 75.79C37.7779 76.0833 38.0279 76.4433 38.2145 76.87C38.4079 77.29 38.5045 77.8033 38.5045 78.41C38.5045 79.07 38.3879 79.69 38.1545 80.27C37.9279 80.8433 37.5979 81.3467 37.1645 81.78C36.7312 82.2067 36.1945 82.5433 35.5545 82.79C34.9212 83.0367 34.2012 83.16 33.3945 83.16C32.9345 83.16 32.4745 83.1133 32.0145 83.02C31.5612 82.9267 31.1212 82.7967 30.6945 82.63C30.2745 82.4633 29.8779 82.2633 29.5045 82.03C29.1312 81.7967 28.8045 81.5367 28.5245 81.25L29.4045 79.83C29.4779 79.7233 29.5745 79.6367 29.6945 79.57C29.8145 79.4967 29.9412 79.46 30.0745 79.46C30.2545 79.46 30.4445 79.5267 30.6445 79.66C30.8445 79.7933 31.0745 79.94 31.3345 80.1C31.5945 80.26 31.8945 80.4067 32.2345 80.54C32.5812 80.6733 32.9945 80.74 33.4745 80.74C34.1745 80.74 34.7145 80.58 35.0945 80.26C35.4812 79.94 35.6745 79.4633 35.6745 78.83C35.6745 78.4633 35.5779 78.1667 35.3845 77.94C35.1979 77.7133 34.9512 77.5233 34.6445 77.37C34.3379 77.2167 33.9879 77.0867 33.5945 76.98C33.2012 76.8667 32.7979 76.7433 32.3845 76.61C31.9712 76.4767 31.5679 76.3167 31.1745 76.13C30.7812 75.9433 30.4312 75.6967 30.1245 75.39C29.8179 75.0833 29.5679 74.7033 29.3745 74.25C29.1879 73.7967 29.0945 73.2333 29.0945 72.56C29.0945 72.02 29.2012 71.4967 29.4145 70.99C29.6279 70.4833 29.9412 70.0333 30.3545 69.64C30.7679 69.2467 31.2745 68.93 31.8745 68.69C32.4812 68.45 33.1745 68.33 33.9545 68.33C34.8279 68.33 35.6345 68.4667 36.3745 68.74C37.1212 69.0067 37.7512 69.38 38.2645 69.86L37.5245 71.27ZM42.9234 68.09V76.55H43.3834C43.5568 76.55 43.6934 76.5267 43.7934 76.48C43.8934 76.4267 43.9934 76.3333 44.0934 76.2L46.3734 73.16C46.4868 73.0067 46.6134 72.89 46.7534 72.81C46.9001 72.73 47.0834 72.69 47.3034 72.69H49.8234L46.8634 76.45C46.6301 76.7633 46.3601 77.01 46.0534 77.19C46.2068 77.2967 46.3401 77.42 46.4534 77.56C46.5668 77.7 46.6768 77.8567 46.7834 78.03L49.9734 83H47.4934C47.2801 83 47.0968 82.9667 46.9434 82.9C46.7901 82.8267 46.6634 82.7 46.5634 82.52L44.2434 78.73C44.1501 78.57 44.0534 78.4667 43.9534 78.42C43.8534 78.3733 43.7034 78.35 43.5034 78.35H42.9234V83H40.1634V68.09H42.9234ZM57.1136 76.63C57.1136 76.3433 57.0736 76.07 56.9936 75.81C56.9203 75.55 56.8003 75.32 56.6336 75.12C56.4669 74.92 56.2569 74.7633 56.0036 74.65C55.7503 74.53 55.4469 74.47 55.0936 74.47C54.4336 74.47 53.9169 74.6567 53.5436 75.03C53.1703 75.4033 52.9269 75.9367 52.8136 76.63H57.1136ZM52.7736 78.27C52.8603 79.2367 53.1336 79.9433 53.5936 80.39C54.0603 80.8367 54.6669 81.06 55.4136 81.06C55.7936 81.06 56.1203 81.0167 56.3936 80.93C56.6736 80.8367 56.9169 80.7367 57.1236 80.63C57.3369 80.5167 57.5269 80.4167 57.6936 80.33C57.8669 80.2367 58.0369 80.19 58.2036 80.19C58.4169 80.19 58.5836 80.27 58.7036 80.43L59.5036 81.43C59.2103 81.77 58.8869 82.0533 58.5336 82.28C58.1803 82.5 57.8136 82.6767 57.4336 82.81C57.0536 82.9367 56.6703 83.0233 56.2836 83.07C55.8969 83.1233 55.5236 83.15 55.1636 83.15C54.4436 83.15 53.7703 83.0333 53.1436 82.8C52.5236 82.56 51.9803 82.21 51.5136 81.75C51.0536 81.2833 50.6903 80.7067 50.4236 80.02C50.1569 79.3333 50.0236 78.5367 50.0236 77.63C50.0236 76.93 50.1369 76.27 50.3636 75.65C50.5969 75.03 50.9303 74.49 51.3636 74.03C51.7969 73.57 52.3236 73.2067 52.9436 72.94C53.5636 72.6667 54.2636 72.53 55.0436 72.53C55.7036 72.53 56.3103 72.6367 56.8636 72.85C57.4236 73.0567 57.9036 73.36 58.3036 73.76C58.7103 74.16 59.0236 74.6533 59.2436 75.24C59.4703 75.82 59.5836 76.4833 59.5836 77.23C59.5836 77.4367 59.5736 77.6067 59.5536 77.74C59.5336 77.8733 59.5003 77.98 59.4536 78.06C59.4069 78.14 59.3436 78.1967 59.2636 78.23C59.1836 78.2567 59.0803 78.27 58.9536 78.27H52.7736ZM64.7391 83.16C64.2724 83.16 63.8591 83.0933 63.4991 82.96C63.1391 82.82 62.8357 82.6233 62.5891 82.37C62.3424 82.1167 62.1557 81.81 62.0291 81.45C61.9024 81.09 61.8391 80.6833 61.8391 80.23V74.67H60.8691C60.7224 74.67 60.5957 74.6233 60.4891 74.53C60.3891 74.4367 60.3391 74.2967 60.3391 74.11V73.03L61.9891 72.73L62.5491 70.06C62.6224 69.76 62.8257 69.61 63.1591 69.61H64.5991V72.75H67.2591V74.67H64.5991V80.05C64.5991 80.3367 64.6657 80.5633 64.7991 80.73C64.9391 80.8967 65.1357 80.98 65.3891 80.98C65.5224 80.98 65.6357 80.9667 65.7291 80.94C65.8224 80.9067 65.9024 80.8733 65.9691 80.84C66.0357 80.8 66.0957 80.7667 66.1491 80.74C66.2091 80.7067 66.2691 80.69 66.3291 80.69C66.4091 80.69 66.4757 80.71 66.5291 80.75C66.5824 80.7833 66.6357 80.8433 66.6891 80.93L67.5191 82.25C67.1391 82.55 66.7091 82.7767 66.2291 82.93C65.7491 83.0833 65.2524 83.16 64.7391 83.16ZM76.12 74.99C76.04 75.0967 75.96 75.18 75.88 75.24C75.8 75.2933 75.6867 75.32 75.54 75.32C75.4067 75.32 75.2767 75.2833 75.15 75.21C75.03 75.13 74.89 75.0467 74.73 74.96C74.57 74.8667 74.38 74.7833 74.16 74.71C73.94 74.63 73.6667 74.59 73.34 74.59C72.9267 74.59 72.5667 74.6667 72.26 74.82C71.96 74.9667 71.71 75.18 71.51 75.46C71.31 75.74 71.16 76.08 71.06 76.48C70.9667 76.88 70.92 77.33 70.92 77.83C70.92 78.8833 71.13 79.69 71.55 80.25C71.9767 80.81 72.5567 81.09 73.29 81.09C73.5433 81.09 73.76 81.07 73.94 81.03C74.1267 80.9833 74.2867 80.9267 74.42 80.86C74.56 80.7933 74.68 80.72 74.78 80.64C74.88 80.56 74.9733 80.4867 75.06 80.42C75.1533 80.3533 75.2433 80.3 75.33 80.26C75.4233 80.2133 75.5267 80.19 75.64 80.19C75.8533 80.19 76.02 80.27 76.14 80.43L76.93 81.43C76.6367 81.77 76.3233 82.0533 75.99 82.28C75.6567 82.5 75.31 82.6767 74.95 82.81C74.5967 82.9367 74.2367 83.0233 73.87 83.07C73.5033 83.1233 73.14 83.15 72.78 83.15C72.1467 83.15 71.5467 83.0333 70.98 82.8C70.4133 82.56 69.9167 82.2133 69.49 81.76C69.0633 81.3067 68.7233 80.75 68.47 80.09C68.2233 79.43 68.1 78.6767 68.1 77.83C68.1 77.0767 68.21 76.3767 68.43 75.73C68.65 75.0833 68.9733 74.5233 69.4 74.05C69.8267 73.5767 70.3533 73.2067 70.98 72.94C71.6133 72.6667 72.3433 72.53 73.17 72.53C73.9567 72.53 74.6467 72.6567 75.24 72.91C75.8333 73.1633 76.3667 73.53 76.84 74.01L76.12 74.99ZM81.0875 73.7C81.2808 73.5267 81.4808 73.37 81.6875 73.23C81.9008 73.0833 82.1242 72.96 82.3575 72.86C82.5975 72.7533 82.8508 72.6733 83.1175 72.62C83.3908 72.56 83.6842 72.53 83.9975 72.53C84.5575 72.53 85.0542 72.6267 85.4875 72.82C85.9208 73.0133 86.2842 73.2833 86.5775 73.63C86.8775 73.9767 87.1008 74.39 87.2475 74.87C87.4008 75.35 87.4775 75.8767 87.4775 76.45V83H84.7275V76.45C84.7275 75.8767 84.5942 75.4333 84.3275 75.12C84.0608 74.8 83.6675 74.64 83.1475 74.64C82.7608 74.64 82.3975 74.7233 82.0575 74.89C81.7175 75.0567 81.3942 75.29 81.0875 75.59V83H78.3275V68.09H81.0875V73.7ZM92.5152 72.69V83H89.7552V72.69H92.5152ZM92.8452 69.76C92.8452 69.9933 92.7985 70.21 92.7052 70.41C92.6118 70.61 92.4852 70.7867 92.3252 70.94C92.1718 71.0933 91.9885 71.2133 91.7752 71.3C91.5685 71.3867 91.3452 71.43 91.1052 71.43C90.8785 71.43 90.6618 71.3867 90.4552 71.3C90.2552 71.2133 90.0785 71.0933 89.9252 70.94C89.7718 70.7867 89.6485 70.61 89.5552 70.41C89.4685 70.21 89.4252 69.9933 89.4252 69.76C89.4252 69.5267 89.4685 69.31 89.5552 69.11C89.6485 68.9033 89.7718 68.7233 89.9252 68.57C90.0785 68.4167 90.2552 68.2967 90.4552 68.21C90.6618 68.1233 90.8785 68.08 91.1052 68.08C91.3452 68.08 91.5685 68.1233 91.7752 68.21C91.9885 68.2967 92.1718 68.4167 92.3252 68.57C92.4852 68.7233 92.6118 68.9033 92.7052 69.11C92.7985 69.31 92.8452 69.5267 92.8452 69.76ZM97.4305 73.89C97.6371 73.69 97.8505 73.5067 98.0705 73.34C98.2971 73.1733 98.5338 73.03 98.7805 72.91C99.0338 72.79 99.3038 72.6967 99.5905 72.63C99.8838 72.5633 100.2 72.53 100.54 72.53C101.1 72.53 101.597 72.6267 102.03 72.82C102.464 73.0133 102.827 73.2833 103.12 73.63C103.42 73.9767 103.644 74.39 103.79 74.87C103.944 75.35 104.02 75.8767 104.02 76.45V83H101.27V76.45C101.27 75.8767 101.137 75.4333 100.87 75.12C100.604 74.8 100.21 74.64 99.6905 74.64C99.3038 74.64 98.9405 74.7233 98.6005 74.89C98.2605 75.0567 97.9371 75.29 97.6305 75.59V83H94.8705V72.69H96.5705C96.9171 72.69 97.1471 72.85 97.2605 73.17L97.4305 73.89ZM110.058 77.46C110.625 77.46 111.041 77.3167 111.308 77.03C111.581 76.7433 111.718 76.3733 111.718 75.92C111.718 75.4467 111.581 75.0767 111.308 74.81C111.041 74.5367 110.625 74.4 110.058 74.4C109.491 74.4 109.075 74.5367 108.808 74.81C108.541 75.0767 108.408 75.4467 108.408 75.92C108.408 76.3667 108.541 76.7367 108.808 77.03C109.081 77.3167 109.498 77.46 110.058 77.46ZM112.668 83.42C112.668 83.24 112.611 83.0933 112.498 82.98C112.385 82.8667 112.231 82.7767 112.038 82.71C111.851 82.6433 111.628 82.5967 111.368 82.57C111.108 82.5367 110.831 82.5133 110.538 82.5C110.245 82.48 109.941 82.4633 109.628 82.45C109.315 82.4367 109.008 82.4133 108.708 82.38C108.475 82.52 108.281 82.6867 108.128 82.88C107.981 83.0667 107.908 83.28 107.908 83.52C107.908 83.6867 107.945 83.84 108.018 83.98C108.098 84.12 108.228 84.24 108.408 84.34C108.588 84.44 108.825 84.5167 109.118 84.57C109.411 84.63 109.778 84.66 110.218 84.66C110.671 84.66 111.055 84.63 111.368 84.57C111.681 84.51 111.935 84.4233 112.128 84.31C112.321 84.2033 112.458 84.0733 112.538 83.92C112.625 83.7667 112.668 83.6 112.668 83.42ZM115.408 73.03V74.04C115.408 74.2 115.361 74.3267 115.268 74.42C115.181 74.5133 115.035 74.5833 114.828 74.63L113.988 74.8C114.101 75.1267 114.158 75.4767 114.158 75.85C114.158 76.3633 114.051 76.8267 113.838 77.24C113.631 77.6467 113.345 77.9967 112.978 78.29C112.611 78.5767 112.178 78.8 111.678 78.96C111.178 79.1133 110.638 79.19 110.058 79.19C109.691 79.19 109.348 79.16 109.028 79.1C108.748 79.2733 108.608 79.4633 108.608 79.67C108.608 79.8633 108.701 80.0033 108.888 80.09C109.081 80.1767 109.331 80.24 109.638 80.28C109.951 80.3133 110.305 80.3367 110.698 80.35C111.098 80.3567 111.501 80.3767 111.908 80.41C112.321 80.4433 112.725 80.5033 113.118 80.59C113.518 80.67 113.871 80.8067 114.178 81C114.491 81.1867 114.741 81.4367 114.928 81.75C115.121 82.0633 115.218 82.4667 115.218 82.96C115.218 83.42 115.105 83.8667 114.878 84.3C114.651 84.7333 114.321 85.12 113.888 85.46C113.461 85.8 112.935 86.0733 112.308 86.28C111.681 86.4867 110.968 86.59 110.168 86.59C109.375 86.59 108.685 86.5133 108.098 86.36C107.518 86.2133 107.035 86.0133 106.648 85.76C106.268 85.5133 105.985 85.2267 105.798 84.9C105.611 84.5733 105.518 84.2333 105.518 83.88C105.518 83.42 105.658 83.03 105.938 82.71C106.218 82.39 106.605 82.1333 107.098 81.94C106.838 81.7933 106.628 81.6033 106.468 81.37C106.315 81.13 106.238 80.82 106.238 80.44C106.238 80.1333 106.348 79.81 106.568 79.47C106.795 79.13 107.141 78.8467 107.608 78.62C107.081 78.34 106.665 77.9667 106.358 77.5C106.051 77.0267 105.898 76.4767 105.898 75.85C105.898 75.3367 106.001 74.8733 106.208 74.46C106.421 74.0467 106.715 73.6967 107.088 73.41C107.461 73.1167 107.901 72.8933 108.408 72.74C108.915 72.5867 109.465 72.51 110.058 72.51C110.938 72.51 111.715 72.6833 112.388 73.03H115.408ZM125.219 76.37C124.759 76.7033 124.429 77.07 124.229 77.47C124.029 77.87 123.929 78.2933 123.929 78.74C123.929 79.0867 123.986 79.4 124.099 79.68C124.213 79.9533 124.369 80.19 124.569 80.39C124.769 80.5833 125.006 80.7333 125.279 80.84C125.553 80.9467 125.846 81 126.159 81C126.679 81 127.159 80.9267 127.599 80.78C128.046 80.6267 128.453 80.41 128.819 80.13L125.219 76.37ZM135.009 83H132.299C132.159 83 132.033 82.9933 131.919 82.98C131.813 82.9667 131.713 82.94 131.619 82.9C131.526 82.86 131.436 82.8067 131.349 82.74C131.263 82.6733 131.173 82.59 131.079 82.49L130.259 81.63C129.619 82.1167 128.913 82.4933 128.139 82.76C127.373 83.0267 126.549 83.16 125.669 83.16C125.103 83.16 124.546 83.0633 123.999 82.87C123.453 82.67 122.966 82.39 122.539 82.03C122.113 81.6633 121.769 81.2233 121.509 80.71C121.249 80.19 121.119 79.6067 121.119 78.96C121.119 78.5133 121.189 78.09 121.329 77.69C121.469 77.29 121.666 76.92 121.919 76.58C122.179 76.24 122.483 75.93 122.829 75.65C123.183 75.37 123.569 75.13 123.989 74.93C123.649 74.4367 123.403 73.9567 123.249 73.49C123.103 73.0167 123.029 72.55 123.029 72.09C123.029 71.5833 123.123 71.1033 123.309 70.65C123.496 70.19 123.766 69.79 124.119 69.45C124.473 69.1033 124.906 68.83 125.419 68.63C125.939 68.43 126.529 68.33 127.189 68.33C127.803 68.33 128.349 68.4233 128.829 68.61C129.309 68.79 129.716 69.0333 130.049 69.34C130.383 69.6467 130.643 69.9967 130.829 70.39C131.023 70.7833 131.139 71.1933 131.179 71.62L129.419 71.98C129.093 72.0467 128.856 71.9133 128.709 71.58C128.576 71.2333 128.389 70.95 128.149 70.73C127.916 70.5033 127.596 70.39 127.189 70.39C126.936 70.39 126.709 70.4367 126.509 70.53C126.309 70.6167 126.139 70.7367 125.999 70.89C125.866 71.0433 125.763 71.2233 125.689 71.43C125.623 71.63 125.589 71.8433 125.589 72.07C125.589 72.2567 125.606 72.4367 125.639 72.61C125.679 72.7833 125.739 72.96 125.819 73.14C125.906 73.3133 126.019 73.4933 126.159 73.68C126.299 73.8667 126.469 74.0667 126.669 74.28L130.399 78.18C130.606 77.7733 130.769 77.3467 130.889 76.9C131.009 76.4467 131.089 75.9833 131.129 75.51C131.149 75.3367 131.206 75.2 131.299 75.1C131.399 75 131.533 74.95 131.699 74.95H133.429C133.429 75.87 133.299 76.74 133.039 77.56C132.786 78.38 132.429 79.1333 131.969 79.82L135.009 83ZM71.9775 92.49L67.4775 107H64.7675L61.7975 97.51C61.7508 97.3767 61.7042 97.23 61.6575 97.07C61.6108 96.91 61.5675 96.74 61.5275 96.56C61.4875 96.74 61.4442 96.91 61.3975 97.07C61.3508 97.23 61.3042 97.3767 61.2575 97.51L58.2575 107H55.5375L51.0475 92.49H53.5675C53.8275 92.49 54.0442 92.55 54.2175 92.67C54.3975 92.79 54.5142 92.95 54.5675 93.15L56.8175 101.33C56.8708 101.557 56.9242 101.803 56.9775 102.07C57.0375 102.33 57.0942 102.607 57.1475 102.9C57.2075 102.6 57.2708 102.32 57.3375 102.06C57.4042 101.8 57.4775 101.557 57.5575 101.33L60.1775 93.15C60.2308 92.9833 60.3442 92.8333 60.5175 92.7C60.6975 92.56 60.9142 92.49 61.1675 92.49H62.0475C62.3075 92.49 62.5175 92.5533 62.6775 92.68C62.8442 92.8 62.9675 92.9567 63.0475 93.15L65.6575 101.33C65.7375 101.543 65.8108 101.777 65.8775 102.03C65.9442 102.277 66.0075 102.54 66.0675 102.82C66.1208 102.54 66.1708 102.277 66.2175 102.03C66.2708 101.777 66.3242 101.543 66.3775 101.33L68.6275 93.15C68.6742 92.9767 68.7875 92.8233 68.9675 92.69C69.1475 92.5567 69.3642 92.49 69.6175 92.49H71.9775ZM75.9527 96.69V107H73.1927V96.69H75.9527ZM76.2827 93.76C76.2827 93.9933 76.236 94.21 76.1427 94.41C76.0493 94.61 75.9227 94.7867 75.7627 94.94C75.6093 95.0933 75.426 95.2133 75.2127 95.3C75.006 95.3867 74.7827 95.43 74.5427 95.43C74.316 95.43 74.0993 95.3867 73.8927 95.3C73.6927 95.2133 73.516 95.0933 73.3627 94.94C73.2093 94.7867 73.086 94.61 72.9927 94.41C72.906 94.21 72.8627 93.9933 72.8627 93.76C72.8627 93.5267 72.906 93.31 72.9927 93.11C73.086 92.9033 73.2093 92.7233 73.3627 92.57C73.516 92.4167 73.6927 92.2967 73.8927 92.21C74.0993 92.1233 74.316 92.08 74.5427 92.08C74.7827 92.08 75.006 92.1233 75.2127 92.21C75.426 92.2967 75.6093 92.4167 75.7627 92.57C75.9227 92.7233 76.0493 92.9033 76.1427 93.11C76.236 93.31 76.2827 93.5267 76.2827 93.76ZM80.898 98.39C81.2246 97.8033 81.6013 97.34 82.028 97C82.4546 96.66 82.9546 96.49 83.528 96.49C83.9946 96.49 84.3746 96.6 84.668 96.82L84.488 98.86C84.4546 98.9933 84.4013 99.0867 84.328 99.14C84.2613 99.1867 84.168 99.21 84.048 99.21C83.9413 99.21 83.788 99.1967 83.588 99.17C83.388 99.1367 83.2013 99.12 83.028 99.12C82.7746 99.12 82.548 99.1567 82.348 99.23C82.1546 99.3033 81.9813 99.4067 81.828 99.54C81.6746 99.6733 81.5346 99.8367 81.408 100.03C81.288 100.223 81.1746 100.443 81.068 100.69V107H78.308V96.69H79.938C80.218 96.69 80.4113 96.74 80.518 96.84C80.6246 96.94 80.7013 97.1133 80.748 97.36L80.898 98.39ZM92.1527 100.63C92.1527 100.343 92.1127 100.07 92.0327 99.81C91.9593 99.55 91.8393 99.32 91.6727 99.12C91.506 98.92 91.296 98.7633 91.0427 98.65C90.7893 98.53 90.486 98.47 90.1327 98.47C89.4727 98.47 88.956 98.6567 88.5827 99.03C88.2093 99.4033 87.966 99.9367 87.8527 100.63H92.1527ZM87.8127 102.27C87.8993 103.237 88.1727 103.943 88.6327 104.39C89.0993 104.837 89.706 105.06 90.4527 105.06C90.8327 105.06 91.1593 105.017 91.4327 104.93C91.7127 104.837 91.956 104.737 92.1627 104.63C92.376 104.517 92.566 104.417 92.7327 104.33C92.906 104.237 93.076 104.19 93.2427 104.19C93.456 104.19 93.6227 104.27 93.7427 104.43L94.5427 105.43C94.2493 105.77 93.926 106.053 93.5727 106.28C93.2193 106.5 92.8527 106.677 92.4727 106.81C92.0927 106.937 91.7093 107.023 91.3227 107.07C90.936 107.123 90.5627 107.15 90.2027 107.15C89.4827 107.15 88.8093 107.033 88.1827 106.8C87.5627 106.56 87.0193 106.21 86.5527 105.75C86.0927 105.283 85.7293 104.707 85.4627 104.02C85.196 103.333 85.0627 102.537 85.0627 101.63C85.0627 100.93 85.176 100.27 85.4027 99.65C85.636 99.03 85.9693 98.49 86.4027 98.03C86.836 97.57 87.3627 97.2067 87.9827 96.94C88.6027 96.6667 89.3027 96.53 90.0827 96.53C90.7427 96.53 91.3493 96.6367 91.9027 96.85C92.4627 97.0567 92.9427 97.36 93.3427 97.76C93.7493 98.16 94.0627 98.6533 94.2827 99.24C94.5093 99.82 94.6227 100.483 94.6227 101.23C94.6227 101.437 94.6127 101.607 94.5927 101.74C94.5727 101.873 94.5393 101.98 94.4927 102.06C94.446 102.14 94.3827 102.197 94.3027 102.23C94.2227 102.257 94.1193 102.27 93.9927 102.27H87.8127ZM96.9095 107V98.67L96.1095 98.53C95.9029 98.49 95.7329 98.4167 95.5995 98.31C95.4729 98.2033 95.4095 98.05 95.4095 97.85V96.75H96.9095V96.35C96.9095 95.81 96.9962 95.29 97.1695 94.79C97.3429 94.29 97.6062 93.8467 97.9595 93.46C98.3195 93.0733 98.7729 92.7633 99.3195 92.53C99.8729 92.2967 100.526 92.18 101.28 92.18C101.906 92.18 102.496 92.2033 103.05 92.25C103.61 92.29 104.173 92.31 104.74 92.31H106.29V107H103.55V94.18C103.203 94.1667 102.863 94.1533 102.53 94.14C102.203 94.12 101.933 94.11 101.72 94.11C101.026 94.11 100.496 94.3033 100.13 94.69C99.7629 95.07 99.5795 95.6233 99.5795 96.35V96.75H101.92V98.67H99.6695V107H96.9095ZM113.231 96.53C114.005 96.53 114.708 96.6533 115.341 96.9C115.975 97.1467 116.518 97.5 116.971 97.96C117.425 98.4133 117.775 98.9667 118.021 99.62C118.268 100.273 118.391 101.01 118.391 101.83C118.391 102.65 118.268 103.39 118.021 104.05C117.775 104.703 117.425 105.26 116.971 105.72C116.518 106.18 115.975 106.533 115.341 106.78C114.708 107.027 114.005 107.15 113.231 107.15C112.451 107.15 111.741 107.027 111.101 106.78C110.468 106.533 109.925 106.18 109.471 105.72C109.018 105.26 108.665 104.703 108.411 104.05C108.165 103.39 108.041 102.65 108.041 101.83C108.041 101.01 108.165 100.273 108.411 99.62C108.665 98.9667 109.018 98.4133 109.471 97.96C109.925 97.5 110.468 97.1467 111.101 96.9C111.741 96.6533 112.451 96.53 113.231 96.53ZM113.231 105.08C114.018 105.08 114.601 104.81 114.981 104.27C115.361 103.723 115.551 102.913 115.551 101.84C115.551 100.773 115.361 99.97 114.981 99.43C114.601 98.8833 114.018 98.61 113.231 98.61C112.425 98.61 111.831 98.8833 111.451 99.43C111.071 99.97 110.881 100.773 110.881 101.84C110.881 102.913 111.071 103.723 111.451 104.27C111.831 104.81 112.425 105.08 113.231 105.08ZM134.879 96.69L131.639 107H129.409C129.295 107 129.192 106.963 129.099 106.89C129.012 106.817 128.945 106.693 128.899 106.52L127.219 100.94C127.152 100.727 127.092 100.517 127.039 100.31C126.992 100.097 126.949 99.8833 126.909 99.67C126.862 99.8833 126.812 100.1 126.759 100.32C126.712 100.533 126.655 100.747 126.589 100.96L124.889 106.52C124.795 106.84 124.595 107 124.289 107H122.169L118.929 96.69H121.129C121.329 96.69 121.495 96.7367 121.629 96.83C121.769 96.9233 121.862 97.0433 121.909 97.19L123.179 102.29C123.259 102.617 123.329 102.933 123.389 103.24C123.449 103.547 123.505 103.85 123.559 104.15C123.639 103.85 123.722 103.547 123.809 103.24C123.902 102.933 123.999 102.617 124.099 102.29L125.609 97.17C125.655 97.03 125.745 96.9133 125.879 96.82C126.012 96.7267 126.169 96.68 126.349 96.68H127.569C127.762 96.68 127.925 96.7267 128.059 96.82C128.199 96.9133 128.292 97.03 128.339 97.17L129.799 102.29C129.892 102.61 129.982 102.927 130.069 103.24C130.155 103.547 130.235 103.857 130.309 104.17C130.362 103.863 130.419 103.557 130.479 103.25C130.545 102.937 130.622 102.617 130.709 102.29L132.039 97.19C132.085 97.0433 132.175 96.9233 132.309 96.83C132.442 96.7367 132.599 96.69 132.779 96.69H134.879Z" fill="black" fill-opacity="0.64"/>
<line x1="159.5" y1="2.18557e-08" x2="159.5" y2="264" stroke="black"/>
<g filter="url(#filter0_d)">
<line x1="159.5" y1="59.5" x2="159.5" y2="121.5" stroke="black" stroke-width="5" stroke-linecap="round" stroke-linejoin="round"/>
</g>
<defs>
<filter id="filter0_d" x="153" y="57" width="13" height="75" filterUnits="userSpaceOnUse" color-interpolation-filters="sRGB">
<feFlood flood-opacity="0" result="BackgroundImageFix"/>
<feColorMatrix in="SourceAlpha" type="matrix" values="0 0 0 0 0 0 0 0 0 0 0 0 0 0 0 0 0 0 127 0"/>
<feOffset dy="4"/>
<feGaussianBlur stdDeviation="2"/>
<feColorMatrix type="matrix" values="0 0 0 0 0 0 0 0 0 0 0 0 0 0 0 0 0 0 0.25 0"/>
<feBlend mode="normal" in2="BackgroundImageFix" result="effect1_dropShadow"/>
<feBlend mode="normal" in="SourceGraphic" in2="effect1_dropShadow" result="shape"/>
</filter>
</defs>
</svg>
