<svg width="166" height="264" viewBox="0 0 166 264" fill="none" xmlns="http://www.w3.org/2000/svg">
<path d="M40.38 107.27C40.2867 107.423 40.19 107.537 40.09 107.61C39.9967 107.677 39.8733 107.71 39.72 107.71C39.5733 107.71 39.4133 107.66 39.24 107.56C39.0733 107.453 38.8767 107.34 38.65 107.22C38.4233 107.1 38.1633 106.99 37.87 106.89C37.5767 106.783 37.2333 106.73 36.84 106.73C36.1467 106.73 35.6267 106.887 35.28 107.2C34.9333 107.507 34.76 107.91 34.76 108.41C34.76 108.73 34.8533 108.997 35.04 109.21C35.2333 109.417 35.4833 109.597 35.79 109.75C36.1033 109.903 36.4567 110.04 36.85 110.16C37.2433 110.28 37.6467 110.413 38.06 110.56C38.4733 110.7 38.8767 110.867 39.27 111.06C39.6633 111.253 40.0133 111.497 40.32 111.79C40.6333 112.083 40.8833 112.443 41.07 112.87C41.2633 113.29 41.36 113.803 41.36 114.41C41.36 115.07 41.2433 115.69 41.01 116.27C40.7833 116.843 40.4533 117.347 40.02 117.78C39.5867 118.207 39.05 118.543 38.41 118.79C37.7767 119.037 37.0567 119.16 36.25 119.16C35.79 119.16 35.33 119.113 34.87 119.02C34.4167 118.927 33.9767 118.797 33.55 118.63C33.13 118.463 32.7333 118.263 32.36 118.03C31.9867 117.797 31.66 117.537 31.38 117.25L32.26 115.83C32.3333 115.723 32.43 115.637 32.55 115.57C32.67 115.497 32.7967 115.46 32.93 115.46C33.11 115.46 33.3 115.527 33.5 115.66C33.7 115.793 33.93 115.94 34.19 116.1C34.45 116.26 34.75 116.407 35.09 116.54C35.4367 116.673 35.85 116.74 36.33 116.74C37.03 116.74 37.57 116.58 37.95 116.26C38.3367 115.94 38.53 115.463 38.53 114.83C38.53 114.463 38.4333 114.167 38.24 113.94C38.0533 113.713 37.8067 113.523 37.5 113.37C37.1933 113.217 36.8433 113.087 36.45 112.98C36.0567 112.867 35.6533 112.743 35.24 112.61C34.8267 112.477 34.4233 112.317 34.03 112.13C33.6367 111.943 33.2867 111.697 32.98 111.39C32.6733 111.083 32.4233 110.703 32.23 110.25C32.0433 109.797 31.95 109.233 31.95 108.56C31.95 108.02 32.0567 107.497 32.27 106.99C32.4833 106.483 32.7967 106.033 33.21 105.64C33.6233 105.247 34.13 104.93 34.73 104.69C35.3367 104.45 36.03 104.33 36.81 104.33C37.6833 104.33 38.49 104.467 39.23 104.74C39.9767 105.007 40.6067 105.38 41.12 105.86L40.38 107.27ZM46.2664 119.16C45.7997 119.16 45.3864 119.093 45.0264 118.96C44.6664 118.82 44.3631 118.623 44.1164 118.37C43.8697 118.117 43.6831 117.81 43.5564 117.45C43.4297 117.09 43.3664 116.683 43.3664 116.23V110.67H42.3964C42.2497 110.67 42.1231 110.623 42.0164 110.53C41.9164 110.437 41.8664 110.297 41.8664 110.11V109.03L43.5164 108.73L44.0764 106.06C44.1497 105.76 44.3531 105.61 44.6864 105.61H46.1264V108.75H48.7864V110.67H46.1264V116.05C46.1264 116.337 46.1931 116.563 46.3264 116.73C46.4664 116.897 46.6631 116.98 46.9164 116.98C47.0497 116.98 47.1631 116.967 47.2564 116.94C47.3497 116.907 47.4297 116.873 47.4964 116.84C47.5631 116.8 47.6231 116.767 47.6764 116.74C47.7364 116.707 47.7964 116.69 47.8564 116.69C47.9364 116.69 48.0031 116.71 48.0564 116.75C48.1097 116.783 48.1631 116.843 48.2164 116.93L49.0464 118.25C48.6664 118.55 48.2364 118.777 47.7564 118.93C47.2764 119.083 46.7797 119.16 46.2664 119.16ZM55.655 114.69C54.9817 114.723 54.4217 114.783 53.975 114.87C53.5283 114.95 53.1717 115.057 52.905 115.19C52.645 115.323 52.4583 115.477 52.345 115.65C52.2383 115.817 52.185 116 52.185 116.2C52.185 116.6 52.295 116.883 52.515 117.05C52.7417 117.217 53.055 117.3 53.455 117.3C53.915 117.3 54.3117 117.22 54.645 117.06C54.985 116.893 55.3217 116.637 55.655 116.29V114.69ZM50.035 110.12C50.6417 109.573 51.3117 109.167 52.045 108.9C52.7783 108.627 53.5717 108.49 54.425 108.49C55.0383 108.49 55.585 108.59 56.065 108.79C56.5517 108.99 56.9617 109.27 57.295 109.63C57.635 109.983 57.895 110.407 58.075 110.9C58.255 111.393 58.345 111.933 58.345 112.52V119H57.085C56.825 119 56.625 118.963 56.485 118.89C56.3517 118.817 56.2417 118.663 56.155 118.43L55.935 117.77C55.675 117.997 55.4217 118.197 55.175 118.37C54.935 118.543 54.685 118.69 54.425 118.81C54.165 118.923 53.885 119.01 53.585 119.07C53.2917 119.13 52.9617 119.16 52.595 119.16C52.1417 119.16 51.7283 119.1 51.355 118.98C50.9817 118.86 50.6583 118.683 50.385 118.45C50.1183 118.21 49.9117 117.913 49.765 117.56C49.6183 117.207 49.545 116.8 49.545 116.34C49.545 115.96 49.6417 115.58 49.835 115.2C50.0283 114.82 50.3583 114.477 50.825 114.17C51.2983 113.857 51.925 113.6 52.705 113.4C53.4917 113.193 54.475 113.077 55.655 113.05V112.52C55.655 111.873 55.5183 111.4 55.245 111.1C54.9717 110.793 54.5783 110.64 54.065 110.64C53.685 110.64 53.3683 110.687 53.115 110.78C52.8617 110.867 52.6383 110.963 52.445 111.07C52.2583 111.17 52.0817 111.267 51.915 111.36C51.7483 111.447 51.555 111.49 51.335 111.49C51.1417 111.49 50.9783 111.443 50.845 111.35C50.7183 111.25 50.6117 111.133 50.525 111L50.035 110.12ZM63.2594 104.09V112.55H63.7194C63.8927 112.55 64.0294 112.527 64.1294 112.48C64.2294 112.427 64.3294 112.333 64.4294 112.2L66.7094 109.16C66.8227 109.007 66.9494 108.89 67.0894 108.81C67.236 108.73 67.4194 108.69 67.6394 108.69H70.1594L67.1994 112.45C66.966 112.763 66.696 113.01 66.3894 113.19C66.5427 113.297 66.676 113.42 66.7894 113.56C66.9027 113.7 67.0127 113.857 67.1194 114.03L70.3094 119H67.8294C67.616 119 67.4327 118.967 67.2794 118.9C67.126 118.827 66.9994 118.7 66.8994 118.52L64.5794 114.73C64.486 114.57 64.3894 114.467 64.2894 114.42C64.1894 114.373 64.0394 114.35 63.8394 114.35H63.2594V119H60.4994V104.09H63.2594ZM77.4495 112.63C77.4495 112.343 77.4095 112.07 77.3295 111.81C77.2562 111.55 77.1362 111.32 76.9695 111.12C76.8029 110.92 76.5929 110.763 76.3395 110.65C76.0862 110.53 75.7829 110.47 75.4295 110.47C74.7695 110.47 74.2529 110.657 73.8795 111.03C73.5062 111.403 73.2629 111.937 73.1495 112.63H77.4495ZM73.1095 114.27C73.1962 115.237 73.4695 115.943 73.9295 116.39C74.3962 116.837 75.0029 117.06 75.7495 117.06C76.1295 117.06 76.4562 117.017 76.7295 116.93C77.0095 116.837 77.2529 116.737 77.4595 116.63C77.6729 116.517 77.8629 116.417 78.0295 116.33C78.2029 116.237 78.3729 116.19 78.5395 116.19C78.7529 116.19 78.9195 116.27 79.0395 116.43L79.8395 117.43C79.5462 117.77 79.2229 118.053 78.8695 118.28C78.5162 118.5 78.1495 118.677 77.7695 118.81C77.3895 118.937 77.0062 119.023 76.6195 119.07C76.2329 119.123 75.8595 119.15 75.4995 119.15C74.7795 119.15 74.1062 119.033 73.4795 118.8C72.8595 118.56 72.3162 118.21 71.8495 117.75C71.3895 117.283 71.0262 116.707 70.7595 116.02C70.4929 115.333 70.3595 114.537 70.3595 113.63C70.3595 112.93 70.4729 112.27 70.6995 111.65C70.9329 111.03 71.2662 110.49 71.6995 110.03C72.1329 109.57 72.6595 109.207 73.2795 108.94C73.8995 108.667 74.5995 108.53 75.3795 108.53C76.0395 108.53 76.6462 108.637 77.1995 108.85C77.7595 109.057 78.2395 109.36 78.6395 109.76C79.0462 110.16 79.3595 110.653 79.5795 111.24C79.8062 111.82 79.9195 112.483 79.9195 113.23C79.9195 113.437 79.9095 113.607 79.8895 113.74C79.8695 113.873 79.8362 113.98 79.7895 114.06C79.7429 114.14 79.6795 114.197 79.5995 114.23C79.5195 114.257 79.4162 114.27 79.2895 114.27H73.1095ZM84.3922 109.7C84.5855 109.527 84.7855 109.37 84.9922 109.23C85.2055 109.083 85.4289 108.96 85.6622 108.86C85.9022 108.753 86.1555 108.673 86.4222 108.62C86.6955 108.56 86.9889 108.53 87.3022 108.53C87.8622 108.53 88.3589 108.627 88.7922 108.82C89.2255 109.013 89.5889 109.283 89.8822 109.63C90.1822 109.977 90.4055 110.39 90.5522 110.87C90.7055 111.35 90.7822 111.877 90.7822 112.45V119H88.0322V112.45C88.0322 111.877 87.8989 111.433 87.6322 111.12C87.3655 110.8 86.9722 110.64 86.4522 110.64C86.0655 110.64 85.7022 110.723 85.3622 110.89C85.0222 111.057 84.6989 111.29 84.3922 111.59V119H81.6322V104.09H84.3922V109.7ZM97.6298 108.53C98.4032 108.53 99.1065 108.653 99.7398 108.9C100.373 109.147 100.917 109.5 101.37 109.96C101.823 110.413 102.173 110.967 102.42 111.62C102.667 112.273 102.79 113.01 102.79 113.83C102.79 114.65 102.667 115.39 102.42 116.05C102.173 116.703 101.823 117.26 101.37 117.72C100.917 118.18 100.373 118.533 99.7398 118.78C99.1065 119.027 98.4032 119.15 97.6298 119.15C96.8498 119.15 96.1398 119.027 95.4998 118.78C94.8665 118.533 94.3232 118.18 93.8698 117.72C93.4165 117.26 93.0632 116.703 92.8098 116.05C92.5632 115.39 92.4398 114.65 92.4398 113.83C92.4398 113.01 92.5632 112.273 92.8098 111.62C93.0632 110.967 93.4165 110.413 93.8698 109.96C94.3232 109.5 94.8665 109.147 95.4998 108.9C96.1398 108.653 96.8498 108.53 97.6298 108.53ZM97.6298 117.08C98.4165 117.08 98.9998 116.81 99.3798 116.27C99.7598 115.723 99.9498 114.913 99.9498 113.84C99.9498 112.773 99.7598 111.97 99.3798 111.43C98.9998 110.883 98.4165 110.61 97.6298 110.61C96.8232 110.61 96.2298 110.883 95.8498 111.43C95.4698 111.97 95.2798 112.773 95.2798 113.84C95.2798 114.913 95.4698 115.723 95.8498 116.27C96.2298 116.81 96.8232 117.08 97.6298 117.08ZM107.303 104.09V119H104.543V104.09H107.303ZM115.971 111.37C115.711 111.07 115.428 110.86 115.121 110.74C114.821 110.62 114.501 110.56 114.161 110.56C113.828 110.56 113.524 110.623 113.251 110.75C112.978 110.877 112.741 111.077 112.541 111.35C112.348 111.617 112.198 111.96 112.091 112.38C111.984 112.8 111.931 113.3 111.931 113.88C111.931 114.453 111.974 114.94 112.061 115.34C112.148 115.74 112.271 116.063 112.431 116.31C112.598 116.557 112.798 116.737 113.031 116.85C113.264 116.957 113.524 117.01 113.811 117.01C114.298 117.01 114.704 116.913 115.031 116.72C115.364 116.527 115.678 116.253 115.971 115.9V111.37ZM118.731 104.09V119H117.031C116.678 119 116.451 118.84 116.351 118.52L116.121 117.62C115.914 117.847 115.694 118.053 115.461 118.24C115.234 118.427 114.988 118.59 114.721 118.73C114.454 118.863 114.168 118.967 113.861 119.04C113.554 119.113 113.221 119.15 112.861 119.15C112.308 119.15 111.801 119.033 111.341 118.8C110.881 118.567 110.481 118.227 110.141 117.78C109.808 117.327 109.548 116.773 109.361 116.12C109.174 115.467 109.081 114.72 109.081 113.88C109.081 113.113 109.184 112.4 109.391 111.74C109.604 111.08 109.904 110.51 110.291 110.03C110.678 109.55 111.144 109.173 111.691 108.9C112.238 108.627 112.844 108.49 113.511 108.49C114.071 108.49 114.541 108.573 114.921 108.74C115.308 108.907 115.658 109.133 115.971 109.42V104.09H118.731ZM127.567 112.63C127.567 112.343 127.527 112.07 127.447 111.81C127.373 111.55 127.253 111.32 127.087 111.12C126.92 110.92 126.71 110.763 126.457 110.65C126.203 110.53 125.9 110.47 125.547 110.47C124.887 110.47 124.37 110.657 123.997 111.03C123.623 111.403 123.38 111.937 123.267 112.63H127.567ZM123.227 114.27C123.313 115.237 123.587 115.943 124.047 116.39C124.513 116.837 125.12 117.06 125.867 117.06C126.247 117.06 126.573 117.017 126.847 116.93C127.127 116.837 127.37 116.737 127.577 116.63C127.79 116.517 127.98 116.417 128.147 116.33C128.32 116.237 128.49 116.19 128.657 116.19C128.87 116.19 129.037 116.27 129.157 116.43L129.957 117.43C129.663 117.77 129.34 118.053 128.987 118.28C128.633 118.5 128.267 118.677 127.887 118.81C127.507 118.937 127.123 119.023 126.737 119.07C126.35 119.123 125.977 119.15 125.617 119.15C124.897 119.15 124.223 119.033 123.597 118.8C122.977 118.56 122.433 118.21 121.967 117.75C121.507 117.283 121.143 116.707 120.877 116.02C120.61 115.333 120.477 114.537 120.477 113.63C120.477 112.93 120.59 112.27 120.817 111.65C121.05 111.03 121.383 110.49 121.817 110.03C122.25 109.57 122.777 109.207 123.397 108.94C124.017 108.667 124.717 108.53 125.497 108.53C126.157 108.53 126.763 108.637 127.317 108.85C127.877 109.057 128.357 109.36 128.757 109.76C129.163 110.16 129.477 110.653 129.697 111.24C129.923 111.82 130.037 112.483 130.037 113.23C130.037 113.437 130.027 113.607 130.007 113.74C129.987 113.873 129.953 113.98 129.907 114.06C129.86 114.14 129.797 114.197 129.717 114.23C129.637 114.257 129.533 114.27 129.407 114.27H123.227ZM134.339 110.39C134.666 109.803 135.043 109.34 135.469 109C135.896 108.66 136.396 108.49 136.969 108.49C137.436 108.49 137.816 108.6 138.109 108.82L137.929 110.86C137.896 110.993 137.843 111.087 137.769 111.14C137.703 111.187 137.609 111.21 137.489 111.21C137.383 111.21 137.229 111.197 137.029 111.17C136.829 111.137 136.643 111.12 136.469 111.12C136.216 111.12 135.989 111.157 135.789 111.23C135.596 111.303 135.423 111.407 135.269 111.54C135.116 111.673 134.976 111.837 134.849 112.03C134.729 112.223 134.616 112.443 134.509 112.69V119H131.749V108.69H133.379C133.659 108.69 133.853 108.74 133.959 108.84C134.066 108.94 134.143 109.113 134.189 109.36L134.339 110.39Z" fill="black" fill-opacity="0.64"/>
<line x1="6.5" y1="2.18557e-08" x2="6.49999" y2="264" stroke="black"/>
<g filter="url(#filter0_d)">
<line x1="6.5" y1="59.5" x2="6.5" y2="121.5" stroke="black" stroke-width="5" stroke-linecap="round" stroke-linejoin="round"/>
</g>
<defs>
<filter id="filter0_d" x="0" y="57" width="13" height="75" filterUnits="userSpaceOnUse" color-interpolation-filters="sRGB">
<feFlood flood-opacity="0" result="BackgroundImageFix"/>
<feColorMatrix in="SourceAlpha" type="matrix" values="0 0 0 0 0 0 0 0 0 0 0 0 0 0 0 0 0 0 127 0"/>
<feOffset dy="4"/>
<feGaussianBlur stdDeviation="2"/>
<feColorMatrix type="matrix" values="0 0 0 0 0 0 0 0 0 0 0 0 0 0 0 0 0 0 0.25 0"/>
<feBlend mode="normal" in2="BackgroundImageFix" result="effect1_dropShadow"/>
<feBlend mode="normal" in="SourceGraphic" in2="effect1_dropShadow" result="shape"/>
</filter>
</defs>
</svg>
