<svg width="238" height="54" viewBox="0 0 238 54" fill="none" xmlns="http://www.w3.org/2000/svg">
<g filter="url(#filter0_d)">
<path d="M4 5C4 2.23857 6.23858 0 9 0H229C231.761 0 234 2.23858 234 5V41C234 43.7614 231.761 46 229 46H9C6.23858 46 4 43.7614 4 41V5Z" fill="#F4F4F4" fill-opacity="0.64"/>
</g>
<path d="M35.08 14.032V31H30.952V23.92H24.52V31H20.416V14.032H24.52V20.608H30.952V14.032H35.08ZM44.1644 17.44C45.4924 17.44 46.6764 17.72 47.7164 18.28C48.7724 18.824 49.5964 19.616 50.1884 20.656C50.7964 21.696 51.1004 22.912 51.1004 24.304C51.1004 25.696 50.7964 26.912 50.1884 27.952C49.5964 28.992 48.7724 29.792 47.7164 30.352C46.6764 30.896 45.4924 31.168 44.1644 31.168C42.8364 31.168 41.6444 30.896 40.5884 30.352C39.5324 29.792 38.7004 28.992 38.0924 27.952C37.5004 26.912 37.2044 25.696 37.2044 24.304C37.2044 22.912 37.5004 21.696 38.0924 20.656C38.7004 19.616 39.5324 18.824 40.5884 18.28C41.6444 17.72 42.8364 17.44 44.1644 17.44ZM44.1644 20.992C43.3804 20.992 42.7164 21.28 42.1724 21.856C41.6444 22.416 41.3804 23.232 41.3804 24.304C41.3804 25.376 41.6444 26.192 42.1724 26.752C42.7164 27.312 43.3804 27.592 44.1644 27.592C44.9484 27.592 45.6044 27.312 46.1324 26.752C46.6604 26.192 46.9244 25.376 46.9244 24.304C46.9244 23.232 46.6604 22.416 46.1324 21.856C45.6044 21.28 44.9484 20.992 44.1644 20.992ZM59.4205 26.992L62.3245 17.608H66.6925L61.9405 31H56.8525L52.1005 17.608H56.4685L59.4205 26.992ZM81.1126 23.944C81.1126 24.28 81.0726 24.648 80.9926 25.048H71.7046C71.7526 26.056 72.0086 26.784 72.4726 27.232C72.9366 27.664 73.5286 27.88 74.2486 27.88C74.8566 27.88 75.3606 27.728 75.7606 27.424C76.1606 27.12 76.4246 26.728 76.5526 26.248H80.8966C80.7206 27.192 80.3366 28.04 79.7446 28.792C79.1526 29.528 78.4006 30.112 77.4886 30.544C76.5766 30.96 75.5606 31.168 74.4406 31.168C73.1286 31.168 71.9606 30.896 70.9366 30.352C69.9286 29.792 69.1366 28.992 68.5606 27.952C67.9846 26.912 67.6966 25.696 67.6966 24.304C67.6966 22.896 67.9766 21.68 68.5366 20.656C69.1126 19.616 69.9126 18.824 70.9366 18.28C71.9606 17.72 73.1286 17.44 74.4406 17.44C75.7686 17.44 76.9366 17.712 77.9446 18.256C78.9526 18.8 79.7286 19.568 80.2726 20.56C80.8326 21.536 81.1126 22.664 81.1126 23.944ZM76.9606 23.32C76.9766 22.44 76.7366 21.784 76.2406 21.352C75.7606 20.904 75.1606 20.68 74.4406 20.68C73.6886 20.68 73.0646 20.904 72.5686 21.352C72.0726 21.8 71.7926 22.456 71.7286 23.32H76.9606ZM87.3559 20.128C87.8679 19.312 88.5239 18.664 89.3239 18.184C90.1399 17.704 91.0199 17.464 91.9639 17.464V21.856H90.7879C89.6999 21.856 88.8519 22.088 88.2439 22.552C87.6519 23.016 87.3559 23.8 87.3559 24.904V31H83.2519V17.608H87.3559V20.128ZM104.75 17.44C106.078 17.44 107.262 17.72 108.302 18.28C109.358 18.824 110.182 19.616 110.774 20.656C111.382 21.696 111.686 22.912 111.686 24.304C111.686 25.696 111.382 26.912 110.774 27.952C110.182 28.992 109.358 29.792 108.302 30.352C107.262 30.896 106.078 31.168 104.75 31.168C103.422 31.168 102.23 30.896 101.174 30.352C100.118 29.792 99.2863 28.992 98.6783 27.952C98.0863 26.912 97.7903 25.696 97.7903 24.304C97.7903 22.912 98.0863 21.696 98.6783 20.656C99.2863 19.616 100.118 18.824 101.174 18.28C102.23 17.72 103.422 17.44 104.75 17.44ZM104.75 20.992C103.966 20.992 103.302 21.28 102.758 21.856C102.23 22.416 101.966 23.232 101.966 24.304C101.966 25.376 102.23 26.192 102.758 26.752C103.302 27.312 103.966 27.592 104.75 27.592C105.534 27.592 106.19 27.312 106.718 26.752C107.246 26.192 107.51 25.376 107.51 24.304C107.51 23.232 107.246 22.416 106.718 21.856C106.19 21.28 105.534 20.992 104.75 20.992ZM120.006 26.992L122.91 17.608H127.278L122.526 31H117.438L112.686 17.608H117.054L120.006 26.992ZM141.699 23.944C141.699 24.28 141.659 24.648 141.579 25.048H132.291C132.339 26.056 132.595 26.784 133.059 27.232C133.523 27.664 134.115 27.88 134.835 27.88C135.443 27.88 135.947 27.728 136.347 27.424C136.747 27.12 137.011 26.728 137.139 26.248H141.483C141.307 27.192 140.923 28.04 140.331 28.792C139.739 29.528 138.987 30.112 138.075 30.544C137.163 30.96 136.147 31.168 135.027 31.168C133.715 31.168 132.547 30.896 131.523 30.352C130.515 29.792 129.723 28.992 129.146 27.952C128.571 26.912 128.283 25.696 128.283 24.304C128.283 22.896 128.563 21.68 129.123 20.656C129.699 19.616 130.499 18.824 131.523 18.28C132.547 17.72 133.715 17.44 135.027 17.44C136.355 17.44 137.523 17.712 138.531 18.256C139.539 18.8 140.315 19.568 140.859 20.56C141.419 21.536 141.699 22.664 141.699 23.944ZM137.547 23.32C137.563 22.44 137.323 21.784 136.827 21.352C136.347 20.904 135.747 20.68 135.027 20.68C134.275 20.68 133.651 20.904 133.155 21.352C132.659 21.8 132.379 22.456 132.315 23.32H137.547ZM147.942 20.128C148.454 19.312 149.11 18.664 149.91 18.184C150.726 17.704 151.606 17.464 152.55 17.464V21.856H151.374C150.286 21.856 149.438 22.088 148.83 22.552C148.238 23.016 147.942 23.8 147.942 24.904V31H143.838V17.608H147.942V20.128ZM176.424 17.464C178.072 17.464 179.368 17.976 180.312 19C181.256 20.008 181.728 21.416 181.728 23.224V31H177.648V23.704C177.648 22.856 177.416 22.2 176.952 21.736C176.504 21.256 175.888 21.016 175.104 21.016C174.288 21.016 173.64 21.272 173.16 21.784C172.696 22.28 172.464 22.984 172.464 23.896V31H168.36V23.704C168.36 22.856 168.136 22.2 167.688 21.736C167.24 21.256 166.624 21.016 165.84 21.016C165.024 21.016 164.376 21.264 163.896 21.76C163.416 22.256 163.176 22.968 163.176 23.896V31H159.072V17.608H163.176V19.888C163.528 19.136 164.064 18.544 164.784 18.112C165.52 17.68 166.376 17.464 167.352 17.464C168.376 17.464 169.28 17.704 170.064 18.184C170.848 18.648 171.44 19.32 171.84 20.2C172.304 19.368 172.936 18.704 173.736 18.208C174.552 17.712 175.448 17.464 176.424 17.464ZM197.175 23.944C197.175 24.28 197.135 24.648 197.055 25.048H187.767C187.815 26.056 188.071 26.784 188.535 27.232C188.999 27.664 189.591 27.88 190.311 27.88C190.919 27.88 191.423 27.728 191.823 27.424C192.223 27.12 192.487 26.728 192.615 26.248H196.959C196.783 27.192 196.399 28.04 195.807 28.792C195.215 29.528 194.463 30.112 193.551 30.544C192.639 30.96 191.623 31.168 190.503 31.168C189.191 31.168 188.023 30.896 186.999 30.352C185.991 29.792 185.199 28.992 184.623 27.952C184.047 26.912 183.759 25.696 183.759 24.304C183.759 22.896 184.039 21.68 184.599 20.656C185.175 19.616 185.975 18.824 186.999 18.28C188.023 17.72 189.191 17.44 190.503 17.44C191.831 17.44 192.999 17.712 194.007 18.256C195.015 18.8 195.791 19.568 196.335 20.56C196.895 21.536 197.175 22.664 197.175 23.944ZM193.023 23.32C193.039 22.44 192.799 21.784 192.303 21.352C191.823 20.904 191.223 20.68 190.503 20.68C189.751 20.68 189.127 20.904 188.631 21.352C188.135 21.8 187.855 22.456 187.791 23.32H193.023Z" fill="black" fill-opacity="0.28"/>
<defs>
<filter id="filter0_d" x="0" y="0" width="238" height="54" filterUnits="userSpaceOnUse" color-interpolation-filters="sRGB">
<feFlood flood-opacity="0" result="BackgroundImageFix"/>
<feColorMatrix in="SourceAlpha" type="matrix" values="0 0 0 0 0 0 0 0 0 0 0 0 0 0 0 0 0 0 127 0"/>
<feOffset dy="4"/>
<feGaussianBlur stdDeviation="2"/>
<feColorMatrix type="matrix" values="0 0 0 0 0 0 0 0 0 0 0 0 0 0 0 0 0 0 0.25 0"/>
<feBlend mode="normal" in2="BackgroundImageFix" result="effect1_dropShadow"/>
<feBlend mode="normal" in="SourceGraphic" in2="effect1_dropShadow" result="shape"/>
</filter>
</defs>
</svg>
