<svg width="1440" height="2108" viewBox="0 0 1440 2108" fill="none" xmlns="http://www.w3.org/2000/svg">
<rect x="-474.908" y="701.092" width="2375" height="1471.78" transform="rotate(-17.1693 -474.908 701.092)" fill="#C4C4C4" fill-opacity="0.55"/>
<rect x="105.624" y="1018.21" width="287" height="497" rx="11.5" transform="rotate(-17.0219 105.624 1018.21)" fill="#C4C4C4" stroke="black"/>
<rect x="-315.376" y="857.215" width="287" height="497" rx="11.5" transform="rotate(-17.0219 -315.376 857.215)" fill="#C4C4C4" stroke="black"/>
<rect x="-141.376" y="1417.21" width="287" height="497" rx="11.5" transform="rotate(-17.0219 -141.376 1417.21)" fill="#C4C4C4" stroke="black"/>
<rect x="279.624" y="1550.21" width="287" height="497" rx="11.5" transform="rotate(-17.0219 279.624 1550.21)" fill="#C4C4C4" stroke="black"/>
<rect x="-68.3755" y="476.215" width="287" height="497" rx="11.5" transform="rotate(-17.0219 -68.3755 476.215)" fill="#C4C4C4" stroke="black"/>
<rect x="410.624" y="791.215" width="287" height="497" rx="11.5" transform="rotate(-17.0219 410.624 791.215)" fill="#C4C4C4" stroke="black"/>
<rect x="584.624" y="1323.21" width="287" height="497" rx="11.5" transform="rotate(-17.0219 584.624 1323.21)" fill="#C4C4C4" stroke="black"/>
<rect x="236.624" y="249.215" width="287" height="497" rx="11.5" transform="rotate(-17.0219 236.624 249.215)" fill="#C4C4C4" stroke="black"/>
<rect x="831.624" y="975.215" width="287" height="497" rx="11.5" transform="rotate(-17.0219 831.624 975.215)" fill="#C4C4C4" stroke="black"/>
<rect x="1005.62" y="1507.21" width="287" height="497" rx="11.5" transform="rotate(-17.0219 1005.62 1507.21)" fill="#C4C4C4" stroke="black"/>
<rect x="657.624" y="433.215" width="287" height="497" rx="11.5" transform="rotate(-17.0219 657.624 433.215)" fill="#C4C4C4" stroke="black"/>
<rect x="1136.62" y="748.215" width="287" height="497" rx="11.5" transform="rotate(-17.0219 1136.62 748.215)" fill="#C4C4C4" stroke="black"/>
<rect x="1310.62" y="1280.21" width="287" height="497" rx="11.5" transform="rotate(-17.0219 1310.62 1280.21)" fill="#C4C4C4" stroke="black"/>
<rect x="962.624" y="206.215" width="287" height="497" rx="11.5" transform="rotate(-17.0219 962.624 206.215)" fill="#C4C4C4" stroke="black"/>
<rect x="1347.62" y="249.215" width="287" height="497" rx="11.5" transform="rotate(-17.0219 1347.62 249.215)" fill="#C4C4C4" stroke="black"/>
</svg>
